<?xml version="1.0" standalone="no"?>
<!DOCTYPE svg PUBLIC "-//W3C//DTD SVG 1.1//EN" "http://www.w3.org/Graphics/SVG/1.1/DTD/svg11.dtd" >
<svg>
<metadata>
Created by FontForge 20090914 at Wed Feb 25 09:06:00 2015
 By www-data
Copyright 2000, 2002, 2004 Adobe Systems Incorporated. All Rights Reserved. (Latin design U.S. Patent Des. 337,604; Arabic design U.S. Patent Des. 529,537.)
</metadata>
<defs>
<font id="AdobeArabic-Regular" horiz-adv-x="0" >
  <font-face 
    font-family="Adobe Arabic"
    font-weight="400"
    font-stretch="normal"
    units-per-em="2048"
    panose-1="2 4 5 3 5 2 1 2 2 3"
    ascent="1368"
    descent="-680"
    x-height="638"
    cap-height="951.001"
    bbox="-894 -1122 3555 1792"
    underline-thickness="50"
    underline-position="-50"
    unicode-range="U+0020-U+FEFC"
  />
<missing-glyph horiz-adv-x="728" 
d="M728 0h-728v1020h728v-1020zM612 947h-495l247 -372zM655 138v743l-247 -371zM117 73h495l-248 371zM73 881v-743l247 372z" />
    <glyph glyph-name="f_i" unicode="fi" horiz-adv-x="811" 
d="M785 0l-323.001 0.00292969v39c40.667 4.66699 65.834 12.667 75.501 24s14.5 39.333 14.5 84v348c0 36 -4 58.667 -12 68s-30.333 14 -67 14h-195v-430c0 -44.667 5.83301 -72.667 17.5 -84s40.5 -19.333 86.5 -24v-39h-337v39
c46.667 5.33301 75.834 13.666 87.501 24.999s17.5 39 17.5 83v430h-108l-7 17l42 44h73v36c0 41.333 6.66699 81.333 20 120c26 67.333 67 122.666 123 165.999c62.667 48.667 125.667 75.334 189 80.001c72.667 -2.66699 126.667 -26.334 162 -71.001
c12.667 -18.667 15 -38.334 7 -59.001c-8.66699 -17.333 -20.334 -29.333 -35.001 -36c-18 -12 -33 -11.667 -45 1c-50 62.667 -102.333 94 -157 94c-40 0 -70.667 -19 -92 -57c-29.333 -44.667 -44 -118.667 -44 -222v-52h123c125.333 0 219 6.33301 281 19v-510
c0 -45.333 5.33301 -73.5 16 -84.5s39.667 -18.833 87 -23.5v-39z" />
    <glyph glyph-name="f_l" unicode="fl" horiz-adv-x="808" 
d="M788 0l-327.999 0.000976562v39c41.333 4.66699 67 12.667 77 24s15 39.333 15 84v756c-12.667 20.667 -31.5 37.5 -56.5 50.5s-50.167 19.5 -75.5 19.5c-40 0 -72.333 -16.667 -97 -50c-30 -40 -45 -107 -45 -201v-84h172c4 -6 4.5 -16.5 1.5 -31.5
s-8.83301 -24.833 -17.5 -29.5h-156v-431c0 -44.667 5.16699 -72.5 15.5 -83.5s38.166 -18.833 83.499 -23.5v-39h-332v39c48 5.33301 77.5 13.5 88.5 24.5s16.5 38.5 16.5 82.5v431h-106l-6 19l41 42h71v26c0 52.667 6.66699 98 20 136
c25.333 65.333 66.333 120.666 123 165.999c54 42 112.667 66.667 176 74c50 0 92.667 -11 128 -33c15.333 3.33301 39.333 13.333 72 30l13 -9v-881c0 -44.667 5.66699 -72.5 17 -83.5s41 -19.167 89 -24.5v-39z" />
    <glyph glyph-name="uniFC31" unicode="&#xfed3;&#xfef0;" horiz-adv-x="1013" arabic-form="isolated" 
d="M519 949c32.667 43.333 59.667 77.334 81 102.001c40 -29.333 80 -65 120 -107c-23.333 -38 -51 -70.667 -83 -98c-18 17.333 -57.333 51.666 -118 102.999zM808 307.001c0 3.33301 -0.5 8.5 -1.5 15.5s-1.5 12.167 -1.5 15.5c-29.333 -7.33301 -64 -11 -104 -11
c-119.333 0 -193.666 33.333 -222.999 100c-9.33301 22 -14 44.667 -14 68c0 75.333 23.333 137 70 185c39.333 41.333 79.666 62 120.999 62c73.333 0 133.333 -61.667 180 -185c25.333 -68 38 -146.333 38 -235c0 -49.333 -15.333 -96.666 -46 -141.999
c44.667 -14.667 73.5 -30.834 86.5 -48.501s19.5 -45.5 19.5 -83.5c0 -40 -9 -78 -27 -114c-20 -38 -61 -77.667 -123 -119c-104.667 -71.333 -218.667 -107 -342 -107c-97.333 0 -180 31.667 -248 95c-68.667 72.667 -103 161.667 -103 267
c0 108.667 22 213.334 66 314.001l40 -15c-25.333 -71.333 -38 -141.333 -38 -210c0 -76 19.333 -141.667 58 -197c62 -76 141 -114 237 -114c103.333 0 199.666 24.667 288.999 74c59.333 32.667 103.333 66.667 132 102c0 18.667 -37.333 35.667 -112 51
s-155.667 23 -243 23l-4 7l44 103c84.667 10 147.334 22.667 188.001 38s61 35.666 61 60.999zM792 448.001c-36.667 114 -89.3311 171 -157.998 171c-28.667 0 -54.834 -9.66699 -78.501 -29s-35.5 -39 -35.5 -59c0 -24 19.5 -44.5 58.5 -61.5s82.833 -25.5 131.5 -25.5
c37.333 0 64.666 1.33301 81.999 4z" />
    <glyph glyph-name="uniFC32" unicode="&#xfed3;&#xfef2;" horiz-adv-x="1013" arabic-form="isolated" 
d="M519 949c32.667 43.333 59.667 77.334 81 102.001c40 -29.333 80 -65 120 -107c-23.333 -38 -51 -70.667 -83 -98c-18 17.333 -57.333 51.666 -118 102.999zM808 307.001c0 3.33301 -0.5 8.5 -1.5 15.5s-1.5 12.167 -1.5 15.5c-29.333 -7.33301 -64 -11 -104 -11
c-119.333 0 -193.666 33.333 -222.999 100c-9.33301 22 -14 44.667 -14 68c0 75.333 23.333 137 70 185c39.333 41.333 79.666 62 120.999 62c73.333 0 133.333 -61.667 180 -185c25.333 -68 38 -146.333 38 -235c0 -49.333 -15.333 -96.666 -46 -141.999
c44.667 -14.667 73.5 -30.834 86.5 -48.501s19.5 -45.5 19.5 -83.5c0 -40 -9 -78 -27 -114c-20 -38 -61 -77.667 -123 -119c-104.667 -71.333 -218.667 -107 -342 -107c-97.333 0 -180 31.667 -248 95c-68.667 72.667 -103 161.667 -103 267
c0 108.667 22 213.334 66 314.001l40 -15c-25.333 -71.333 -38 -141.333 -38 -210c0 -76 19.333 -141.667 58 -197c62 -76 141 -114 237 -114c103.333 0 199.666 24.667 288.999 74c59.333 32.667 103.333 66.667 132 102c0 18.667 -37.333 35.667 -112 51
s-155.667 23 -243 23l-4 7l44 103c84.667 10 147.334 22.667 188.001 38s61 35.666 61 60.999zM792 448.001c-36.667 114 -89.3311 171 -157.998 171c-28.667 0 -54.834 -9.66699 -78.501 -29s-35.5 -39 -35.5 -59c0 -24 19.5 -44.5 58.5 -61.5s82.833 -25.5 131.5 -25.5
c37.333 0 64.666 1.33301 81.999 4zM683.003 -492.999c-28.667 -40.667 -54 -71.334 -76 -92.001c-39.333 37.333 -78.333 72 -117 104c24.667 34.667 51 66.334 79 95.001c35.333 -28 73.333 -63.667 114 -107zM490.003 -505.999c-28.667 -40.667 -54 -71.334 -76 -92.001
c-39.333 37.333 -78.333 72 -117 104c24.667 34.667 51 66.334 79 95.001c35.333 -28 73.333 -63.667 114 -107z" />
    <glyph glyph-name="uniFC43" unicode="&#xfedf;&#xfef0;" horiz-adv-x="1003" arabic-form="isolated" 
d="M810 1029l7.00293 -5.00195c-2 -60 25 -136.333 81 -229c-20.667 -19.333 -42.667 -37.333 -66 -54c0.666992 -25.333 2.16699 -61.666 4.5 -108.999s4.16602 -90.166 5.49902 -128.499s2 -73.833 2 -106.5c0 -58.667 -4.5 -109.667 -13.5 -153s-26.167 -87 -51.5 -131
c56.667 -13.333 94 -30.333 112 -51s27 -53 27 -97c0 -37.333 -13.667 -82.333 -41 -135c-137.333 -134.667 -287.333 -202 -450 -202c-46 0 -90 8.66699 -132 26s-77.667 40 -107 68c-69.333 73.333 -104 162.666 -104 267.999c0 94.667 25 199.334 75 314.001l39 -15
c-30 -84 -45 -154 -45 -210c0 -76 19.333 -141.667 58 -197c62 -76 138 -114 228 -114c109.333 0 205.333 25 288 75c65.333 39.333 107.666 72.333 126.999 99c0 18 -32.333 34.833 -97 50.5s-137.334 26.5 -218.001 32.5l-7 9l48 104c92.667 14 152.667 38.333 180 73
c1.33301 24 2 60.333 2 109c-2 134.667 -10.667 288.667 -26 462c-0.666992 10.667 -2 24.834 -4 42.501s-3.66699 33.167 -5 46.5s-2 25.333 -2 36c0 22.667 10 45 30 67c14 17.333 32.333 35.666 55 54.999z" />
    <glyph glyph-name="uniFC44" unicode="&#xfedf;&#xfef2;" horiz-adv-x="1003" arabic-form="isolated" 
d="M810 1029l7.00293 -5.00195c-2 -60 25 -136.333 81 -229c-20.667 -19.333 -42.667 -37.333 -66 -54c0.666992 -25.333 2.16699 -61.666 4.5 -108.999s4.16602 -90.166 5.49902 -128.499s2 -73.833 2 -106.5c0 -58.667 -4.5 -109.667 -13.5 -153s-26.167 -87 -51.5 -131
c56.667 -13.333 94 -30.333 112 -51s27 -53 27 -97c0 -37.333 -13.667 -82.333 -41 -135c-137.333 -134.667 -287.333 -202 -450 -202c-46 0 -90 8.66699 -132 26s-77.667 40 -107 68c-69.333 73.333 -104 162.666 -104 267.999c0 94.667 25 199.334 75 314.001l39 -15
c-30 -84 -45 -154 -45 -210c0 -76 19.333 -141.667 58 -197c62 -76 138 -114 228 -114c109.333 0 205.333 25 288 75c65.333 39.333 107.666 72.333 126.999 99c0 18 -32.333 34.833 -97 50.5s-137.334 26.5 -218.001 32.5l-7 9l48 104c92.667 14 152.667 38.333 180 73
c1.33301 24 2 60.333 2 109c-2 134.667 -10.667 288.667 -26 462c-0.666992 10.667 -2 24.834 -4 42.501s-3.66699 33.167 -5 46.5s-2 25.333 -2 36c0 22.667 10 45 30 67c14 17.333 32.333 35.666 55 54.999zM664.003 -553.002c-28.667 -40.667 -54 -71.334 -76 -92.001
c-39.333 37.333 -78.333 72 -117 104c24.667 34.667 51 66.334 79 95.001c35.333 -28 73.333 -63.667 114 -107zM471.003 -566.002c-28.667 -40.667 -54 -71.334 -76 -92.001c-39.333 37.333 -78.333 72 -117 104c24.667 34.667 51 66.334 79 95.001
c35.333 -28 73.333 -63.667 114 -107z" />
    <glyph glyph-name="uniFC64" unicode="&#xfe8c;&#xfeae;" horiz-adv-x="910" arabic-form="final" 
d="M832 699l0.00195312 -2.99902c-12.667 -26 -25.667 -48.667 -39 -68c-97.333 -15.333 -184 -40.333 -260 -75l-2 3l24 42c12.667 16 28 27 46 33v3c-52 15.333 -78 44.333 -78 87c0 27.333 15.667 56.666 47 87.999c42.667 38 83 57 121 57
c19.333 0 34.666 -4.83301 45.999 -14.5s17 -21.167 17 -34.5c0 -18 -10.667 -39.667 -32 -65h-2c-12 23.333 -22.667 36.333 -32 39c-6.66699 2 -17 3 -31 3c-16.667 0 -32.5 -3.83301 -47.5 -11.5s-22.5 -15.5 -22.5 -23.5c0 -14.667 8.16699 -27.167 24.5 -37.5
s34.666 -17.333 54.999 -21s41.5 -5.5 63.5 -5.5c22.667 0 56.667 1.33301 102 4zM694.002 479.001l9.99902 0.00195312c1.33301 -6 3 -15.667 5 -29s5.16699 -31.833 9.5 -55.5l12.5 -71.5c16.667 -90.667 45 -148.334 85 -173.001c27.333 -14.667 54.333 -22 81 -22h13
v-128h-18c-59.333 0 -104 15.667 -134 47s-55 87.666 -75 168.999l-25 102h-5c-16 -32.667 -36.833 -59.167 -62.5 -79.5s-54.167 -29.5 -85.5 -27.5c9.33301 -40 14 -86 14 -138c0 -16 -0.666992 -33.333 -2 -52c-4 -38.667 -23 -83.334 -57 -134.001
c-32 -48 -66 -85.333 -102 -112s-67.667 -40 -95 -40c-40.667 0 -81 6.5 -121 19.5s-86.667 32.833 -140 59.5l14 32c36 -16.667 67.333 -25 94 -25c102.667 0 194 47.333 274 142c54 63.333 81 110.333 81 141c-7.33301 19.333 -18.5 39.833 -33.5 61.5
s-28 38.834 -39 51.501s-28.5 31.667 -52.5 57l33 128h9c30.667 -28 55 -49 73 -63c21.333 -14.667 49.333 -22 84 -22c25.333 0 49 9 71 27c9.33301 7.33301 18.333 17.833 27 31.5s18.334 31.167 29.001 52.5s20 38.333 28 51z" />
    <glyph glyph-name="uniFC67" unicode="&#xfe8c;&#xfee6;" horiz-adv-x="1120" arabic-form="final" 
d="M310 640c32.667 43.333 59.667 77.334 81 102.001c40 -29.333 80 -65 120 -107c-23.333 -38 -51 -70.667 -83 -98c-18 17.333 -57.333 51.666 -118 102.999zM1057 699.001l0.00195312 -2.99902c-12.667 -26 -25.667 -48.667 -39 -68
c-97.333 -15.333 -184 -40.333 -260 -75l-2 3l24 42c12.667 16 28 27 46 33v3c-52 15.333 -78 44.333 -78 87c0 27.333 15.667 56.666 47 87.999c42.667 38 83 57 121 57c19.333 0 34.666 -4.83301 45.999 -14.5s17 -21.167 17 -34.5c0 -18 -10.667 -39.667 -32 -65h-2
c-12 23.333 -22.667 36.333 -32 39c-6.66699 2 -17 3 -31 3c-16.667 0 -32.5 -3.83301 -47.5 -11.5s-22.5 -15.5 -22.5 -23.5c0 -14.667 8.16699 -27.167 24.5 -37.5s34.666 -17.333 54.999 -21s41.5 -5.5 63.5 -5.5c22.667 0 56.667 1.33301 102 4zM904.002 489.002
h9.99902c0.666992 -4 2.5 -13.333 5.5 -28s6.5 -33 10.5 -55l13 -71c18 -96 46 -156 84 -180c33.333 -18 59.666 -27 78.999 -27h14v-128h-16c-58.667 0 -103.167 17 -133.5 51s-55.833 92 -76.5 174l-26 103h-5c-33.333 -67.333 -80.333 -102 -141 -104
c20 -50 30 -112.667 30 -188c0 -60 -9.66699 -114 -29 -162c-26 -39.333 -61.333 -75 -106 -107c-71.333 -45.333 -146.333 -68 -225 -68c-91.333 0 -163.666 29.167 -216.999 87.5s-80 134.5 -80 228.5c0 79.333 16.667 158 50 236l35 -13c-18 -60.667 -27 -115 -27 -163
c0 -70.667 24 -128.5 72 -173.5s103.667 -67.5 167 -67.5c69.333 0 136.333 18.667 201 56c69.333 47.333 104 88.666 104 123.999c0 24.667 -7.33301 58 -22 100c-16.667 46 -58.667 102.667 -126 170l36 130l10 1c31.333 -29.333 56 -50.666 74 -63.999
c20 -14 47 -21 81 -21c26.667 0 50 8 70 24c9.33301 7.33301 18.333 17.833 27 31.5s18.334 31.167 29.001 52.5s20 38.333 28 51z" />
    <glyph glyph-name="uniFC6A" unicode="&#xfe92;&#xfeae;" horiz-adv-x="910" arabic-form="final" 
d="M585 -301c32.667 43.333 59.667 77.334 81 102.001c40 -29.333 80 -65 120 -107c-23.333 -38 -51 -70.667 -83 -98c-18 17.333 -57.333 51.666 -118 102.999zM694 479.001l9.99902 0.00195312c1.33301 -6 3 -15.667 5 -29s5.16699 -31.833 9.5 -55.5l12.5 -71.5
c16.667 -90.667 45 -148.334 85 -173.001c27.333 -14.667 54.333 -22 81 -22h13v-128h-18c-59.333 0 -104 15.667 -134 47s-55 87.666 -75 168.999l-25 102h-5c-16 -32.667 -36.833 -59.167 -62.5 -79.5s-54.167 -29.5 -85.5 -27.5c9.33301 -40 14 -86 14 -138
c0 -16 -0.666992 -33.333 -2 -52c-4 -38.667 -23 -83.334 -57 -134.001c-32 -48 -66 -85.333 -102 -112s-67.667 -40 -95 -40c-40.667 0 -81 6.5 -121 19.5s-86.667 32.833 -140 59.5l14 32c36 -16.667 67.333 -25 94 -25c102.667 0 194 47.333 274 142
c54 63.333 81 110.333 81 141c-7.33301 19.333 -18.5 39.833 -33.5 61.5s-28 38.834 -39 51.501s-28.5 31.667 -52.5 57l33 128h9c30.667 -28 55 -49 73 -63c21.333 -14.667 49.333 -22 84 -22c25.333 0 49 9 71 27c9.33301 7.33301 18.333 17.833 27 31.5
s18.334 31.167 29.001 52.5s20 38.333 28 51z" />
    <glyph glyph-name="uniFC70" unicode="&#xfe98;&#xfeae;" horiz-adv-x="910" arabic-form="final" 
d="M851 692c-28.667 -40.667 -54 -71.334 -76 -92.001c-39.333 37.333 -78.333 72 -117 104c24.667 34.667 51 66.334 79 95.001c35.333 -28 73.333 -63.667 114 -107zM658 679c-28.667 -40.667 -54 -71.334 -76 -92.001c-39.333 37.333 -78.333 72 -117 104
c24.667 34.667 51 66.334 79 95.001c35.333 -28 73.333 -63.667 114 -107zM694 479l9.99902 0.00195312c1.33301 -6 3 -15.667 5 -29s5.16699 -31.833 9.5 -55.5l12.5 -71.5c16.667 -90.667 45 -148.334 85 -173.001c27.333 -14.667 54.333 -22 81 -22h13v-128h-18
c-59.333 0 -104 15.667 -134 47s-55 87.666 -75 168.999l-25 102h-5c-16 -32.667 -36.833 -59.167 -62.5 -79.5s-54.167 -29.5 -85.5 -27.5c9.33301 -40 14 -86 14 -138c0 -16 -0.666992 -33.333 -2 -52c-4 -38.667 -23 -83.334 -57 -134.001c-32 -48 -66 -85.333 -102 -112
s-67.667 -40 -95 -40c-40.667 0 -81 6.5 -121 19.5s-86.667 32.833 -140 59.5l14 32c36 -16.667 67.333 -25 94 -25c102.667 0 194 47.333 274 142c54 63.333 81 110.333 81 141c-7.33301 19.333 -18.5 39.833 -33.5 61.5s-28 38.834 -39 51.501s-28.5 31.667 -52.5 57
l33 128h9c30.667 -28 55 -49 73 -63c21.333 -14.667 49.333 -22 84 -22c25.333 0 49 9 71 27c9.33301 7.33301 18.333 17.833 27 31.5s18.334 31.167 29.001 52.5s20 38.333 28 51z" />
    <glyph glyph-name="uniFC86" unicode="&#xfee0;&#xfef0;" horiz-adv-x="1240" arabic-form="final" 
d="M1027 1043l10.002 -5.99902c8.66699 -167.333 13 -382.666 13 -645.999c0 -94.667 19.667 -167.334 59 -218.001c30.667 -30 69.667 -45 117 -45h14v-128h-18c-55.333 0 -101.833 13.333 -139.5 40s-64.5 60 -80.5 100s-24.333 85.333 -25 136h-5
c-18.667 -71.333 -68.667 -131 -150 -179v-3c35.333 -9.33301 60.166 -24 74.499 -44s21.5 -48.333 21.5 -85c0 -37.333 -13.667 -82.333 -41 -135c-137.333 -134.667 -287.333 -202 -450 -202c-46 0 -90 8.66699 -132 26s-77.667 40 -107 68
c-69.333 73.333 -104 162.666 -104 267.999c0 94.667 25 199.334 75 314.001l39 -15c-30 -84 -45 -154 -45 -210c0 -76 19.333 -141.667 58 -197c62 -76 138 -114 228 -114c108 0 204 25 288 75c64 38 106.333 71 127 99c0 18 -32 34.667 -96 50s-136.333 26 -217 32l-5 9
l53 110c109.333 15.333 199 44 269 86c24 17.333 42.167 32.5 54.5 45.5s22.166 30.833 29.499 53.5s11.833 46.667 13.5 72s2.5 63 2.5 113c0 74 -5.66699 219.333 -17 436c34 41.333 62.667 72.666 86 93.999z" />
    <glyph glyph-name="uniFC87" unicode="&#xfee0;&#xfef2;" horiz-adv-x="1240" arabic-form="final" 
d="M1027 1043l10.002 -5.99902c8.66699 -167.333 13 -382.666 13 -645.999c0 -94.667 19.667 -167.334 59 -218.001c30.667 -30 69.667 -45 117 -45h14v-128h-18c-55.333 0 -101.833 13.333 -139.5 40s-64.5 60 -80.5 100s-24.333 85.333 -25 136h-5
c-18.667 -71.333 -68.667 -131 -150 -179v-3c35.333 -9.33301 60.166 -24 74.499 -44s21.5 -48.333 21.5 -85c0 -37.333 -13.667 -82.333 -41 -135c-137.333 -134.667 -287.333 -202 -450 -202c-46 0 -90 8.66699 -132 26s-77.667 40 -107 68
c-69.333 73.333 -104 162.666 -104 267.999c0 94.667 25 199.334 75 314.001l39 -15c-30 -84 -45 -154 -45 -210c0 -76 19.333 -141.667 58 -197c62 -76 138 -114 228 -114c108 0 204 25 288 75c64 38 106.333 71 127 99c0 18 -32 34.667 -96 50s-136.333 26 -217 32l-5 9
l53 110c109.333 15.333 199 44 269 86c24 17.333 42.167 32.5 54.5 45.5s22.166 30.833 29.499 53.5s11.833 46.667 13.5 72s2.5 63 2.5 113c0 74 -5.66699 219.333 -17 436c34 41.333 62.667 72.666 86 93.999zM674.002 -552.999c-28.667 -40.667 -54 -71.334 -76 -92.001
c-39.333 37.333 -78.333 72 -117 104c24.667 34.667 51 66.334 79 95.001c35.333 -28 73.333 -63.667 114 -107zM481.002 -565.999c-28.667 -40.667 -54 -71.334 -76 -92.001c-39.333 37.333 -78.333 72 -117 104c24.667 34.667 51 66.334 79 95.001
c35.333 -28 73.333 -63.667 114 -107z" />
    <glyph glyph-name="uniFCCC" unicode="&#xfedf;&#xfee4;" horiz-adv-x="689" arabic-form="initial" 
d="M247 87l-4.99902 -0.999023c-36.667 -30.667 -72.167 -52.667 -106.5 -66s-74.833 -20 -121.5 -20h-14c-24.667 0 -42.5 6.83301 -53.5 20.5s-16.5 29.167 -16.5 46.5c0 15.333 5.66699 29.333 17 42s29 19 53 19h9c84 0 159.667 23.667 227 71
c-14.667 158 -22 341.333 -22 550c0 12.667 -1.33301 37 -4 73s-4 62 -4 78c0 35.333 10.333 64.666 31 87.999c13.333 16 32 33.333 56 52l10 -6c-2 -12 -3 -26 -3 -42c1.33301 -58 27 -126 77 -204l-73 -51c0 -248 5.66699 -410.333 17 -487l4 -2
c41.333 23.333 84 35 128 35c44.667 0 82.667 -18.333 114 -55c32 -36 48 -82 48 -138c0 -58 -16.333 -104.5 -49 -139.5s-69 -52.5 -109 -52.5c-46 0 -87.333 17 -124 51s-65.334 80 -86.001 138zM340.001 143.001c12 -38 33.833 -69.833 65.5 -95.5
s64.167 -38.5 97.5 -38.5c18.667 0 35 6 49 18c0 32 -12.333 63 -37 93c-24 30 -55.333 45 -94 45c-31.333 0 -58.333 -7.33301 -81 -22z" />
    <glyph glyph-name="uniFCFB" unicode="&#xfeb3;&#xfef0;" horiz-adv-x="1587" arabic-form="isolated" 
d="M1047 128c32 0 61.667 9.67188 89 29.0049c4 2.66699 7.5 5.5 10.5 8.5s6 6.5 9 10.5s5.5 7.5 7.5 10.5s4.33301 7.66699 7 14s4.66699 11.333 6 15s3.5 10.167 6.5 19.5l7 22c1.66699 5.33301 4.33398 14.5 8.00098 27.5s6.83398 23.5 9.50098 31.5l60 35l6 -4
c-8.66699 -34.667 -13 -67.334 -13 -98.001c0 -35.333 10.667 -63.333 32 -84s45.333 -31 72 -31c14.667 0 27.167 4 37.5 12s15.5 19 15.5 33c0 32.667 -8.33301 86.667 -25 162c28 32.667 58 62.667 90 90l6 -3c10.667 -66.667 16 -126 16 -178
c0 -44.667 -12 -90.334 -36 -137.001c-44 -73.333 -93.333 -110 -148 -110c-44 0 -85.667 27.667 -125 83h-8c-26 -28 -51.333 -49.333 -76 -64s-54 -22 -88 -22c-44.667 0 -82.334 19.167 -113.001 57.5s-46 81.833 -46 130.5c0 20 -9.66699 37.333 -29 52s-42 22 -68 22
c-43.333 0 -87.333 -16.833 -132 -50.5s-67 -65.834 -67 -96.501c0 -36.667 54.667 -64.334 164 -83.001c45.333 -8 78.666 -17.5 99.999 -28.5s36.333 -27.5 45 -49.5c8 -20 12 -40 12 -60c0 -26 -10.667 -62.667 -32 -110c-20.667 -33.333 -66 -68.666 -136 -105.999
c-105.333 -54.667 -205 -82 -299 -82c-98.667 0 -179.167 30 -241.5 90s-93.5 148 -93.5 264c0 85.333 21.667 177.333 65 276l42 -19c-27.333 -58 -41 -123 -41 -195c0 -88.667 28.167 -158.667 84.5 -210s126.833 -77 211.5 -77c56 0 119.667 13 191 39
c92.667 36.667 154.334 73 185.001 109c0 12 -44 26.333 -132 43c-63.333 10 -111.5 26 -144.5 48s-49.5 58.333 -49.5 109c0 29.333 8.83301 65.666 26.5 108.999s40.834 79.666 69.501 108.999c64.667 68 133 102 205 102c37.333 0 63.666 -10.667 78.999 -32
s27.666 -54.333 36.999 -99c10 -41.333 27.167 -74 51.5 -98s50.833 -36 79.5 -36z" />
    <glyph glyph-name="uniFCFC" unicode="&#xfeb3;&#xfef2;" horiz-adv-x="1587" arabic-form="isolated" 
d="M1047 128c32 0 61.667 9.67188 89 29.0049c4 2.66699 7.5 5.5 10.5 8.5s6 6.5 9 10.5s5.5 7.5 7.5 10.5s4.33301 7.66699 7 14s4.66699 11.333 6 15s3.5 10.167 6.5 19.5l7 22c1.66699 5.33301 4.33398 14.5 8.00098 27.5s6.83398 23.5 9.50098 31.5l60 35l6 -4
c-8.66699 -34.667 -13 -67.334 -13 -98.001c0 -35.333 10.667 -63.333 32 -84s45.333 -31 72 -31c14.667 0 27.167 4 37.5 12s15.5 19 15.5 33c0 32.667 -8.33301 86.667 -25 162c28 32.667 58 62.667 90 90l6 -3c10.667 -66.667 16 -126 16 -178
c0 -44.667 -12 -90.334 -36 -137.001c-44 -73.333 -93.333 -110 -148 -110c-44 0 -85.667 27.667 -125 83h-8c-26 -28 -51.333 -49.333 -76 -64s-54 -22 -88 -22c-44.667 0 -82.334 19.167 -113.001 57.5s-46 81.833 -46 130.5c0 20 -9.66699 37.333 -29 52s-42 22 -68 22
c-43.333 0 -87.333 -16.833 -132 -50.5s-67 -65.834 -67 -96.501c0 -36.667 54.667 -64.334 164 -83.001c45.333 -8 78.666 -17.5 99.999 -28.5s36.333 -27.5 45 -49.5c8 -20 12 -40 12 -60c0 -26 -10.667 -62.667 -32 -110c-20.667 -33.333 -66 -68.666 -136 -105.999
c-105.333 -54.667 -205 -82 -299 -82c-98.667 0 -179.167 30 -241.5 90s-93.5 148 -93.5 264c0 85.333 21.667 177.333 65 276l42 -19c-27.333 -58 -41 -123 -41 -195c0 -88.667 28.167 -158.667 84.5 -210s126.833 -77 211.5 -77c56 0 119.667 13 191 39
c92.667 36.667 154.334 73 185.001 109c0 12 -44 26.333 -132 43c-63.333 10 -111.5 26 -144.5 48s-49.5 58.333 -49.5 109c0 29.333 8.83301 65.666 26.5 108.999s40.834 79.666 69.501 108.999c64.667 68 133 102 205 102c37.333 0 63.666 -10.667 78.999 -32
s27.666 -54.333 36.999 -99c10 -41.333 27.167 -74 51.5 -98s50.833 -36 79.5 -36zM674 -572.995c-28.667 -40.667 -54 -71.334 -76 -92.001c-39.333 37.333 -78.333 72 -117 104c24.667 34.667 51 66.334 79 95.001c35.333 -28 73.333 -63.667 114 -107zM481 -585.995
c-28.667 -40.667 -54 -71.334 -76 -92.001c-39.333 37.333 -78.333 72 -117 104c24.667 34.667 51 66.334 79 95.001c35.333 -28 73.333 -63.667 114 -107z" />
    <glyph glyph-name="uniFCFD" unicode="&#xfeb7;&#xfef0;" horiz-adv-x="1587" arabic-form="isolated" 
d="M1047 128c32 0 61.667 9.67188 89 29.0049c4 2.66699 7.5 5.5 10.5 8.5s6 6.5 9 10.5s5.5 7.5 7.5 10.5s4.33301 7.66699 7 14s4.66699 11.333 6 15s3.5 10.167 6.5 19.5l7 22c1.66699 5.33301 4.33398 14.5 8.00098 27.5s6.83398 23.5 9.50098 31.5l60 35l6 -4
c-8.66699 -34.667 -13 -67.334 -13 -98.001c0 -35.333 10.667 -63.333 32 -84s45.333 -31 72 -31c14.667 0 27.167 4 37.5 12s15.5 19 15.5 33c0 32.667 -8.33301 86.667 -25 162c28 32.667 58 62.667 90 90l6 -3c10.667 -66.667 16 -126 16 -178
c0 -44.667 -12 -90.334 -36 -137.001c-44 -73.333 -93.333 -110 -148 -110c-44 0 -85.667 27.667 -125 83h-8c-26 -28 -51.333 -49.333 -76 -64s-54 -22 -88 -22c-44.667 0 -82.334 19.167 -113.001 57.5s-46 81.833 -46 130.5c0 20 -9.66699 37.333 -29 52s-42 22 -68 22
c-43.333 0 -87.333 -16.833 -132 -50.5s-67 -65.834 -67 -96.501c0 -36.667 54.667 -64.334 164 -83.001c45.333 -8 78.666 -17.5 99.999 -28.5s36.333 -27.5 45 -49.5c8 -20 12 -40 12 -60c0 -26 -10.667 -62.667 -32 -110c-20.667 -33.333 -66 -68.666 -136 -105.999
c-105.333 -54.667 -205 -82 -299 -82c-98.667 0 -179.167 30 -241.5 90s-93.5 148 -93.5 264c0 85.333 21.667 177.333 65 276l42 -19c-27.333 -58 -41 -123 -41 -195c0 -88.667 28.167 -158.667 84.5 -210s126.833 -77 211.5 -77c56 0 119.667 13 191 39
c92.667 36.667 154.334 73 185.001 109c0 12 -44 26.333 -132 43c-63.333 10 -111.5 26 -144.5 48s-49.5 58.333 -49.5 109c0 29.333 8.83301 65.666 26.5 108.999s40.834 79.666 69.501 108.999c64.667 68 133 102 205 102c37.333 0 63.666 -10.667 78.999 -32
s27.666 -54.333 36.999 -99c10 -41.333 27.167 -74 51.5 -98s50.833 -36 79.5 -36zM1262 802.005c-28.667 -40.667 -54 -71.334 -76 -92.001c-39.333 37.333 -78.333 72 -117 104c24.667 34.667 51 66.334 79 95.001c35.333 -28 73.333 -63.667 114 -107zM1208 589.005
c-28.667 -40.667 -54 -71.334 -76 -92.001c-39.333 37.333 -78.333 72 -117 104c24.667 34.667 51 66.334 79 95.001c35.333 -28 73.333 -63.667 114 -107zM1401 602.005c-28.667 -40.667 -54 -71.334 -76 -92.001c-39.333 37.333 -78.333 72 -117 104
c24.667 34.667 51 66.334 79 95.001c35.333 -28 73.333 -63.667 114 -107z" />
    <glyph glyph-name="uniFCFE" unicode="&#xfeb7;&#xfef2;" horiz-adv-x="1587" arabic-form="isolated" 
d="M1047 128c32 0 61.667 9.67188 89 29.0049c4 2.66699 7.5 5.5 10.5 8.5s6 6.5 9 10.5s5.5 7.5 7.5 10.5s4.33301 7.66699 7 14s4.66699 11.333 6 15s3.5 10.167 6.5 19.5l7 22c1.66699 5.33301 4.33398 14.5 8.00098 27.5s6.83398 23.5 9.50098 31.5l60 35l6 -4
c-8.66699 -34.667 -13 -67.334 -13 -98.001c0 -35.333 10.667 -63.333 32 -84s45.333 -31 72 -31c14.667 0 27.167 4 37.5 12s15.5 19 15.5 33c0 32.667 -8.33301 86.667 -25 162c28 32.667 58 62.667 90 90l6 -3c10.667 -66.667 16 -126 16 -178
c0 -44.667 -12 -90.334 -36 -137.001c-44 -73.333 -93.333 -110 -148 -110c-44 0 -85.667 27.667 -125 83h-8c-26 -28 -51.333 -49.333 -76 -64s-54 -22 -88 -22c-44.667 0 -82.334 19.167 -113.001 57.5s-46 81.833 -46 130.5c0 20 -9.66699 37.333 -29 52s-42 22 -68 22
c-43.333 0 -87.333 -16.833 -132 -50.5s-67 -65.834 -67 -96.501c0 -36.667 54.667 -64.334 164 -83.001c45.333 -8 78.666 -17.5 99.999 -28.5s36.333 -27.5 45 -49.5c8 -20 12 -40 12 -60c0 -26 -10.667 -62.667 -32 -110c-20.667 -33.333 -66 -68.666 -136 -105.999
c-105.333 -54.667 -205 -82 -299 -82c-98.667 0 -179.167 30 -241.5 90s-93.5 148 -93.5 264c0 85.333 21.667 177.333 65 276l42 -19c-27.333 -58 -41 -123 -41 -195c0 -88.667 28.167 -158.667 84.5 -210s126.833 -77 211.5 -77c56 0 119.667 13 191 39
c92.667 36.667 154.334 73 185.001 109c0 12 -44 26.333 -132 43c-63.333 10 -111.5 26 -144.5 48s-49.5 58.333 -49.5 109c0 29.333 8.83301 65.666 26.5 108.999s40.834 79.666 69.501 108.999c64.667 68 133 102 205 102c37.333 0 63.666 -10.667 78.999 -32
s27.666 -54.333 36.999 -99c10 -41.333 27.167 -74 51.5 -98s50.833 -36 79.5 -36zM674 -572.995c-28.667 -40.667 -54 -71.334 -76 -92.001c-39.333 37.333 -78.333 72 -117 104c24.667 34.667 51 66.334 79 95.001c35.333 -28 73.333 -63.667 114 -107zM481 -585.995
c-28.667 -40.667 -54 -71.334 -76 -92.001c-39.333 37.333 -78.333 72 -117 104c24.667 34.667 51 66.334 79 95.001c35.333 -28 73.333 -63.667 114 -107zM1292 802.005c-28.667 -40.667 -54 -71.334 -76 -92.001c-39.333 37.333 -78.333 72 -117 104
c24.667 34.667 51 66.334 79 95.001c35.333 -28 73.333 -63.667 114 -107zM1238 589.005c-28.667 -40.667 -54 -71.334 -76 -92.001c-39.333 37.333 -78.333 72 -117 104c24.667 34.667 51 66.334 79 95.001c35.333 -28 73.333 -63.667 114 -107zM1431 602.005
c-28.667 -40.667 -54 -71.334 -76 -92.001c-39.333 37.333 -78.333 72 -117 104c24.667 34.667 51 66.334 79 95.001c35.333 -28 73.333 -63.667 114 -107z" />
    <glyph glyph-name="uniFD05" unicode="&#xfebb;&#xfef0;" horiz-adv-x="1765" arabic-form="isolated" 
d="M1028 174c70 107.333 138.667 191.006 206 251.006c81.333 72.667 161.333 109 240 109c44.667 0 82.834 -10.667 114.501 -32s55.5 -47.333 71.5 -78c16.667 -34 25 -73 25 -117c0 -27.333 -6.33301 -59 -19 -95c-28.667 -84.667 -98 -145 -208 -181
c-60 -20.667 -143 -31 -249 -31h-5c-66.667 0 -122.667 8.66699 -168 26l-55 -106l-14 3c3.33301 46.667 8.66602 90 15.999 130c-17.333 7.33301 -37.166 23.666 -59.499 48.999s-39.833 54.666 -52.5 87.999c-19.333 48 -54.333 72 -105 72
c-43.333 0 -87.166 -16.833 -131.499 -50.5s-66.5 -65.834 -66.5 -96.501c0 -36.667 54.667 -64.334 164 -83.001c45.333 -8 78.666 -17.5 99.999 -28.5s36.333 -27.5 45 -49.5c8 -20 12 -40 12 -60c0 -26 -10.667 -62.667 -32 -110
c-20.667 -33.333 -66 -68.666 -136 -105.999c-105.333 -54.667 -205 -82 -299 -82c-98.667 0 -179.167 30 -241.5 90s-93.5 148 -93.5 264c0 85.333 21.667 177.333 65 276l42 -19c-27.333 -58 -41 -123 -41 -195c0 -88.667 28.167 -158.667 84.5 -210
s126.833 -77 211.5 -77c56 0 119.667 13 191 39c92.667 36.667 154.334 73 185.001 109c0 12 -44 26.333 -132 43c-63.333 10 -111.5 26 -144.5 48s-49.5 58.333 -49.5 109c0 29.333 8.83301 65.666 26.5 108.999s40.834 79.666 69.501 108.999
c65.333 68.667 133.666 103 204.999 103c25.333 0 46.666 -6.66699 63.999 -20s29.666 -30.333 36.999 -51c26.667 -66.667 69 -116.334 127 -149.001zM1077 149.006c42 -14 104.332 -21 186.999 -21c94 0 180.667 19 260 57c54.667 26 82 50 82 72
c-6.66699 43.333 -26 79.5 -58 108.5s-70 43.5 -114 43.5c-57.333 0 -117.666 -23.833 -180.999 -71.5s-122 -110.5 -176 -188.5z" />
    <glyph glyph-name="uniFD06" unicode="&#xfebb;&#xfef2;" horiz-adv-x="1765" arabic-form="isolated" 
d="M1028 174c70 107.333 138.667 191.006 206 251.006c81.333 72.667 161.333 109 240 109c44.667 0 82.834 -10.667 114.501 -32s55.5 -47.333 71.5 -78c16.667 -34 25 -73 25 -117c0 -27.333 -6.33301 -59 -19 -95c-28.667 -84.667 -98 -145 -208 -181
c-60 -20.667 -143 -31 -249 -31h-5c-66.667 0 -122.667 8.66699 -168 26l-55 -106l-14 3c3.33301 46.667 8.66602 90 15.999 130c-17.333 7.33301 -37.166 23.666 -59.499 48.999s-39.833 54.666 -52.5 87.999c-19.333 48 -54.333 72 -105 72
c-43.333 0 -87.166 -16.833 -131.499 -50.5s-66.5 -65.834 -66.5 -96.501c0 -36.667 54.667 -64.334 164 -83.001c45.333 -8 78.666 -17.5 99.999 -28.5s36.333 -27.5 45 -49.5c8 -20 12 -40 12 -60c0 -26 -10.667 -62.667 -32 -110
c-20.667 -33.333 -66 -68.666 -136 -105.999c-105.333 -54.667 -205 -82 -299 -82c-98.667 0 -179.167 30 -241.5 90s-93.5 148 -93.5 264c0 85.333 21.667 177.333 65 276l42 -19c-27.333 -58 -41 -123 -41 -195c0 -88.667 28.167 -158.667 84.5 -210
s126.833 -77 211.5 -77c56 0 119.667 13 191 39c92.667 36.667 154.334 73 185.001 109c0 12 -44 26.333 -132 43c-63.333 10 -111.5 26 -144.5 48s-49.5 58.333 -49.5 109c0 29.333 8.83301 65.666 26.5 108.999s40.834 79.666 69.501 108.999
c65.333 68.667 133.666 103 204.999 103c25.333 0 46.666 -6.66699 63.999 -20s29.666 -30.333 36.999 -51c26.667 -66.667 69 -116.334 127 -149.001zM1077 149.006c42 -14 104.332 -21 186.999 -21c94 0 180.667 19 260 57c54.667 26 82 50 82 72
c-6.66699 43.333 -26 79.5 -58 108.5s-70 43.5 -114 43.5c-57.333 0 -117.666 -23.833 -180.999 -71.5s-122 -110.5 -176 -188.5zM673.999 -572.994c-28.667 -40.667 -54 -71.334 -76 -92.001c-39.333 37.333 -78.333 72 -117 104c24.667 34.667 51 66.334 79 95.001
c35.333 -28 73.333 -63.667 114 -107zM480.999 -585.994c-28.667 -40.667 -54 -71.334 -76 -92.001c-39.333 37.333 -78.333 72 -117 104c24.667 34.667 51 66.334 79 95.001c35.333 -28 73.333 -63.667 114 -107z" />
    <glyph glyph-name="uniFD07" unicode="&#xfebf;&#xfef0;" horiz-adv-x="1765" arabic-form="isolated" 
d="M1028 174c70 107.333 138.667 191.006 206 251.006c81.333 72.667 161.333 109 240 109c44.667 0 82.834 -10.667 114.501 -32s55.5 -47.333 71.5 -78c16.667 -34 25 -73 25 -117c0 -27.333 -6.33301 -59 -19 -95c-28.667 -84.667 -98 -145 -208 -181
c-60 -20.667 -143 -31 -249 -31h-5c-66.667 0 -122.667 8.66699 -168 26l-55 -106l-14 3c3.33301 46.667 8.66602 90 15.999 130c-17.333 7.33301 -37.166 23.666 -59.499 48.999s-39.833 54.666 -52.5 87.999c-19.333 48 -54.333 72 -105 72
c-43.333 0 -87.166 -16.833 -131.499 -50.5s-66.5 -65.834 -66.5 -96.501c0 -36.667 54.667 -64.334 164 -83.001c45.333 -8 78.666 -17.5 99.999 -28.5s36.333 -27.5 45 -49.5c8 -20 12 -40 12 -60c0 -26 -10.667 -62.667 -32 -110
c-20.667 -33.333 -66 -68.666 -136 -105.999c-105.333 -54.667 -205 -82 -299 -82c-98.667 0 -179.167 30 -241.5 90s-93.5 148 -93.5 264c0 85.333 21.667 177.333 65 276l42 -19c-27.333 -58 -41 -123 -41 -195c0 -88.667 28.167 -158.667 84.5 -210
s126.833 -77 211.5 -77c56 0 119.667 13 191 39c92.667 36.667 154.334 73 185.001 109c0 12 -44 26.333 -132 43c-63.333 10 -111.5 26 -144.5 48s-49.5 58.333 -49.5 109c0 29.333 8.83301 65.666 26.5 108.999s40.834 79.666 69.501 108.999
c65.333 68.667 133.666 103 204.999 103c25.333 0 46.666 -6.66699 63.999 -20s29.666 -30.333 36.999 -51c26.667 -66.667 69 -116.334 127 -149.001zM1077 149.006c42 -14 104.332 -21 186.999 -21c94 0 180.667 19 260 57c54.667 26 82 50 82 72
c-6.66699 43.333 -26 79.5 -58 108.5s-70 43.5 -114 43.5c-57.333 0 -117.666 -23.833 -180.999 -71.5s-122 -110.5 -176 -188.5zM1155 769.006c32.667 43.333 59.667 77.334 81 102.001c40 -29.333 80 -65 120 -107c-23.333 -38 -51 -70.667 -83 -98
c-18 17.333 -57.333 51.666 -118 102.999z" />
    <glyph glyph-name="uniFD08" unicode="&#xfebf;&#xfef2;" horiz-adv-x="1765" arabic-form="isolated" 
d="M1028 174c70 107.333 138.667 191.006 206 251.006c81.333 72.667 161.333 109 240 109c44.667 0 82.834 -10.667 114.501 -32s55.5 -47.333 71.5 -78c16.667 -34 25 -73 25 -117c0 -27.333 -6.33301 -59 -19 -95c-28.667 -84.667 -98 -145 -208 -181
c-60 -20.667 -143 -31 -249 -31h-5c-66.667 0 -122.667 8.66699 -168 26l-55 -106l-14 3c3.33301 46.667 8.66602 90 15.999 130c-17.333 7.33301 -37.166 23.666 -59.499 48.999s-39.833 54.666 -52.5 87.999c-19.333 48 -54.333 72 -105 72
c-43.333 0 -87.166 -16.833 -131.499 -50.5s-66.5 -65.834 -66.5 -96.501c0 -36.667 54.667 -64.334 164 -83.001c45.333 -8 78.666 -17.5 99.999 -28.5s36.333 -27.5 45 -49.5c8 -20 12 -40 12 -60c0 -26 -10.667 -62.667 -32 -110
c-20.667 -33.333 -66 -68.666 -136 -105.999c-105.333 -54.667 -205 -82 -299 -82c-98.667 0 -179.167 30 -241.5 90s-93.5 148 -93.5 264c0 85.333 21.667 177.333 65 276l42 -19c-27.333 -58 -41 -123 -41 -195c0 -88.667 28.167 -158.667 84.5 -210
s126.833 -77 211.5 -77c56 0 119.667 13 191 39c92.667 36.667 154.334 73 185.001 109c0 12 -44 26.333 -132 43c-63.333 10 -111.5 26 -144.5 48s-49.5 58.333 -49.5 109c0 29.333 8.83301 65.666 26.5 108.999s40.834 79.666 69.501 108.999
c65.333 68.667 133.666 103 204.999 103c25.333 0 46.666 -6.66699 63.999 -20s29.666 -30.333 36.999 -51c26.667 -66.667 69 -116.334 127 -149.001zM1077 149.006c42 -14 104.332 -21 186.999 -21c94 0 180.667 19 260 57c54.667 26 82 50 82 72
c-6.66699 43.333 -26 79.5 -58 108.5s-70 43.5 -114 43.5c-57.333 0 -117.666 -23.833 -180.999 -71.5s-122 -110.5 -176 -188.5zM673.999 -572.994c-28.667 -40.667 -54 -71.334 -76 -92.001c-39.333 37.333 -78.333 72 -117 104c24.667 34.667 51 66.334 79 95.001
c35.333 -28 73.333 -63.667 114 -107zM480.999 -585.994c-28.667 -40.667 -54 -71.334 -76 -92.001c-39.333 37.333 -78.333 72 -117 104c24.667 34.667 51 66.334 79 95.001c35.333 -28 73.333 -63.667 114 -107zM1165 769.006c32.667 43.333 59.667 77.334 81 102.001
c40 -29.333 80 -65 120 -107c-23.333 -38 -51 -70.667 -83 -98c-18 17.333 -57.333 51.666 -118 102.999z" />
    <glyph glyph-name="uniFD0D" unicode="&#xfeb7;&#xfeae;" horiz-adv-x="1490" arabic-form="isolated" 
d="M950 128c32 0 61.666 9.67188 88.999 29.0049c4 2.66699 7.5 5.5 10.5 8.5s6 6.5 9 10.5s5.5 7.5 7.5 10.5s4.33301 7.66699 7 14s4.66699 11.333 6 15s3.5 10.167 6.5 19.5l7 22c1.66699 5.33301 4.33398 14.5 8.00098 27.5s6.83398 23.5 9.50098 31.5l60 35l6 -4
c-8.66699 -34.667 -13 -67.334 -13 -98.001c0 -35.333 10.667 -63.333 32 -84s45.333 -31 72 -31c14.667 0 27.167 4 37.5 12s15.5 19 15.5 33c0 32.667 -8.33301 86.667 -25 162c28 32.667 58 62.667 90 90l6 -3c10.667 -66.667 16 -126 16 -178
c0 -44.667 -12 -90.334 -36 -137.001c-44 -73.333 -93.333 -110 -148 -110c-44 0 -85.667 27.667 -125 83h-8c-51.333 -57.333 -104 -86 -158 -86c-48.667 0 -88.5 17.5 -119.5 52.5s-46.167 81.167 -45.5 138.5c-114.667 -36 -192 -64 -232 -84
c8 -24.667 12 -49.334 12 -74.001c0 -28 -1.33301 -70 -4 -126c-2.66699 -68 -28.334 -131.333 -77.001 -190c-78 -81.333 -151.667 -122 -221 -122s-150 32.333 -242 97l15 28c38 -17.333 78.667 -26 122 -26c84.667 0 170.667 37 258 111c66 68 99 122.333 99 163
c0 26.667 -24.333 66.667 -73 120c6 37.333 16 77.666 30 120.999c124 51.333 248.333 90.666 373 117.999l2 -7c-4 -16 -6 -36 -6 -60c0 -34 12.833 -64.5 38.5 -91.5s55.167 -40.5 88.5 -40.5zM1172 802.005c-28.667 -40.667 -54 -71.334 -76 -92.001
c-39.333 37.333 -78.333 72 -117 104c24.667 34.667 51 66.334 79 95.001c35.333 -28 73.333 -63.667 114 -107zM1118 589.005c-28.667 -40.667 -54 -71.334 -76 -92.001c-39.333 37.333 -78.333 72 -117 104c24.667 34.667 51 66.334 79 95.001
c35.333 -28 73.333 -63.667 114 -107zM1311 602.005c-28.667 -40.667 -54 -71.334 -76 -92.001c-39.333 37.333 -78.333 72 -117 104c24.667 34.667 51 66.334 79 95.001c35.333 -28 73.333 -63.667 114 -107z" />
    <glyph glyph-name="uniFD0E" unicode="&#xfeb3;&#xfeae;" horiz-adv-x="1490" arabic-form="isolated" 
d="M950 128c32 0 61.666 9.67188 88.999 29.0049c4 2.66699 7.5 5.5 10.5 8.5s6 6.5 9 10.5s5.5 7.5 7.5 10.5s4.33301 7.66699 7 14s4.66699 11.333 6 15s3.5 10.167 6.5 19.5l7 22c1.66699 5.33301 4.33398 14.5 8.00098 27.5s6.83398 23.5 9.50098 31.5l60 35l6 -4
c-8.66699 -34.667 -13 -67.334 -13 -98.001c0 -35.333 10.667 -63.333 32 -84s45.333 -31 72 -31c14.667 0 27.167 4 37.5 12s15.5 19 15.5 33c0 32.667 -8.33301 86.667 -25 162c28 32.667 58 62.667 90 90l6 -3c10.667 -66.667 16 -126 16 -178
c0 -44.667 -12 -90.334 -36 -137.001c-44 -73.333 -93.333 -110 -148 -110c-44 0 -85.667 27.667 -125 83h-8c-51.333 -57.333 -104 -86 -158 -86c-48.667 0 -88.5 17.5 -119.5 52.5s-46.167 81.167 -45.5 138.5c-114.667 -36 -192 -64 -232 -84
c8 -24.667 12 -49.334 12 -74.001c0 -28 -1.33301 -70 -4 -126c-2.66699 -68 -28.334 -131.333 -77.001 -190c-78 -81.333 -151.667 -122 -221 -122s-150 32.333 -242 97l15 28c38 -17.333 78.667 -26 122 -26c84.667 0 170.667 37 258 111c66 68 99 122.333 99 163
c0 26.667 -24.333 66.667 -73 120c6 37.333 16 77.666 30 120.999c124 51.333 248.333 90.666 373 117.999l2 -7c-4 -16 -6 -36 -6 -60c0 -34 12.833 -64.5 38.5 -91.5s55.167 -40.5 88.5 -40.5z" />
    <glyph glyph-name="uniFD0F" unicode="&#xfebb;&#xfeae;" horiz-adv-x="1690" arabic-form="isolated" 
d="M953 174c70 107.333 138.668 191 206.001 251c81.333 72.667 161.333 109 240 109c44.667 0 82.834 -10.667 114.501 -32s55.5 -47.333 71.5 -78c16.667 -34 25 -73 25 -117c0 -27.333 -6.33301 -59 -19 -95c-28.667 -84.667 -98 -145 -208 -181
c-60 -20.667 -143 -31 -249 -31c-80 0 -143.333 11 -190 33c-22 -30.667 -50 -76 -84 -136l-21 12c14 56 30 108 48 156c-56.667 42 -88 93 -94 153c-102.667 -32.667 -184.667 -64 -246 -94c8 -25.333 12 -49.666 12 -72.999c0 -37.333 -1.66699 -83.333 -5 -138
c-4 -64 -33 -128.333 -87 -193c-78.667 -81.333 -152.334 -122 -221.001 -122c-69.333 0 -150 32.333 -242 97l15 28c38 -17.333 78.667 -26 122 -26c84.667 0 170.667 37 258 111c72 74 108 134.333 108 181c0 26 -23.667 65 -71 117c6 37.333 16 77.666 30 120.999
c110.667 46 231.334 90.667 362.001 134c5.33301 -42.667 17.166 -79.5 35.499 -110.5s48.166 -56.5 89.499 -76.5zM1003 149c42 -14 104.332 -21 186.999 -21c94 0 180.667 19 260 57c54.667 26 82 50 82 72c-6.66699 43.333 -26 79.5 -58 108.5s-70 43.5 -114 43.5
c-57.333 0 -117.666 -23.833 -180.999 -71.5s-122 -110.5 -176 -188.5z" />
    <glyph glyph-name="uniFD10" unicode="&#xfebf;&#xfeae;" horiz-adv-x="1690" arabic-form="isolated" 
d="M953 174c70 107.333 138.668 191 206.001 251c81.333 72.667 161.333 109 240 109c44.667 0 82.834 -10.667 114.501 -32s55.5 -47.333 71.5 -78c16.667 -34 25 -73 25 -117c0 -27.333 -6.33301 -59 -19 -95c-28.667 -84.667 -98 -145 -208 -181
c-60 -20.667 -143 -31 -249 -31c-80 0 -143.333 11 -190 33c-22 -30.667 -50 -76 -84 -136l-21 12c14 56 30 108 48 156c-56.667 42 -88 93 -94 153c-102.667 -32.667 -184.667 -64 -246 -94c8 -25.333 12 -49.666 12 -72.999c0 -37.333 -1.66699 -83.333 -5 -138
c-4 -64 -33 -128.333 -87 -193c-78.667 -81.333 -152.334 -122 -221.001 -122c-69.333 0 -150 32.333 -242 97l15 28c38 -17.333 78.667 -26 122 -26c84.667 0 170.667 37 258 111c72 74 108 134.333 108 181c0 26 -23.667 65 -71 117c6 37.333 16 77.666 30 120.999
c110.667 46 231.334 90.667 362.001 134c5.33301 -42.667 17.166 -79.5 35.499 -110.5s48.166 -56.5 89.499 -76.5zM1003 149c42 -14 104.332 -21 186.999 -21c94 0 180.667 19 260 57c54.667 26 82 50 82 72c-6.66699 43.333 -26 79.5 -58 108.5s-70 43.5 -114 43.5
c-57.333 0 -117.666 -23.833 -180.999 -71.5s-122 -110.5 -176 -188.5zM1095 769c32.667 43.333 59.667 77.334 81 102.001c40 -29.333 80 -65 120 -107c-23.333 -38 -51 -70.667 -83 -98c-18 17.333 -57.333 51.666 -118 102.999z" />
    <glyph glyph-name="uniFD17" unicode="&#xfeb4;&#xfef0;" horiz-adv-x="1697" arabic-form="final" 
d="M800 393c37.333 0 63.666 -10.6641 78.999 -31.9971s27.666 -54.333 36.999 -99c10 -41.333 27.167 -74 51.5 -98s50.833 -36 79.5 -36c32.667 0 61.667 9.33301 87 28c28 24.667 52.333 76 73 154l70 36l6 -4l-11.5 -50.5
c-4.33301 -19.667 -7.66602 -34.334 -9.99902 -44.001s-4.33301 -20.167 -6 -31.5s-2.5 -21.333 -2.5 -30c0 -15.333 4.83301 -28.833 14.5 -40.5s23.5 -17.5 41.5 -17.5c24 0 47 7.33301 69 22c25.333 17.333 44.666 49.333 57.999 96
c0.666992 3.33301 2.16699 8.83301 4.5 16.5s4.83301 16.834 7.5 27.501s5.33398 22.334 8.00098 35.001l76 51l4 -3c-16.667 -56.667 -25 -102.334 -25 -137.001c0 -72 54.667 -108 164 -108h22v-128h-25c-109.333 0 -178 31.333 -206 94h-6
c-53.333 -62.667 -110.333 -94 -171 -94c-60 0 -96.333 27.667 -109 83h-4c-23.333 -28 -46.166 -48.833 -68.499 -62.5s-50.5 -20.5 -84.5 -20.5c-44.667 0 -82.334 19.167 -113.001 57.5s-46 81.833 -46 130.5c0 20 -9.66699 37.333 -29 52s-42 22 -68 22
c-43.333 0 -87.333 -16.833 -132 -50.5s-67 -65.834 -67 -96.501c0 -36.667 54.667 -64.334 164 -83.001c45.333 -8 78.666 -17.5 99.999 -28.5s36.333 -27.5 45 -49.5c8 -20 12 -40 12 -60c0 -26 -10.667 -62.667 -32 -110c-20.667 -33.333 -66 -68.666 -136 -105.999
c-105.333 -54.667 -205 -82 -299 -82c-98.667 0 -179.167 30 -241.5 90s-93.5 148 -93.5 264c0 85.333 21.667 177.333 65 276l42 -19c-27.333 -58 -41 -123 -41 -195c0 -88.667 28.167 -158.667 84.5 -210s126.833 -77 211.5 -77c56 0 119.667 13 191 39
c92.667 36.667 154.334 73 185.001 109c0 12 -44 26.333 -132 43c-63.333 10 -111.5 26 -144.5 48s-49.5 58.333 -49.5 109c0 29.333 8.83301 65.666 26.5 108.999s40.834 79.666 69.501 108.999c64.667 68 133 102 205 102z" />
    <glyph glyph-name="uniFD18" unicode="&#xfeb4;&#xfef2;" horiz-adv-x="1697" arabic-form="final" 
d="M800 393c37.333 0 63.666 -10.6641 78.999 -31.9971s27.666 -54.333 36.999 -99c10 -41.333 27.167 -74 51.5 -98s50.833 -36 79.5 -36c32.667 0 61.667 9.33301 87 28c28 24.667 52.333 76 73 154l70 36l6 -4l-11.5 -50.5
c-4.33301 -19.667 -7.66602 -34.334 -9.99902 -44.001s-4.33301 -20.167 -6 -31.5s-2.5 -21.333 -2.5 -30c0 -15.333 4.83301 -28.833 14.5 -40.5s23.5 -17.5 41.5 -17.5c24 0 47 7.33301 69 22c25.333 17.333 44.666 49.333 57.999 96
c0.666992 3.33301 2.16699 8.83301 4.5 16.5s4.83301 16.834 7.5 27.501s5.33398 22.334 8.00098 35.001l76 51l4 -3c-16.667 -56.667 -25 -102.334 -25 -137.001c0 -72 54.667 -108 164 -108h22v-128h-25c-109.333 0 -178 31.333 -206 94h-6
c-53.333 -62.667 -110.333 -94 -171 -94c-60 0 -96.333 27.667 -109 83h-4c-23.333 -28 -46.166 -48.833 -68.499 -62.5s-50.5 -20.5 -84.5 -20.5c-44.667 0 -82.334 19.167 -113.001 57.5s-46 81.833 -46 130.5c0 20 -9.66699 37.333 -29 52s-42 22 -68 22
c-43.333 0 -87.333 -16.833 -132 -50.5s-67 -65.834 -67 -96.501c0 -36.667 54.667 -64.334 164 -83.001c45.333 -8 78.666 -17.5 99.999 -28.5s36.333 -27.5 45 -49.5c8 -20 12 -40 12 -60c0 -26 -10.667 -62.667 -32 -110c-20.667 -33.333 -66 -68.666 -136 -105.999
c-105.333 -54.667 -205 -82 -299 -82c-98.667 0 -179.167 30 -241.5 90s-93.5 148 -93.5 264c0 85.333 21.667 177.333 65 276l42 -19c-27.333 -58 -41 -123 -41 -195c0 -88.667 28.167 -158.667 84.5 -210s126.833 -77 211.5 -77c56 0 119.667 13 191 39
c92.667 36.667 154.334 73 185.001 109c0 12 -44 26.333 -132 43c-63.333 10 -111.5 26 -144.5 48s-49.5 58.333 -49.5 109c0 29.333 8.83301 65.666 26.5 108.999s40.834 79.666 69.501 108.999c64.667 68 133 102 205 102zM674 -572.997
c-28.667 -40.667 -54 -71.334 -76 -92.001c-39.333 37.333 -78.333 72 -117 104c24.667 34.667 51 66.334 79 95.001c35.333 -28 73.333 -63.667 114 -107zM481 -585.997c-28.667 -40.667 -54 -71.334 -76 -92.001c-39.333 37.333 -78.333 72 -117 104
c24.667 34.667 51 66.334 79 95.001c35.333 -28 73.333 -63.667 114 -107z" />
    <glyph glyph-name="uniFD19" unicode="&#xfeb8;&#xfef0;" horiz-adv-x="1697" arabic-form="final" 
d="M800 393c37.333 0 63.666 -10.6641 78.999 -31.9971s27.666 -54.333 36.999 -99c10 -41.333 27.167 -74 51.5 -98s50.833 -36 79.5 -36c32.667 0 61.667 9.33301 87 28c28 24.667 52.333 76 73 154l70 36l6 -4l-11.5 -50.5
c-4.33301 -19.667 -7.66602 -34.334 -9.99902 -44.001s-4.33301 -20.167 -6 -31.5s-2.5 -21.333 -2.5 -30c0 -15.333 4.83301 -28.833 14.5 -40.5s23.5 -17.5 41.5 -17.5c24 0 47 7.33301 69 22c25.333 17.333 44.666 49.333 57.999 96
c0.666992 3.33301 2.16699 8.83301 4.5 16.5s4.83301 16.834 7.5 27.501s5.33398 22.334 8.00098 35.001l76 51l4 -3c-16.667 -56.667 -25 -102.334 -25 -137.001c0 -72 54.667 -108 164 -108h22v-128h-25c-109.333 0 -178 31.333 -206 94h-6
c-53.333 -62.667 -110.333 -94 -171 -94c-60 0 -96.333 27.667 -109 83h-4c-23.333 -28 -46.166 -48.833 -68.499 -62.5s-50.5 -20.5 -84.5 -20.5c-44.667 0 -82.334 19.167 -113.001 57.5s-46 81.833 -46 130.5c0 20 -9.66699 37.333 -29 52s-42 22 -68 22
c-43.333 0 -87.333 -16.833 -132 -50.5s-67 -65.834 -67 -96.501c0 -36.667 54.667 -64.334 164 -83.001c45.333 -8 78.666 -17.5 99.999 -28.5s36.333 -27.5 45 -49.5c8 -20 12 -40 12 -60c0 -26 -10.667 -62.667 -32 -110c-20.667 -33.333 -66 -68.666 -136 -105.999
c-105.333 -54.667 -205 -82 -299 -82c-98.667 0 -179.167 30 -241.5 90s-93.5 148 -93.5 264c0 85.333 21.667 177.333 65 276l42 -19c-27.333 -58 -41 -123 -41 -195c0 -88.667 28.167 -158.667 84.5 -210s126.833 -77 211.5 -77c56 0 119.667 13 191 39
c92.667 36.667 154.334 73 185.001 109c0 12 -44 26.333 -132 43c-63.333 10 -111.5 26 -144.5 48s-49.5 58.333 -49.5 109c0 29.333 8.83301 65.666 26.5 108.999s40.834 79.666 69.501 108.999c64.667 68 133 102 205 102zM1292 802.003
c-28.667 -40.667 -54 -71.334 -76 -92.001c-39.333 37.333 -78.333 72 -117 104c24.667 34.667 51 66.334 79 95.001c35.333 -28 73.333 -63.667 114 -107zM1238 589.003c-28.667 -40.667 -54 -71.334 -76 -92.001c-39.333 37.333 -78.333 72 -117 104
c24.667 34.667 51 66.334 79 95.001c35.333 -28 73.333 -63.667 114 -107zM1431 602.003c-28.667 -40.667 -54 -71.334 -76 -92.001c-39.333 37.333 -78.333 72 -117 104c24.667 34.667 51 66.334 79 95.001c35.333 -28 73.333 -63.667 114 -107z" />
    <glyph glyph-name="uniFD1A" unicode="&#xfeb8;&#xfef2;" horiz-adv-x="1697" arabic-form="final" 
d="M800 393c37.333 0 63.666 -10.6641 78.999 -31.9971s27.666 -54.333 36.999 -99c10 -41.333 27.167 -74 51.5 -98s50.833 -36 79.5 -36c32.667 0 61.667 9.33301 87 28c28 24.667 52.333 76 73 154l70 36l6 -4l-11.5 -50.5
c-4.33301 -19.667 -7.66602 -34.334 -9.99902 -44.001s-4.33301 -20.167 -6 -31.5s-2.5 -21.333 -2.5 -30c0 -15.333 4.83301 -28.833 14.5 -40.5s23.5 -17.5 41.5 -17.5c24 0 47 7.33301 69 22c25.333 17.333 44.666 49.333 57.999 96
c0.666992 3.33301 2.16699 8.83301 4.5 16.5s4.83301 16.834 7.5 27.501s5.33398 22.334 8.00098 35.001l76 51l4 -3c-16.667 -56.667 -25 -102.334 -25 -137.001c0 -72 54.667 -108 164 -108h22v-128h-25c-109.333 0 -178 31.333 -206 94h-6
c-53.333 -62.667 -110.333 -94 -171 -94c-60 0 -96.333 27.667 -109 83h-4c-23.333 -28 -46.166 -48.833 -68.499 -62.5s-50.5 -20.5 -84.5 -20.5c-44.667 0 -82.334 19.167 -113.001 57.5s-46 81.833 -46 130.5c0 20 -9.66699 37.333 -29 52s-42 22 -68 22
c-43.333 0 -87.333 -16.833 -132 -50.5s-67 -65.834 -67 -96.501c0 -36.667 54.667 -64.334 164 -83.001c45.333 -8 78.666 -17.5 99.999 -28.5s36.333 -27.5 45 -49.5c8 -20 12 -40 12 -60c0 -26 -10.667 -62.667 -32 -110c-20.667 -33.333 -66 -68.666 -136 -105.999
c-105.333 -54.667 -205 -82 -299 -82c-98.667 0 -179.167 30 -241.5 90s-93.5 148 -93.5 264c0 85.333 21.667 177.333 65 276l42 -19c-27.333 -58 -41 -123 -41 -195c0 -88.667 28.167 -158.667 84.5 -210s126.833 -77 211.5 -77c56 0 119.667 13 191 39
c92.667 36.667 154.334 73 185.001 109c0 12 -44 26.333 -132 43c-63.333 10 -111.5 26 -144.5 48s-49.5 58.333 -49.5 109c0 29.333 8.83301 65.666 26.5 108.999s40.834 79.666 69.501 108.999c64.667 68 133 102 205 102zM674 -572.997
c-28.667 -40.667 -54 -71.334 -76 -92.001c-39.333 37.333 -78.333 72 -117 104c24.667 34.667 51 66.334 79 95.001c35.333 -28 73.333 -63.667 114 -107zM481 -585.997c-28.667 -40.667 -54 -71.334 -76 -92.001c-39.333 37.333 -78.333 72 -117 104
c24.667 34.667 51 66.334 79 95.001c35.333 -28 73.333 -63.667 114 -107zM1292 802.003c-28.667 -40.667 -54 -71.334 -76 -92.001c-39.333 37.333 -78.333 72 -117 104c24.667 34.667 51 66.334 79 95.001c35.333 -28 73.333 -63.667 114 -107zM1238 589.003
c-28.667 -40.667 -54 -71.334 -76 -92.001c-39.333 37.333 -78.333 72 -117 104c24.667 34.667 51 66.334 79 95.001c35.333 -28 73.333 -63.667 114 -107zM1431 602.003c-28.667 -40.667 -54 -71.334 -76 -92.001c-39.333 37.333 -78.333 72 -117 104
c24.667 34.667 51 66.334 79 95.001c35.333 -28 73.333 -63.667 114 -107z" />
    <glyph glyph-name="uniFD21" unicode="&#xfebc;&#xfef0;" horiz-adv-x="1762" arabic-form="final" 
d="M422 -404c-98.667 0 -179.165 30.0068 -241.498 90.0068s-93.5 148 -93.5 264c0 85.333 21.667 177.333 65 276l42 -19c-27.333 -58 -41 -123 -41 -195c0 -88.667 28.167 -158.667 84.5 -210s126.833 -77 211.5 -77c56 0 119.667 13 191 39
c92.667 36.667 154.334 73 185.001 109c0 12 -44 26.333 -132 43c-63.333 10 -111.5 26 -144.5 48s-49.5 58.333 -49.5 109c0 29.333 8.83301 65.666 26.5 108.999s40.834 79.666 69.501 108.999c65.333 68.667 133.666 103 204.999 103
c25.333 0 46.666 -6.66699 63.999 -20s29.666 -30.333 36.999 -51c26.667 -66.667 69 -116.334 127 -149.001l59.5 88.5c15.667 22.333 36.5 48.666 62.5 78.999s52.667 57.5 80 81.5c78.667 68.667 153.334 103 224.001 103c68.667 0 123.5 -21.5 164.5 -64.5
s61.5 -95.167 61.5 -156.5c0 -50 -17 -109 -51 -177h133v-128h-26c-100.667 0 -200.334 11.667 -299.001 35c-74.667 -23.333 -152.334 -35 -233.001 -35c-66.667 0 -122.667 8.66699 -168 26l-55 -106l-14 3c3.33301 46.667 8.66602 90 15.999 130
c-17.333 7.33301 -37.166 23.666 -59.499 48.999s-39.833 54.666 -52.5 87.999c-19.333 48 -54.333 72 -105 72c-43.333 0 -87.166 -16.833 -131.499 -50.5s-66.5 -65.834 -66.5 -96.501c0 -36.667 54.667 -64.334 164 -83.001c45.333 -8 78.666 -17.5 99.999 -28.5
s36.333 -27.5 45 -49.5c8 -20 12 -40 12 -60c0 -26 -10.667 -62.667 -32 -110c-20.667 -33.333 -66 -68.666 -136 -105.999c-105.333 -54.667 -205 -82 -299 -82zM1081 151.007c46 -15.333 106.334 -23 181.001 -23c47.333 0 95.166 4.5 143.499 13.5
s87.166 19.5 116.499 31.5c54.667 22 82 47 82 75c-6.66699 42.667 -28.167 78.167 -64.5 106.5s-77.166 42.5 -122.499 42.5c-104.667 0 -216.667 -82 -336 -246z" />
    <glyph glyph-name="uniFD22" unicode="&#xfebc;&#xfef2;" horiz-adv-x="1762" arabic-form="final" 
d="M422 -404c-98.667 0 -179.165 30.0068 -241.498 90.0068s-93.5 148 -93.5 264c0 85.333 21.667 177.333 65 276l42 -19c-27.333 -58 -41 -123 -41 -195c0 -88.667 28.167 -158.667 84.5 -210s126.833 -77 211.5 -77c56 0 119.667 13 191 39
c92.667 36.667 154.334 73 185.001 109c0 12 -44 26.333 -132 43c-63.333 10 -111.5 26 -144.5 48s-49.5 58.333 -49.5 109c0 29.333 8.83301 65.666 26.5 108.999s40.834 79.666 69.501 108.999c65.333 68.667 133.666 103 204.999 103
c25.333 0 46.666 -6.66699 63.999 -20s29.666 -30.333 36.999 -51c26.667 -66.667 69 -116.334 127 -149.001l59.5 88.5c15.667 22.333 36.5 48.666 62.5 78.999s52.667 57.5 80 81.5c78.667 68.667 153.334 103 224.001 103c68.667 0 123.5 -21.5 164.5 -64.5
s61.5 -95.167 61.5 -156.5c0 -50 -17 -109 -51 -177h133v-128h-26c-100.667 0 -200.334 11.667 -299.001 35c-74.667 -23.333 -152.334 -35 -233.001 -35c-66.667 0 -122.667 8.66699 -168 26l-55 -106l-14 3c3.33301 46.667 8.66602 90 15.999 130
c-17.333 7.33301 -37.166 23.666 -59.499 48.999s-39.833 54.666 -52.5 87.999c-19.333 48 -54.333 72 -105 72c-43.333 0 -87.166 -16.833 -131.499 -50.5s-66.5 -65.834 -66.5 -96.501c0 -36.667 54.667 -64.334 164 -83.001c45.333 -8 78.666 -17.5 99.999 -28.5
s36.333 -27.5 45 -49.5c8 -20 12 -40 12 -60c0 -26 -10.667 -62.667 -32 -110c-20.667 -33.333 -66 -68.666 -136 -105.999c-105.333 -54.667 -205 -82 -299 -82zM1081 151.007c46 -15.333 106.334 -23 181.001 -23c47.333 0 95.166 4.5 143.499 13.5
s87.166 19.5 116.499 31.5c54.667 22 82 47 82 75c-6.66699 42.667 -28.167 78.167 -64.5 106.5s-77.166 42.5 -122.499 42.5c-104.667 0 -216.667 -82 -336 -246zM674.003 -572.993c-28.667 -40.667 -54 -71.334 -76 -92.001c-39.333 37.333 -78.333 72 -117 104
c24.667 34.667 51 66.334 79 95.001c35.333 -28 73.333 -63.667 114 -107zM481.003 -585.993c-28.667 -40.667 -54 -71.334 -76 -92.001c-39.333 37.333 -78.333 72 -117 104c24.667 34.667 51 66.334 79 95.001c35.333 -28 73.333 -63.667 114 -107z" />
    <glyph glyph-name="uniFD23" unicode="&#xfec0;&#xfef0;" horiz-adv-x="1762" arabic-form="final" 
d="M422 -404c-98.667 0 -179.165 30.0068 -241.498 90.0068s-93.5 148 -93.5 264c0 85.333 21.667 177.333 65 276l42 -19c-27.333 -58 -41 -123 -41 -195c0 -88.667 28.167 -158.667 84.5 -210s126.833 -77 211.5 -77c56 0 119.667 13 191 39
c92.667 36.667 154.334 73 185.001 109c0 12 -44 26.333 -132 43c-63.333 10 -111.5 26 -144.5 48s-49.5 58.333 -49.5 109c0 29.333 8.83301 65.666 26.5 108.999s40.834 79.666 69.501 108.999c65.333 68.667 133.666 103 204.999 103
c25.333 0 46.666 -6.66699 63.999 -20s29.666 -30.333 36.999 -51c26.667 -66.667 69 -116.334 127 -149.001l59.5 88.5c15.667 22.333 36.5 48.666 62.5 78.999s52.667 57.5 80 81.5c78.667 68.667 153.334 103 224.001 103c68.667 0 123.5 -21.5 164.5 -64.5
s61.5 -95.167 61.5 -156.5c0 -50 -17 -109 -51 -177h133v-128h-26c-100.667 0 -200.334 11.667 -299.001 35c-74.667 -23.333 -152.334 -35 -233.001 -35c-66.667 0 -122.667 8.66699 -168 26l-55 -106l-14 3c3.33301 46.667 8.66602 90 15.999 130
c-17.333 7.33301 -37.166 23.666 -59.499 48.999s-39.833 54.666 -52.5 87.999c-19.333 48 -54.333 72 -105 72c-43.333 0 -87.166 -16.833 -131.499 -50.5s-66.5 -65.834 -66.5 -96.501c0 -36.667 54.667 -64.334 164 -83.001c45.333 -8 78.666 -17.5 99.999 -28.5
s36.333 -27.5 45 -49.5c8 -20 12 -40 12 -60c0 -26 -10.667 -62.667 -32 -110c-20.667 -33.333 -66 -68.666 -136 -105.999c-105.333 -54.667 -205 -82 -299 -82zM1081 151.007c46 -15.333 106.334 -23 181.001 -23c47.333 0 95.166 4.5 143.499 13.5
s87.166 19.5 116.499 31.5c54.667 22 82 47 82 75c-6.66699 42.667 -28.167 78.167 -64.5 106.5s-77.166 42.5 -122.499 42.5c-104.667 0 -216.667 -82 -336 -246zM1145 769.007c32.667 43.333 59.667 77.334 81 102.001c40 -29.333 80 -65 120 -107
c-23.333 -38 -51 -70.667 -83 -98c-18 17.333 -57.333 51.666 -118 102.999z" />
    <glyph glyph-name="uniFD24" unicode="&#xfec0;&#xfef2;" horiz-adv-x="1762" arabic-form="final" 
d="M422 -404c-98.667 0 -179.165 30.0068 -241.498 90.0068s-93.5 148 -93.5 264c0 85.333 21.667 177.333 65 276l42 -19c-27.333 -58 -41 -123 -41 -195c0 -88.667 28.167 -158.667 84.5 -210s126.833 -77 211.5 -77c56 0 119.667 13 191 39
c92.667 36.667 154.334 73 185.001 109c0 12 -44 26.333 -132 43c-63.333 10 -111.5 26 -144.5 48s-49.5 58.333 -49.5 109c0 29.333 8.83301 65.666 26.5 108.999s40.834 79.666 69.501 108.999c65.333 68.667 133.666 103 204.999 103
c25.333 0 46.666 -6.66699 63.999 -20s29.666 -30.333 36.999 -51c26.667 -66.667 69 -116.334 127 -149.001l59.5 88.5c15.667 22.333 36.5 48.666 62.5 78.999s52.667 57.5 80 81.5c78.667 68.667 153.334 103 224.001 103c68.667 0 123.5 -21.5 164.5 -64.5
s61.5 -95.167 61.5 -156.5c0 -50 -17 -109 -51 -177h133v-128h-26c-100.667 0 -200.334 11.667 -299.001 35c-74.667 -23.333 -152.334 -35 -233.001 -35c-66.667 0 -122.667 8.66699 -168 26l-55 -106l-14 3c3.33301 46.667 8.66602 90 15.999 130
c-17.333 7.33301 -37.166 23.666 -59.499 48.999s-39.833 54.666 -52.5 87.999c-19.333 48 -54.333 72 -105 72c-43.333 0 -87.166 -16.833 -131.499 -50.5s-66.5 -65.834 -66.5 -96.501c0 -36.667 54.667 -64.334 164 -83.001c45.333 -8 78.666 -17.5 99.999 -28.5
s36.333 -27.5 45 -49.5c8 -20 12 -40 12 -60c0 -26 -10.667 -62.667 -32 -110c-20.667 -33.333 -66 -68.666 -136 -105.999c-105.333 -54.667 -205 -82 -299 -82zM1081 151.007c46 -15.333 106.334 -23 181.001 -23c47.333 0 95.166 4.5 143.499 13.5
s87.166 19.5 116.499 31.5c54.667 22 82 47 82 75c-6.66699 42.667 -28.167 78.167 -64.5 106.5s-77.166 42.5 -122.499 42.5c-104.667 0 -216.667 -82 -336 -246zM674.003 -572.993c-28.667 -40.667 -54 -71.334 -76 -92.001c-39.333 37.333 -78.333 72 -117 104
c24.667 34.667 51 66.334 79 95.001c35.333 -28 73.333 -63.667 114 -107zM481.003 -585.993c-28.667 -40.667 -54 -71.334 -76 -92.001c-39.333 37.333 -78.333 72 -117 104c24.667 34.667 51 66.334 79 95.001c35.333 -28 73.333 -63.667 114 -107zM1155 769.007
c32.667 43.333 59.667 77.334 81 102.001c40 -29.333 80 -65 120 -107c-23.333 -38 -51 -70.667 -83 -98c-18 17.333 -57.333 51.666 -118 102.999z" />
    <glyph glyph-name="uniFD29" unicode="&#xfeb8;&#xfeae;" horiz-adv-x="1601" arabic-form="final" 
d="M454 209c124 51.333 248.332 90.667 372.999 118l2 -7c-4 -16 -6 -36 -6 -60c0 -34 12.833 -64.5 38.5 -91.5s55.167 -40.5 88.5 -40.5s61.333 8.66699 84 26c14.667 10 27.834 26 39.501 48s24.834 57 39.501 105l67 35l4 -4c-2.66699 -15.333 -6 -32.5 -10 -51.5
l-9 -43.5c-2 -10 -3.83301 -20.167 -5.5 -30.5s-2.5 -19.166 -2.5 -26.499c0 -15.333 4.83301 -28.833 14.5 -40.5s23.5 -17.5 41.5 -17.5c24 0 47 7.33301 69 22c25.333 17.333 44.666 49.333 57.999 96c0.666992 3.33301 2.16699 8.83301 4.5 16.5
s4.83301 16.834 7.5 27.501s5.33398 22.334 8.00098 35.001l76 51l4 -3c-16.667 -56.667 -25 -102.334 -25 -137.001c0 -72 54.667 -108 164 -108h22v-128h-25c-109.333 0 -178 31.333 -206 94h-6c-53.333 -62.667 -110.333 -94 -171 -94c-58 0 -94 27.667 -108 83h-5
c-40.667 -55.333 -90.667 -83 -150 -83c-48 0 -87.333 17.667 -118 53s-45.667 81.333 -45 138c-114.667 -36 -192 -64 -232 -84c8 -24.667 12 -49.334 12 -74.001c0 -28 -1.33301 -70 -4 -126c-2.66699 -68 -28.334 -131.333 -77.001 -190
c-78 -81.333 -151.667 -122 -221 -122s-150 32.333 -242 97l15 28c38 -17.333 78.667 -26 122 -26c84.667 0 170.667 37 258 111c66 68 99 122.333 99 163c0 26.667 -24.333 66.667 -73 120c6 37.333 16 77.666 30 120.999zM1202 802.001
c-28.667 -40.667 -54 -71.334 -76 -92.001c-39.333 37.333 -78.333 72 -117 104c24.667 34.667 51 66.334 79 95.001c35.333 -28 73.333 -63.667 114 -107zM1148 589.001c-28.667 -40.667 -54 -71.334 -76 -92.001c-39.333 37.333 -78.333 72 -117 104
c24.667 34.667 51 66.334 79 95.001c35.333 -28 73.333 -63.667 114 -107zM1341 602.001c-28.667 -40.667 -54 -71.334 -76 -92.001c-39.333 37.333 -78.333 72 -117 104c24.667 34.667 51 66.334 79 95.001c35.333 -28 73.333 -63.667 114 -107z" />
    <glyph glyph-name="uniFD2A" unicode="&#xfeb4;&#xfeae;" horiz-adv-x="1601" arabic-form="final" 
d="M454 209c124 51.333 248.332 90.667 372.999 118l2 -7c-4 -16 -6 -36 -6 -60c0 -34 12.833 -64.5 38.5 -91.5s55.167 -40.5 88.5 -40.5s61.333 8.66699 84 26c14.667 10 27.834 26 39.501 48s24.834 57 39.501 105l67 35l4 -4c-2.66699 -15.333 -6 -32.5 -10 -51.5
l-9 -43.5c-2 -10 -3.83301 -20.167 -5.5 -30.5s-2.5 -19.166 -2.5 -26.499c0 -15.333 4.83301 -28.833 14.5 -40.5s23.5 -17.5 41.5 -17.5c24 0 47 7.33301 69 22c25.333 17.333 44.666 49.333 57.999 96c0.666992 3.33301 2.16699 8.83301 4.5 16.5
s4.83301 16.834 7.5 27.501s5.33398 22.334 8.00098 35.001l76 51l4 -3c-16.667 -56.667 -25 -102.334 -25 -137.001c0 -72 54.667 -108 164 -108h22v-128h-25c-109.333 0 -178 31.333 -206 94h-6c-53.333 -62.667 -110.333 -94 -171 -94c-58 0 -94 27.667 -108 83h-5
c-40.667 -55.333 -90.667 -83 -150 -83c-48 0 -87.333 17.667 -118 53s-45.667 81.333 -45 138c-114.667 -36 -192 -64 -232 -84c8 -24.667 12 -49.334 12 -74.001c0 -28 -1.33301 -70 -4 -126c-2.66699 -68 -28.334 -131.333 -77.001 -190
c-78 -81.333 -151.667 -122 -221 -122s-150 32.333 -242 97l15 28c38 -17.333 78.667 -26 122 -26c84.667 0 170.667 37 258 111c66 68 99 122.333 99 163c0 26.667 -24.333 66.667 -73 120c6 37.333 16 77.666 30 120.999z" />
    <glyph glyph-name="uniFD2B" unicode="&#xfebc;&#xfeae;" horiz-adv-x="1689" arabic-form="final" 
d="M547 124c8 -25.333 12.0029 -49.666 12.0029 -72.999c0 -37.333 -1.66699 -83.333 -5 -138c-4 -64 -33 -128.333 -87 -193c-78.667 -81.333 -152.334 -122 -221.001 -122c-69.333 0 -150 32.333 -242 97l15 28c38 -17.333 78.667 -26 122 -26
c84.667 0 170.667 37 258 111c72 74 108 134.333 108 181c0 26 -23.667 65 -71 117c6 37.333 16 77.666 30 120.999c110.667 46 231.334 90.667 362.001 134c5.33301 -42.667 17.166 -79.5 35.499 -110.5s48.166 -56.5 89.499 -76.5c72 110 140 193 204 249
c78.667 68.667 153.334 103 224.001 103c68.667 0 123.5 -21.5 164.5 -64.5s61.5 -95.167 61.5 -156.5c0 -50 -17 -109 -51 -177h133v-128h-26c-100.667 0 -200.334 11.667 -299.001 35c-74.667 -23.333 -152.334 -35 -233.001 -35c-78 0 -140.333 11 -187 33
c-22 -30.667 -50 -76 -84 -136l-21 12c14 56 30 108 48 156c-56.667 42 -88 93 -94 153c-102.667 -32.667 -184.667 -64 -246 -94zM1006 149c42 -14 103.002 -21 183.002 -21c47.333 0 95.166 4.5 143.499 13.5s87.166 19.5 116.499 31.5c54.667 22 82 47 82 75
c-6.66699 42.667 -28.167 78.167 -64.5 106.5s-77.166 42.5 -122.499 42.5c-104.667 0 -217.334 -82.667 -338.001 -248z" />
    <glyph glyph-name="uniFD2C" unicode="&#xfec0;&#xfeae;" horiz-adv-x="1689" arabic-form="final" 
d="M547 124c8 -25.333 12.0029 -49.666 12.0029 -72.999c0 -37.333 -1.66699 -83.333 -5 -138c-4 -64 -33 -128.333 -87 -193c-78.667 -81.333 -152.334 -122 -221.001 -122c-69.333 0 -150 32.333 -242 97l15 28c38 -17.333 78.667 -26 122 -26
c84.667 0 170.667 37 258 111c72 74 108 134.333 108 181c0 26 -23.667 65 -71 117c6 37.333 16 77.666 30 120.999c110.667 46 231.334 90.667 362.001 134c5.33301 -42.667 17.166 -79.5 35.499 -110.5s48.166 -56.5 89.499 -76.5c72 110 140 193 204 249
c78.667 68.667 153.334 103 224.001 103c68.667 0 123.5 -21.5 164.5 -64.5s61.5 -95.167 61.5 -156.5c0 -50 -17 -109 -51 -177h133v-128h-26c-100.667 0 -200.334 11.667 -299.001 35c-74.667 -23.333 -152.334 -35 -233.001 -35c-78 0 -140.333 11 -187 33
c-22 -30.667 -50 -76 -84 -136l-21 12c14 56 30 108 48 156c-56.667 42 -88 93 -94 153c-102.667 -32.667 -184.667 -64 -246 -94zM1006 149c42 -14 103.002 -21 183.002 -21c47.333 0 95.166 4.5 143.499 13.5s87.166 19.5 116.499 31.5c54.667 22 82 47 82 75
c-6.66699 42.667 -28.167 78.167 -64.5 106.5s-77.166 42.5 -122.499 42.5c-104.667 0 -217.334 -82.667 -338.001 -248zM1085 769c32.667 43.333 59.667 77.334 81 102.001c40 -29.333 80 -65 120 -107c-23.333 -38 -51 -70.667 -83 -98
c-18 17.333 -57.333 51.666 -118 102.999z" />
    <glyph glyph-name="uniFEF5" unicode="&#xfedf;&#xfe82;" horiz-adv-x="905" arabic-form="isolated" 
d="M464 1149l5 -5c-15.333 -42.667 -25 -67.667 -29 -75c-38 -32 -84.667 -48 -140 -48c-22 0 -54.5 2.83301 -97.5 8.5s-72.167 8.5 -87.5 8.5c-10 0 -27 -22.667 -51 -68c-1.33301 -2 -2.33301 -3.66699 -3 -5l-2 -4h-7l-34 61c0 28.667 7.16699 54.334 21.5 77.001
s37.5 34 69.5 34c19.333 0 43 -2.66699 71 -8s52.833 -10.5 74.5 -15.5s46.667 -7.33301 75 -7s54.5 5.16602 78.5 14.499c20 8 38.667 18.667 56 32zM755 1029l7.00098 -5.00195c-1.33301 -9.33301 -2 -16.333 -2 -21c0 -47.333 27 -115 81 -203
c-22.667 -21.333 -43 -37.666 -61 -48.999c5.33301 -130 8 -249.667 8 -359c0 -62.667 -11 -127.667 -33 -195c-27.333 -78 -64.333 -134.333 -111 -169c-34.667 -25.333 -75 -45.833 -121 -61.5s-89.333 -23.5 -130 -23.5c-68.667 0 -151 15.333 -247 46v11
c199.333 26.667 348.666 70 447.999 130c-1.33301 12.667 -8.16602 30.667 -20.499 54s-24.5 44.666 -36.5 63.999l-56 86c-9.33301 14.667 -82 121.334 -218 320.001c-66 96.667 -99 158.667 -99 186c0 19.333 15.333 51.333 46 96l5 1
c27.333 -36 81.666 -94.333 162.999 -175l-32 -57l84 -131.5l91 -142c24.667 -39 45.667 -73.833 63 -104.5c28 -50 42.333 -108 43 -174l6 -1c53.333 38 80 98.667 80 182c0 90.667 -8.66699 225.334 -26 404.001c-0.666992 12 -2.83398 36.833 -6.50098 74.5
s-5.5 64.834 -5.5 81.501c0 29.333 7 53 21 71c10.667 15.333 30.334 36.666 59.001 63.999z" />
    <glyph glyph-name="uniFEF6" unicode="&#xfee0;&#xfe82;" horiz-adv-x="923" arabic-form="final" 
d="M464 1159l5 -5c-15.333 -42.667 -25 -67.667 -29 -75c-38 -32 -84.667 -48 -140 -48c-22 0 -54.5 2.83301 -97.5 8.5s-72.167 8.5 -87.5 8.5c-10 0 -27 -22.667 -51 -68c-1.33301 -2 -2.33301 -3.66699 -3 -5l-2 -4h-7l-34 61c0 28.667 7.16699 54.334 21.5 77.001
s37.5 34 69.5 34c19.333 0 43 -2.66699 71 -8s52.833 -10.5 74.5 -15.5s46.667 -7.33301 75 -7s54.5 5.16602 78.5 14.499c20 8 38.667 18.667 56 32zM750 1032l8.00195 -3.00293c6.66699 -216.667 10 -412 10 -586c0 -106.667 8.66699 -181 26 -223
c10.667 -25.333 27 -47 49 -65s46 -27 72 -27h8v-128h-19c-53.333 0 -101.166 23.833 -143.499 71.5s-63.5 115.834 -63.5 204.501l-7 1c-32.667 -120 -105.334 -206 -218.001 -258c-68.667 -26.667 -136.667 -40 -204 -40l-109 10l-4 7c150 56.667 277 119 381 187
c-16 92.667 -112 255.667 -288 489l-30 39l-29.5 39c-7 9.33301 -14.333 20 -22 32s-13.334 22.333 -17.001 31s-5.5 16.334 -5.5 23.001c0 17.333 9 48 27 92h5c36.667 -37.333 99.667 -84.666 189 -141.999l-34 -59c62.667 -86 116 -166.667 160 -242
c52.667 -91.333 79 -162.666 79 -213.999c0 -12.667 -1.33301 -33.667 -4 -63l3 -1c28.667 27.333 52.667 56 72 86c18.667 29.333 30 63.166 34 101.499s6 106.5 6 204.5c0 29.333 -4.33301 145.333 -13 348c31.333 38.667 58.666 67 81.999 85z" />
    <glyph glyph-name="uniFEF7" unicode="&#xfedf;&#xfe84;" horiz-adv-x="813" arabic-form="isolated" 
d="M331 1116l0.000976562 -2.99902c-12.667 -26 -25.667 -48.667 -39 -68c-97.333 -15.333 -184 -40.333 -260 -75l-2 3l24 42c12.667 16 28 27 46 33v3c-52 15.333 -78 44.333 -78 87c0 27.333 15.667 56.666 47 87.999c42.667 38 83 57 121 57
c19.333 0 34.666 -4.83301 45.999 -14.5s17 -21.167 17 -34.5c0 -18 -10.667 -39.667 -32 -65h-2c-12 23.333 -22.667 36.333 -32 39c-7.33301 2 -17.666 3 -30.999 3c-16.667 0 -32.5 -3.83301 -47.5 -11.5s-22.5 -15.5 -22.5 -23.5c0 -14.667 8.16699 -27.167 24.5 -37.5
s34.666 -17.333 54.999 -21s41.5 -5.5 63.5 -5.5c22.667 0 56.667 1.33301 102 4zM663.001 1029l7.00098 -5.00195c-1.33301 -9.33301 -2 -16.333 -2 -21c0 -47.333 27 -115 81 -203c-22.667 -21.333 -43 -37.666 -61 -48.999c5.33301 -130 8 -249.667 8 -359
c0 -62.667 -11 -127.667 -33 -195c-27.333 -78 -64.333 -134.333 -111 -169c-34.667 -25.333 -75 -45.833 -121 -61.5s-89.333 -23.5 -130 -23.5c-68.667 0 -151 15.333 -247 46v11c199.333 26.667 348.666 70 447.999 130c-1.33301 12.667 -8.16602 30.667 -20.499 54
s-24.5 44.666 -36.5 63.999l-56 86c-9.33301 14.667 -82 121.334 -218 320.001c-66 96.667 -99 158.667 -99 186c0 19.333 15.333 51.333 46 96l5 1c27.333 -36 81.666 -94.333 162.999 -175l-32 -57l84 -131.5l91 -142c24.667 -39 45.667 -73.833 63 -104.5
c28 -50 42.333 -108 43 -174l6 -1c53.333 38 80 98.667 80 182c0 90.667 -8.66699 225.334 -26 404.001c-0.666992 12 -2.83398 36.833 -6.50098 74.5s-5.5 64.834 -5.5 81.501c0 29.333 7 53 21 71c10.667 15.333 30.334 36.666 59.001 63.999z" />
    <glyph glyph-name="uniFEF8" unicode="&#xfee0;&#xfe84;" horiz-adv-x="855" arabic-form="final" 
d="M327 1119l0.000976562 -2.99902c-12.667 -26 -25.667 -48.667 -39 -68c-97.333 -15.333 -184 -40.333 -260 -75l-2 3l24 42c12.667 16 28 27 46 33v3c-52 15.333 -78 44.333 -78 87c0 27.333 15.667 56.666 47 87.999c42.667 38 83 57 121 57
c19.333 0 34.666 -4.83301 45.999 -14.5s17 -21.167 17 -34.5c0 -18 -10.667 -39.667 -32 -65h-2c-12 23.333 -22.667 36.333 -32 39c-7.33301 2 -17.666 3 -30.999 3c-16.667 0 -32.5 -3.83301 -47.5 -11.5s-22.5 -15.5 -22.5 -23.5c0 -14.667 8.16699 -27.167 24.5 -37.5
s34.666 -17.333 54.999 -21s41.5 -5.5 63.5 -5.5c22.667 0 56.667 1.33301 102 4zM682.001 1032l8.00195 -3.00293c6.66699 -216.667 10 -412 10 -586c0 -106.667 8.66699 -181 26 -223c10.667 -25.333 27 -47 49 -65s46 -27 72 -27h8v-128h-19
c-53.333 0 -101.166 23.833 -143.499 71.5s-63.5 115.834 -63.5 204.501l-7 1c-32.667 -120 -105.334 -206 -218.001 -258c-68.667 -26.667 -136.667 -40 -204 -40l-109 10l-4 7c150 56.667 277 119 381 187c-16 92.667 -112 255.667 -288 489l-30 39l-29.5 39
c-7 9.33301 -14.333 20 -22 32s-13.334 22.333 -17.001 31s-5.5 16.334 -5.5 23.001c0 17.333 9 48 27 92h5c36.667 -37.333 99.667 -84.666 189 -141.999l-34 -59c62.667 -86 116 -166.667 160 -242c52.667 -91.333 79 -162.666 79 -213.999
c0 -12.667 -1.33301 -33.667 -4 -63l3 -1c28.667 27.333 52.667 56 72 86c18.667 29.333 30 63.166 34 101.499s6 106.5 6 204.5c0 29.333 -4.33301 145.333 -13 348c31.333 38.667 58.666 67 81.999 85z" />
    <glyph glyph-name="uniFEF9" unicode="&#xfedf;&#xfe88;" horiz-adv-x="813" arabic-form="isolated" 
d="M392 -291l0.000976562 -2.99902c-12.667 -26 -25.667 -48.667 -39 -68c-97.333 -15.333 -184 -40.333 -260 -75l-2 3l24 42c12.667 16 28 27 46 33v3c-52 15.333 -78 44.333 -78 87c0 27.333 15.667 56.666 47 87.999c42.667 38 83 57 121 57
c19.333 0 34.666 -4.83301 45.999 -14.5s17 -21.167 17 -34.5c0 -18 -10.667 -39.667 -32 -65h-2c-12 23.333 -22.667 36.333 -32 39c-7.33301 2 -17.666 3 -30.999 3c-16.667 0 -32.5 -3.83301 -47.5 -11.5s-22.5 -15.5 -22.5 -23.5c0 -14.667 8.16699 -27.167 24.5 -37.5
s34.666 -17.333 54.999 -21s41.5 -5.5 63.5 -5.5c22.667 0 56.667 1.33301 102 4zM663.001 1029l7.00098 -5.00195c-1.33301 -9.33301 -2 -16.333 -2 -21c0 -47.333 27 -115 81 -203c-22.667 -21.333 -43 -37.666 -61 -48.999c5.33301 -130 8 -249.667 8 -359
c0 -62.667 -11 -127.667 -33 -195c-27.333 -78 -64.333 -134.333 -111 -169c-34.667 -25.333 -75 -45.833 -121 -61.5s-89.333 -23.5 -130 -23.5c-68.667 0 -151 15.333 -247 46v11c199.333 26.667 348.666 70 447.999 130c-1.33301 12.667 -8.16602 30.667 -20.499 54
s-24.5 44.666 -36.5 63.999l-56 86c-9.33301 14.667 -82 121.334 -218 320.001c-66 96.667 -99 158.667 -99 186c0 19.333 15.333 51.333 46 96l5 1c27.333 -36 81.666 -94.333 162.999 -175l-32 -57l84 -131.5l91 -142c24.667 -39 45.667 -73.833 63 -104.5
c28 -50 42.333 -108 43 -174l6 -1c53.333 38 80 98.667 80 182c0 90.667 -8.66699 225.334 -26 404.001c-0.666992 12 -2.83398 36.833 -6.50098 74.5s-5.5 64.834 -5.5 81.501c0 29.333 7 53 21 71c10.667 15.333 30.334 36.666 59.001 63.999z" />
    <glyph glyph-name="uniFEFA" unicode="&#xfee0;&#xfe88;" horiz-adv-x="849" arabic-form="final" 
d="M441 -246l0.000976562 -2.99902c-12.667 -26 -25.667 -48.667 -39 -68c-97.333 -15.333 -184 -40.333 -260 -75l-2 3l24 42c12.667 16 28 27 46 33v3c-52 15.333 -78 44.333 -78 87c0 27.333 15.667 56.666 47 87.999c42.667 38 83 57 121 57
c19.333 0 34.666 -4.83301 45.999 -14.5s17 -21.167 17 -34.5c0 -18 -10.667 -39.667 -32 -65h-2c-12 23.333 -22.667 36.333 -32 39c-7.33301 2 -17.666 3 -30.999 3c-16.667 0 -32.5 -3.83301 -47.5 -11.5s-22.5 -15.5 -22.5 -23.5c0 -14.667 8.16699 -27.167 24.5 -37.5
s34.666 -17.333 54.999 -21s41.5 -5.5 63.5 -5.5c22.667 0 56.667 1.33301 102 4zM676.001 1032l8.00195 -3.00293c6.66699 -216.667 10 -412 10 -586c0 -106.667 8.66699 -181 26 -223c10.667 -25.333 27 -47 49 -65s46 -27 72 -27h8v-128h-19
c-53.333 0 -101.166 23.833 -143.499 71.5s-63.5 115.834 -63.5 204.501l-7 1c-32.667 -120 -105.334 -206 -218.001 -258c-68.667 -26.667 -136.667 -40 -204 -40l-109 10l-4 7c150 56.667 277 119 381 187c-16 92.667 -112 255.667 -288 489l-30 39l-29.5 39
c-7 9.33301 -14.333 20 -22 32s-13.334 22.333 -17.001 31s-5.5 16.334 -5.5 23.001c0 17.333 9 48 27 92h5c36.667 -37.333 99.667 -84.666 189 -141.999l-34 -59c62.667 -86 116 -166.667 160 -242c52.667 -91.333 79 -162.666 79 -213.999
c0 -12.667 -1.33301 -33.667 -4 -63l3 -1c28.667 27.333 52.667 56 72 86c18.667 29.333 30 63.166 34 101.499s6 106.5 6 204.5c0 29.333 -4.33301 145.333 -13 348c31.333 38.667 58.666 67 81.999 85z" />
    <glyph glyph-name="uniFEFB" unicode="&#xfedf;&#xfe8e;" horiz-adv-x="813" arabic-form="isolated" 
d="M663 1029l7.00098 -5.00195c-1.33301 -9.33301 -2 -16.333 -2 -21c0 -47.333 27 -115 81 -203c-22.667 -21.333 -43 -37.666 -61 -48.999c5.33301 -130 8 -249.667 8 -359c0 -62.667 -11 -127.667 -33 -195c-27.333 -78 -64.333 -134.333 -111 -169
c-34.667 -25.333 -75 -45.833 -121 -61.5s-89.333 -23.5 -130 -23.5c-68.667 0 -151 15.333 -247 46v11c199.333 26.667 348.666 70 447.999 130c-1.33301 12.667 -8.16602 30.667 -20.499 54s-24.5 44.666 -36.5 63.999l-56 86c-9.33301 14.667 -82 121.334 -218 320.001
c-66 96.667 -99 158.667 -99 186c0 19.333 15.333 51.333 46 96l5 1c27.333 -36 81.666 -94.333 162.999 -175l-32 -57l84 -131.5l91 -142c24.667 -39 45.667 -73.833 63 -104.5c28 -50 42.333 -108 43 -174l6 -1c53.333 38 80 98.667 80 182
c0 90.667 -8.66699 225.334 -26 404.001c-0.666992 12 -2.83398 36.833 -6.50098 74.5s-5.5 64.834 -5.5 81.501c0 29.333 7 53 21 71c10.667 15.333 30.334 36.666 59.001 63.999z" />
    <glyph glyph-name="uniFEFC" unicode="&#xfee0;&#xfe8e;" horiz-adv-x="849" arabic-form="final" 
d="M676 1032l8.00195 -3.00293c6.66699 -216.667 10 -412 10 -586c0 -106.667 8.66699 -181 26 -223c10.667 -25.333 27 -47 49 -65s46 -27 72 -27h8v-128h-19c-53.333 0 -101.166 23.833 -143.499 71.5s-63.5 115.834 -63.5 204.501l-7 1
c-32.667 -120 -105.334 -206 -218.001 -258c-68.667 -26.667 -136.667 -40 -204 -40l-109 10l-4 7c150 56.667 277 119 381 187c-16 92.667 -112 255.667 -288 489l-30 39l-29.5 39c-7 9.33301 -14.333 20 -22 32s-13.334 22.333 -17.001 31s-5.5 16.334 -5.5 23.001
c0 17.333 9 48 27 92h5c36.667 -37.333 99.667 -84.666 189 -141.999l-34 -59c62.667 -86 116 -166.667 160 -242c52.667 -91.333 79 -162.666 79 -213.999c0 -12.667 -1.33301 -33.667 -4 -63l3 -1c28.667 27.333 52.667 56 72 86c18.667 29.333 30 63.166 34 101.499
s6 106.5 6 204.5c0 29.333 -4.33301 145.333 -13 348c31.333 38.667 58.666 67 81.999 85z" />
    <glyph glyph-name="uni06260645.init" unicode="&#xfe8b;&#xfee4;" horiz-adv-x="811" 
d="M0 128h8.99902c48.667 0 91.667 6.16699 129 18.5s75.666 35.5 114.999 69.5c16.667 110 61 198.333 133 265c70.667 63.333 141.334 95 212.001 95c37.333 0 68.833 -9.33301 94.5 -28s38.5 -42.667 38.5 -72c0 -32.667 -6.66699 -66.334 -20 -101.001l-7 -1
c-26 50 -67.333 75 -124 75c-44 0 -88.667 -13 -134 -39c-64.667 -43.333 -104 -93.333 -118 -150l3 -3c35.333 16 69 24 101 24c54.667 0 98 -17.667 130 -53c32 -34 48 -74.333 48 -121c0 -42.667 -8 -80 -24 -112c-34.667 -65.333 -80.334 -98 -137.001 -98
c-55.333 0 -102.666 23.333 -141.999 70c-35.333 38.667 -53.333 81.334 -54 128.001h-5c-61.333 -63.333 -140.666 -95 -237.999 -95h-10c-24.667 -0 -42.5 6.83301 -53.5 20.5s-16.5 29.167 -16.5 46.5c0 15.333 5.66699 29.333 17 42s29 19 53 19zM324.999 148
c8.66699 -38 28.333 -70.167 59 -96.5s63.667 -39.5 99 -39.5c34.667 0 56 9.33301 64 28c0 35.333 -14.167 65.333 -42.5 90s-62.833 37 -103.5 37c-28 0 -53.333 -6.33301 -76 -19zM731.998 789l0.00195312 -2.99902c-12.667 -26 -25.667 -48.667 -39 -68
c-97.333 -15.333 -184 -40.333 -260 -75l-2 3l24 42c12.667 16 28 27 46 33v3c-52 15.333 -78 44.333 -78 87c0 27.333 15.667 56.666 47 87.999c42.667 38 83 57 121 57c19.333 0 34.666 -4.83301 45.999 -14.5s17 -21.167 17 -34.5c0 -18 -10.667 -39.667 -32 -65h-2
c-12 23.333 -22.667 36.333 -32 39c-6.66699 2 -17 3 -31 3c-16.667 0 -32.5 -3.83301 -47.5 -11.5s-22.5 -15.5 -22.5 -23.5c0 -14.667 8.16699 -27.167 24.5 -37.5s34.666 -17.333 54.999 -21s41.5 -5.5 63.5 -5.5c22.667 0 56.667 1.33301 102 4z" />
    <glyph glyph-name="uni06260649" unicode="&#xfe8b;&#xfef0;" horiz-adv-x="999" 
d="M734 653l7.00098 -0.000976562c65.333 -128.667 98 -225.667 98 -291c0 -53.333 -18 -109.666 -54 -168.999c56.667 -13.333 94 -30.333 112 -51s27 -53 27 -97c0 -37.333 -13.667 -82.333 -41 -135c-137.333 -134.667 -287.333 -202 -450 -202
c-46 0 -90 8.66699 -132 26s-77.667 40 -107 68c-69.333 73.333 -104 162.666 -104 267.999c0 94.667 25 199.334 75 314.001l39 -15c-30 -84 -45 -154 -45 -210c0 -76 19.333 -141.667 58 -197c62 -76 138 -114 228 -114c109.333 0 205.333 25 288 75
c65.333 39.333 107.666 72.333 126.999 99c0 18 -32.333 34.833 -97 50.5s-137.334 26.5 -218.001 32.5l-7 9l48 104c92.667 14 152.667 38.333 180 73c-16 65.333 -51.333 149 -106 251c24.667 40 49.334 77 74.001 111zM848.001 848.999l0.000976562 -2.99902
c-12.667 -26 -25.667 -48.667 -39 -68c-97.333 -15.333 -184 -40.333 -260 -75l-2 3l24 42c12.667 16 28 27 46 33v3c-52 15.333 -78 44.333 -78 87c0 27.333 15.667 56.666 47 87.999c42.667 38 83 57 121 57c19.333 0 34.666 -4.83301 45.999 -14.5s17 -21.167 17 -34.5
c0 -18 -10.667 -39.667 -32 -65h-2c-12 23.333 -22.667 36.333 -32 39c-7.33301 2 -17.666 3 -30.999 3c-16.667 0 -32.5 -3.83301 -47.5 -11.5s-22.5 -15.5 -22.5 -23.5c0 -14.667 8.16699 -27.167 24.5 -37.5s34.666 -17.333 54.999 -21s41.5 -5.5 63.5 -5.5
c22.667 0 56.667 1.33301 102 4z" />
    <glyph glyph-name="uni0626064A" unicode="&#xfe8b;&#xfef2;" horiz-adv-x="999" 
d="M734 653l7.00098 -0.000976562c65.333 -128.667 98 -225.667 98 -291c0 -53.333 -18 -109.666 -54 -168.999c56.667 -13.333 94 -30.333 112 -51s27 -53 27 -97c0 -37.333 -13.667 -82.333 -41 -135c-137.333 -134.667 -287.333 -202 -450 -202
c-46 0 -90 8.66699 -132 26s-77.667 40 -107 68c-69.333 73.333 -104 162.666 -104 267.999c0 94.667 25 199.334 75 314.001l39 -15c-30 -84 -45 -154 -45 -210c0 -76 19.333 -141.667 58 -197c62 -76 138 -114 228 -114c109.333 0 205.333 25 288 75
c65.333 39.333 107.666 72.333 126.999 99c0 18 -32.333 34.833 -97 50.5s-137.334 26.5 -218.001 32.5l-7 9l48 104c92.667 14 152.667 38.333 180 73c-16 65.333 -51.333 149 -106 251c24.667 40 49.334 77 74.001 111zM848.001 848.999l0.000976562 -2.99902
c-12.667 -26 -25.667 -48.667 -39 -68c-97.333 -15.333 -184 -40.333 -260 -75l-2 3l24 42c12.667 16 28 27 46 33v3c-52 15.333 -78 44.333 -78 87c0 27.333 15.667 56.666 47 87.999c42.667 38 83 57 121 57c19.333 0 34.666 -4.83301 45.999 -14.5s17 -21.167 17 -34.5
c0 -18 -10.667 -39.667 -32 -65h-2c-12 23.333 -22.667 36.333 -32 39c-7.33301 2 -17.666 3 -30.999 3c-16.667 0 -32.5 -3.83301 -47.5 -11.5s-22.5 -15.5 -22.5 -23.5c0 -14.667 8.16699 -27.167 24.5 -37.5s34.666 -17.333 54.999 -21s41.5 -5.5 63.5 -5.5
c22.667 0 56.667 1.33301 102 4zM680.002 -493c-28.667 -40.667 -54 -71.334 -76 -92.001c-39.333 37.333 -78.333 72 -117 104c24.667 34.667 51 66.334 79 95.001c35.333 -28 73.333 -63.667 114 -107zM487.002 -506c-28.667 -40.667 -54 -71.334 -76 -92.001
c-39.333 37.333 -78.333 72 -117 104c24.667 34.667 51 66.334 79 95.001c35.333 -28 73.333 -63.667 114 -107z" />
    <glyph glyph-name="uni06280645.init" unicode="&#xfe91;&#xfee4;" horiz-adv-x="810" 
d="M495 -331c32.667 43.333 59.667 77.334 81 102.001c40 -29.333 80 -65 120 -107c-23.333 -38 -51 -70.667 -83 -98c-18 17.333 -57.333 51.666 -118 102.999zM0 128.001h8.99902c48.667 0 91.667 6.16699 129 18.5s75.666 35.5 114.999 69.5
c16.667 110 61 198.333 133 265c70.667 63.333 141.334 95 212.001 95c37.333 0 68.833 -9.33301 94.5 -28s38.5 -42.667 38.5 -72c0 -32.667 -6.66699 -66.334 -20 -101.001l-7 -1c-26 50 -67.333 75 -124 75c-44 0 -88.667 -13 -134 -39
c-64.667 -43.333 -104 -93.333 -118 -150l3 -3c35.333 16 69 24 101 24c54.667 0 98 -17.667 130 -53c32 -34 48 -74.333 48 -121c0 -42.667 -8 -80 -24 -112c-34.667 -65.333 -80.334 -98 -137.001 -98c-55.333 0 -102.666 23.333 -141.999 70
c-35.333 38.667 -53.333 81.334 -54 128.001h-5c-61.333 -63.333 -140.666 -95 -237.999 -95h-10c-24.667 0 -42.5 6.83301 -53.5 20.5s-16.5 29.167 -16.5 46.5c0 15.333 5.66699 29.333 17 42s29 19 53 19zM324.999 148.001c8.66699 -38 28.333 -70.167 59 -96.5
s63.667 -39.5 99 -39.5c34.667 0 56 9.33301 64 28c0 35.333 -14.167 65.333 -42.5 90s-62.833 37 -103.5 37c-28 0 -53.333 -6.33301 -76 -19z" />
    <glyph glyph-name="uni06280646.fina" unicode="&#xfe92;&#xfee6;" horiz-adv-x="1120" 
d="M310 640c32.667 43.333 59.667 77.334 81 102.001c40 -29.333 80 -65 120 -107c-23.333 -38 -51 -70.667 -83 -98c-18 17.333 -57.333 51.666 -118 102.999zM820 -300.999c32.667 43.333 59.667 77.334 81 102.001c40 -29.333 80 -65 120 -107
c-23.333 -38 -51 -70.667 -83 -98c-18 17.333 -57.333 51.666 -118 102.999zM904 489.002h9.99902c0.666992 -4 2.5 -13.333 5.5 -28s6.5 -33 10.5 -55l13 -71c18 -96 46 -156 84 -180c33.333 -18 59.666 -27 78.999 -27h14v-128h-16c-58.667 0 -103.167 17 -133.5 51
s-55.833 92 -76.5 174l-26 103h-5c-33.333 -67.333 -80.333 -102 -141 -104c20 -50 30 -112.667 30 -188c0 -60 -9.66699 -114 -29 -162c-26 -39.333 -61.333 -75 -106 -107c-71.333 -45.333 -146.333 -68 -225 -68c-91.333 0 -163.666 29.167 -216.999 87.5
s-80 134.5 -80 228.5c0 79.333 16.667 158 50 236l35 -13c-18 -60.667 -27 -115 -27 -163c0 -70.667 24 -128.5 72 -173.5s103.667 -67.5 167 -67.5c69.333 0 136.333 18.667 201 56c69.333 47.333 104 88.666 104 123.999c0 24.667 -7.33301 58 -22 100
c-16.667 46 -58.667 102.667 -126 170l36 130l10 1c31.333 -29.333 56 -50.666 74 -63.999c20 -14 47 -21 81 -21c26.667 0 50 8 70 24c9.33301 7.33301 18.333 17.833 27 31.5s18.334 31.167 29.001 52.5s20 38.333 28 51z" />
    <glyph glyph-name="uni06280649" unicode="&#xfe91;&#xfef0;" horiz-adv-x="999" 
d="M734 653l7.00098 -0.000976562c65.333 -128.667 98 -225.667 98 -291c0 -53.333 -18 -109.666 -54 -168.999c56.667 -13.333 94 -30.333 112 -51s27 -53 27 -97c0 -37.333 -13.667 -82.333 -41 -135c-137.333 -134.667 -287.333 -202 -450 -202
c-46 0 -90 8.66699 -132 26s-77.667 40 -107 68c-69.333 73.333 -104 162.666 -104 267.999c0 94.667 25 199.334 75 314.001l39 -15c-30 -84 -45 -154 -45 -210c0 -76 19.333 -141.667 58 -197c62 -76 138 -114 228 -114c109.333 0 205.333 25 288 75
c65.333 39.333 107.666 72.333 126.999 99c0 18 -32.333 34.833 -97 50.5s-137.334 26.5 -218.001 32.5l-7 9l48 104c92.667 14 152.667 38.333 180 73c-16 65.333 -51.333 149 -106 251c24.667 40 49.334 77 74.001 111zM681.001 -431.001
c32.667 43.333 59.667 77.334 81 102.001c40 -29.333 80 -65 120 -107c-23.333 -38 -51 -70.667 -83 -98c-18 17.333 -57.333 51.666 -118 102.999z" />
    <glyph glyph-name="uni0628064A" unicode="&#xfe91;&#xfef2;" horiz-adv-x="1011" 
d="M734 653l7.00098 -0.000976562c65.333 -128.667 98 -225.667 98 -291c0 -53.333 -18 -109.666 -54 -168.999c56.667 -13.333 94 -30.333 112 -51s27 -53 27 -97c0 -37.333 -13.667 -82.333 -41 -135c-137.333 -134.667 -287.333 -202 -450 -202
c-46 0 -90 8.66699 -132 26s-77.667 40 -107 68c-69.333 73.333 -104 162.666 -104 267.999c0 94.667 25 199.334 75 314.001l39 -15c-30 -84 -45 -154 -45 -210c0 -76 19.333 -141.667 58 -197c62 -76 138 -114 228 -114c109.333 0 205.333 25 288 75
c65.333 39.333 107.666 72.333 126.999 99c0 18 -32.333 34.833 -97 50.5s-137.334 26.5 -218.001 32.5l-7 9l48 104c92.667 14 152.667 38.333 180 73c-16 65.333 -51.333 149 -106 251c24.667 40 49.334 77 74.001 111zM630.001 -503.001
c-28.667 -40.667 -54 -71.334 -76 -92.001c-39.333 37.333 -78.333 72 -117 104c24.667 34.667 51 66.334 79 95.001c35.333 -28 73.333 -63.667 114 -107zM437.001 -516.001c-28.667 -40.667 -54 -71.334 -76 -92.001c-39.333 37.333 -78.333 72 -117 104
c24.667 34.667 51 66.334 79 95.001c35.333 -28 73.333 -63.667 114 -107zM751.001 -381.001c32.667 43.333 59.667 77.334 81 102.001c40 -29.333 80 -65 120 -107c-23.333 -38 -51 -70.667 -83 -98c-18 17.333 -57.333 51.666 -118 102.999z" />
    <glyph glyph-name="uni062A0645.init" unicode="&#xfe97;&#xfee4;" horiz-adv-x="820" 
d="M741 772c-28.667 -40.667 -54 -71.334 -76 -92.001c-39.333 37.333 -78.333 72 -117 104c24.667 34.667 51 66.334 79 95.001c35.333 -28 73.333 -63.667 114 -107zM548 759c-28.667 -40.667 -54 -71.334 -76 -92.001c-39.333 37.333 -78.333 72 -117 104
c24.667 34.667 51 66.334 79 95.001c35.333 -28 73.333 -63.667 114 -107zM0 128h8.99902c48.667 0 91.667 6.16699 129 18.5s75.666 35.5 114.999 69.5c16.667 110 61 198.333 133 265c70.667 63.333 141.334 95 212.001 95c37.333 0 68.833 -9.33301 94.5 -28
s38.5 -42.667 38.5 -72c0 -32.667 -6.66699 -66.334 -20 -101.001l-7 -1c-26 50 -67.333 75 -124 75c-44 0 -88.667 -13 -134 -39c-64.667 -43.333 -104 -93.333 -118 -150l3 -3c35.333 16 69 24 101 24c54.667 0 98 -17.667 130 -53c32 -34 48 -74.333 48 -121
c0 -42.667 -8 -80 -24 -112c-34.667 -65.333 -80.334 -98 -137.001 -98c-55.333 0 -102.666 23.333 -141.999 70c-35.333 38.667 -53.333 81.334 -54 128.001h-5c-61.333 -63.333 -140.666 -95 -237.999 -95h-10c-24.667 -0 -42.5 6.83301 -53.5 20.5
s-16.5 29.167 -16.5 46.5c0 15.333 5.66699 29.333 17 42s29 19 53 19zM324.999 148c8.66699 -38 28.333 -70.167 59 -96.5s63.667 -39.5 99 -39.5c34.667 0 56 9.33301 64 28c0 35.333 -14.167 65.333 -42.5 90s-62.833 37 -103.5 37c-28 0 -53.333 -6.33301 -76 -19z" />
    <glyph glyph-name="uni062A0646.fina" unicode="&#xfe98;&#xfee6;" horiz-adv-x="1120" 
d="M310 640c32.667 43.333 59.667 77.334 81 102.001c40 -29.333 80 -65 120 -107c-23.333 -38 -51 -70.667 -83 -98c-18 17.333 -57.333 51.666 -118 102.999zM1066 702.001c-28.667 -40.667 -54 -71.334 -76 -92.001c-39.333 37.333 -78.333 72 -117 104
c24.667 34.667 51 66.334 79 95.001c35.333 -28 73.333 -63.667 114 -107zM873 689.001c-28.667 -40.667 -54 -71.334 -76 -92.001c-39.333 37.333 -78.333 72 -117 104c24.667 34.667 51 66.334 79 95.001c35.333 -28 73.333 -63.667 114 -107zM904 489.001h9.99902
c0.666992 -4 2.5 -13.333 5.5 -28s6.5 -33 10.5 -55l13 -71c18 -96 46 -156 84 -180c33.333 -18 59.666 -27 78.999 -27h14v-128h-16c-58.667 0 -103.167 17 -133.5 51s-55.833 92 -76.5 174l-26 103h-5c-33.333 -67.333 -80.333 -102 -141 -104c20 -50 30 -112.667 30 -188
c0 -60 -9.66699 -114 -29 -162c-26 -39.333 -61.333 -75 -106 -107c-71.333 -45.333 -146.333 -68 -225 -68c-91.333 0 -163.666 29.167 -216.999 87.5s-80 134.5 -80 228.5c0 79.333 16.667 158 50 236l35 -13c-18 -60.667 -27 -115 -27 -163
c0 -70.667 24 -128.5 72 -173.5s103.667 -67.5 167 -67.5c69.333 0 136.333 18.667 201 56c69.333 47.333 104 88.666 104 123.999c0 24.667 -7.33301 58 -22 100c-16.667 46 -58.667 102.667 -126 170l36 130l10 1c31.333 -29.333 56 -50.666 74 -63.999
c20 -14 47 -21 81 -21c26.667 0 50 8 70 24c9.33301 7.33301 18.333 17.833 27 31.5s18.334 31.167 29.001 52.5s20 38.333 28 51z" />
    <glyph glyph-name="uni062A0649" unicode="&#xfe97;&#xfef0;" horiz-adv-x="1004" 
d="M734 653l7.00098 -0.000976562c65.333 -128.667 98 -225.667 98 -291c0 -53.333 -18 -109.666 -54 -168.999c56.667 -13.333 94 -30.333 112 -51s27 -53 27 -97c0 -37.333 -13.667 -82.333 -41 -135c-137.333 -134.667 -287.333 -202 -450 -202
c-46 0 -90 8.66699 -132 26s-77.667 40 -107 68c-69.333 73.333 -104 162.666 -104 267.999c0 94.667 25 199.334 75 314.001l39 -15c-30 -84 -45 -154 -45 -210c0 -76 19.333 -141.667 58 -197c62 -76 138 -114 228 -114c109.333 0 205.333 25 288 75
c65.333 39.333 107.666 72.333 126.999 99c0 18 -32.333 34.833 -97 50.5s-137.334 26.5 -218.001 32.5l-7 9l48 104c92.667 14 152.667 38.333 180 73c-16 65.333 -51.333 149 -106 251c24.667 40 49.334 77 74.001 111zM867.001 841.999
c-28.667 -40.667 -54 -71.334 -76 -92.001c-39.333 37.333 -78.333 72 -117 104c24.667 34.667 51 66.334 79 95.001c35.333 -28 73.333 -63.667 114 -107zM674.001 828.999c-28.667 -40.667 -54 -71.334 -76 -92.001c-39.333 37.333 -78.333 72 -117 104
c24.667 34.667 51 66.334 79 95.001c35.333 -28 73.333 -63.667 114 -107z" />
    <glyph glyph-name="uni062A064A" unicode="&#xfe97;&#xfef2;" horiz-adv-x="1004" 
d="M734 653l7.00098 -0.000976562c65.333 -128.667 98 -225.667 98 -291c0 -53.333 -18 -109.666 -54 -168.999c56.667 -13.333 94 -30.333 112 -51s27 -53 27 -97c0 -37.333 -13.667 -82.333 -41 -135c-137.333 -134.667 -287.333 -202 -450 -202
c-46 0 -90 8.66699 -132 26s-77.667 40 -107 68c-69.333 73.333 -104 162.666 -104 267.999c0 94.667 25 199.334 75 314.001l39 -15c-30 -84 -45 -154 -45 -210c0 -76 19.333 -141.667 58 -197c62 -76 138 -114 228 -114c109.333 0 205.333 25 288 75
c65.333 39.333 107.666 72.333 126.999 99c0 18 -32.333 34.833 -97 50.5s-137.334 26.5 -218.001 32.5l-7 9l48 104c92.667 14 152.667 38.333 180 73c-16 65.333 -51.333 149 -106 251c24.667 40 49.334 77 74.001 111zM680.001 -493.001
c-28.667 -40.667 -54 -71.334 -76 -92.001c-39.333 37.333 -78.333 72 -117 104c24.667 34.667 51 66.334 79 95.001c35.333 -28 73.333 -63.667 114 -107zM487.001 -506.001c-28.667 -40.667 -54 -71.334 -76 -92.001c-39.333 37.333 -78.333 72 -117 104
c24.667 34.667 51 66.334 79 95.001c35.333 -28 73.333 -63.667 114 -107zM867.001 841.999c-28.667 -40.667 -54 -71.334 -76 -92.001c-39.333 37.333 -78.333 72 -117 104c24.667 34.667 51 66.334 79 95.001c35.333 -28 73.333 -63.667 114 -107zM674.001 828.999
c-28.667 -40.667 -54 -71.334 -76 -92.001c-39.333 37.333 -78.333 72 -117 104c24.667 34.667 51 66.334 79 95.001c35.333 -28 73.333 -63.667 114 -107z" />
    <glyph glyph-name="uni062B0631.fina" unicode="&#xfe9c;&#xfeae;" horiz-adv-x="910" 
d="M658 679c-28.667 -40.667 -54 -71.334 -76 -92.001c-39.333 37.333 -78.333 72 -117 104c24.667 34.667 51 66.334 79 95.001c35.333 -28 73.333 -63.667 114 -107zM712 892c-28.667 -40.667 -54 -71.334 -76 -92.001c-39.333 37.333 -78.333 72 -117 104
c24.667 34.667 51 66.334 79 95.001c35.333 -28 73.333 -63.667 114 -107zM851 692c-28.667 -40.667 -54 -71.334 -76 -92.001c-39.333 37.333 -78.333 72 -117 104c24.667 34.667 51 66.334 79 95.001c35.333 -28 73.333 -63.667 114 -107zM694 479l9.99902 0.00195312
c1.33301 -6 3 -15.667 5 -29s5.16699 -31.833 9.5 -55.5l12.5 -71.5c16.667 -90.667 45 -148.334 85 -173.001c27.333 -14.667 54.333 -22 81 -22h13v-128h-18c-59.333 0 -104 15.667 -134 47s-55 87.666 -75 168.999l-25 102h-5c-16 -32.667 -36.833 -59.167 -62.5 -79.5
s-54.167 -29.5 -85.5 -27.5c9.33301 -40 14 -86 14 -138c0 -16 -0.666992 -33.333 -2 -52c-4 -38.667 -23 -83.334 -57 -134.001c-32 -48 -66 -85.333 -102 -112s-67.667 -40 -95 -40c-40.667 0 -81 6.5 -121 19.5s-86.667 32.833 -140 59.5l14 32
c36 -16.667 67.333 -25 94 -25c102.667 0 194 47.333 274 142c54 63.333 81 110.333 81 141c-7.33301 19.333 -18.5 39.833 -33.5 61.5s-28 38.834 -39 51.501s-28.5 31.667 -52.5 57l33 128h9c30.667 -28 55 -49 73 -63c21.333 -14.667 49.333 -22 84 -22
c25.333 0 49 9 71 27c9.33301 7.33301 18.333 17.833 27 31.5s18.334 31.167 29.001 52.5s20 38.333 28 51z" />
    <glyph glyph-name="uni062B0645.init" unicode="&#xfe9b;&#xfee4;" horiz-adv-x="820" 
d="M548 739c-28.667 -40.667 -54 -71.334 -76 -92.001c-39.333 37.333 -78.333 72 -117 104c24.667 34.667 51 66.334 79 95.001c35.333 -28 73.333 -63.667 114 -107zM602 952c-28.667 -40.667 -54 -71.334 -76 -92.001c-39.333 37.333 -78.333 72 -117 104
c24.667 34.667 51 66.334 79 95.001c35.333 -28 73.333 -63.667 114 -107zM741 752c-28.667 -40.667 -54 -71.334 -76 -92.001c-39.333 37.333 -78.333 72 -117 104c24.667 34.667 51 66.334 79 95.001c35.333 -28 73.333 -63.667 114 -107zM0 128h8.99902
c48.667 0 91.667 6.16699 129 18.5s75.666 35.5 114.999 69.5c16.667 110 61 198.333 133 265c70.667 63.333 141.334 95 212.001 95c37.333 0 68.833 -9.33301 94.5 -28s38.5 -42.667 38.5 -72c0 -32.667 -6.66699 -66.334 -20 -101.001l-7 -1c-26 50 -67.333 75 -124 75
c-44 0 -88.667 -13 -134 -39c-64.667 -43.333 -104 -93.333 -118 -150l3 -3c35.333 16 69 24 101 24c54.667 0 98 -17.667 130 -53c32 -34 48 -74.333 48 -121c0 -42.667 -8 -80 -24 -112c-34.667 -65.333 -80.334 -98 -137.001 -98c-55.333 0 -102.666 23.333 -141.999 70
c-35.333 38.667 -53.333 81.334 -54 128.001h-5c-61.333 -63.333 -140.666 -95 -237.999 -95h-10c-24.667 -0 -42.5 6.83301 -53.5 20.5s-16.5 29.167 -16.5 46.5c0 15.333 5.66699 29.333 17 42s29 19 53 19zM324.999 148c8.66699 -38 28.333 -70.167 59 -96.5
s63.667 -39.5 99 -39.5c34.667 0 56 9.33301 64 28c0 35.333 -14.167 65.333 -42.5 90s-62.833 37 -103.5 37c-28 0 -53.333 -6.33301 -76 -19z" />
    <glyph glyph-name="uni062B0646.fina" unicode="&#xfe9c;&#xfee6;" horiz-adv-x="1120" 
d="M310 640c32.667 43.333 59.667 77.334 81 102.001c40 -29.333 80 -65 120 -107c-23.333 -38 -51 -70.667 -83 -98c-18 17.333 -57.333 51.666 -118 102.999zM873 689.001c-28.667 -40.667 -54 -71.334 -76 -92.001c-39.333 37.333 -78.333 72 -117 104
c24.667 34.667 51 66.334 79 95.001c35.333 -28 73.333 -63.667 114 -107zM927 902.001c-28.667 -40.667 -54 -71.334 -76 -92.001c-39.333 37.333 -78.333 72 -117 104c24.667 34.667 51 66.334 79 95.001c35.333 -28 73.333 -63.667 114 -107zM1066 702.001
c-28.667 -40.667 -54 -71.334 -76 -92.001c-39.333 37.333 -78.333 72 -117 104c24.667 34.667 51 66.334 79 95.001c35.333 -28 73.333 -63.667 114 -107zM904 489.001h9.99902c0.666992 -4 2.5 -13.333 5.5 -28s6.5 -33 10.5 -55l13 -71c18 -96 46 -156 84 -180
c33.333 -18 59.666 -27 78.999 -27h14v-128h-16c-58.667 0 -103.167 17 -133.5 51s-55.833 92 -76.5 174l-26 103h-5c-33.333 -67.333 -80.333 -102 -141 -104c20 -50 30 -112.667 30 -188c0 -60 -9.66699 -114 -29 -162c-26 -39.333 -61.333 -75 -106 -107
c-71.333 -45.333 -146.333 -68 -225 -68c-91.333 0 -163.666 29.167 -216.999 87.5s-80 134.5 -80 228.5c0 79.333 16.667 158 50 236l35 -13c-18 -60.667 -27 -115 -27 -163c0 -70.667 24 -128.5 72 -173.5s103.667 -67.5 167 -67.5c69.333 0 136.333 18.667 201 56
c69.333 47.333 104 88.666 104 123.999c0 24.667 -7.33301 58 -22 100c-16.667 46 -58.667 102.667 -126 170l36 130l10 1c31.333 -29.333 56 -50.666 74 -63.999c20 -14 47 -21 81 -21c26.667 0 50 8 70 24c9.33301 7.33301 18.333 17.833 27 31.5
s18.334 31.167 29.001 52.5s20 38.333 28 51z" />
    <glyph glyph-name="uni062B0649" unicode="&#xfe9b;&#xfef0;" horiz-adv-x="1004" 
d="M734 653l7.00098 -0.000976562c65.333 -128.667 98 -225.667 98 -291c0 -53.333 -18 -109.666 -54 -168.999c56.667 -13.333 94 -30.333 112 -51s27 -53 27 -97c0 -37.333 -13.667 -82.333 -41 -135c-137.333 -134.667 -287.333 -202 -450 -202
c-46 0 -90 8.66699 -132 26s-77.667 40 -107 68c-69.333 73.333 -104 162.666 -104 267.999c0 94.667 25 199.334 75 314.001l39 -15c-30 -84 -45 -154 -45 -210c0 -76 19.333 -141.667 58 -197c62 -76 138 -114 228 -114c109.333 0 205.333 25 288 75
c65.333 39.333 107.666 72.333 126.999 99c0 18 -32.333 34.833 -97 50.5s-137.334 26.5 -218.001 32.5l-7 9l48 104c92.667 14 152.667 38.333 180 73c-16 65.333 -51.333 149 -106 251c24.667 40 49.334 77 74.001 111zM674.001 818.999
c-28.667 -40.667 -54 -71.334 -76 -92.001c-39.333 37.333 -78.333 72 -117 104c24.667 34.667 51 66.334 79 95.001c35.333 -28 73.333 -63.667 114 -107zM728.001 1032c-28.667 -40.667 -54 -71.334 -76 -92.001c-39.333 37.333 -78.333 72 -117 104
c24.667 34.667 51 66.334 79 95.001c35.333 -28 73.333 -63.667 114 -107zM867.001 831.999c-28.667 -40.667 -54 -71.334 -76 -92.001c-39.333 37.333 -78.333 72 -117 104c24.667 34.667 51 66.334 79 95.001c35.333 -28 73.333 -63.667 114 -107z" />
    <glyph glyph-name="uni062B064A" unicode="&#xfe9b;&#xfef2;" horiz-adv-x="1004" 
d="M734 653l7.00098 -0.000976562c65.333 -128.667 98 -225.667 98 -291c0 -53.333 -18 -109.666 -54 -168.999c56.667 -13.333 94 -30.333 112 -51s27 -53 27 -97c0 -37.333 -13.667 -82.333 -41 -135c-137.333 -134.667 -287.333 -202 -450 -202
c-46 0 -90 8.66699 -132 26s-77.667 40 -107 68c-69.333 73.333 -104 162.666 -104 267.999c0 94.667 25 199.334 75 314.001l39 -15c-30 -84 -45 -154 -45 -210c0 -76 19.333 -141.667 58 -197c62 -76 138 -114 228 -114c109.333 0 205.333 25 288 75
c65.333 39.333 107.666 72.333 126.999 99c0 18 -32.333 34.833 -97 50.5s-137.334 26.5 -218.001 32.5l-7 9l48 104c92.667 14 152.667 38.333 180 73c-16 65.333 -51.333 149 -106 251c24.667 40 49.334 77 74.001 111zM680.001 -493.001
c-28.667 -40.667 -54 -71.334 -76 -92.001c-39.333 37.333 -78.333 72 -117 104c24.667 34.667 51 66.334 79 95.001c35.333 -28 73.333 -63.667 114 -107zM487.001 -506.001c-28.667 -40.667 -54 -71.334 -76 -92.001c-39.333 37.333 -78.333 72 -117 104
c24.667 34.667 51 66.334 79 95.001c35.333 -28 73.333 -63.667 114 -107zM674.001 818.999c-28.667 -40.667 -54 -71.334 -76 -92.001c-39.333 37.333 -78.333 72 -117 104c24.667 34.667 51 66.334 79 95.001c35.333 -28 73.333 -63.667 114 -107zM728.001 1032
c-28.667 -40.667 -54 -71.334 -76 -92.001c-39.333 37.333 -78.333 72 -117 104c24.667 34.667 51 66.334 79 95.001c35.333 -28 73.333 -63.667 114 -107zM867.001 831.999c-28.667 -40.667 -54 -71.334 -76 -92.001c-39.333 37.333 -78.333 72 -117 104
c24.667 34.667 51 66.334 79 95.001c35.333 -28 73.333 -63.667 114 -107z" />
    <glyph glyph-name="uni06430649" unicode="&#xfedb;&#xfef0;" horiz-adv-x="1116" 
d="M844 246c0 24.667 -22.999 68.998 -68.999 132.998c-63.333 86.667 -158.333 182.667 -285 288c-24 20 -36 50.667 -36 92c0 16.667 7 38 21 64c11.333 20 37 40.333 77 61c92 46.667 271.333 113.334 538 200.001l7 -8c-17.333 -32.667 -42.333 -73.667 -75 -123
c-52.667 -13.333 -106.334 -29.666 -161.001 -48.999c-99.333 -34.667 -209 -78.334 -329 -131.001v-3l164 -61l-23 -51c154 -154 231 -275.333 231 -364c0 -38.667 -5.16699 -73.167 -15.5 -103.5s-31.166 -58.5 -62.499 -84.5l-1 -4c35.333 -10 62.166 -25.333 80.499 -46
s27.5 -50 27.5 -88c0 -38.667 -13 -83 -39 -133c-72.667 -71.333 -149.834 -123.166 -231.501 -155.499s-159.834 -48.5 -234.501 -48.5c-46.667 0 -90.667 8.33301 -132 25s-76.666 38.667 -105.999 66c-70.667 74.667 -106 164 -106 268c0 95.333 25.333 201 76 317
l38 -17c-30.667 -82 -46 -152.333 -46 -211c0 -75.333 19.667 -141 59 -197c62 -75.333 138 -113 228 -113c100 0 196.333 24.667 289 74c80 42.667 129.333 76.667 148 102c0 16 -37.167 32 -111.5 48s-151.166 26.333 -230.499 31l-8 10l46 104
c78.667 11.333 143.667 27.5 195 48.5s77 40.833 77 59.5z" />
    <glyph glyph-name="uni06430649.fina" unicode="&#xfedc;&#xfef0;" horiz-adv-x="1343" 
d="M898 263c0 4 -0.664062 8.16406 -1.99707 12.4971s-3.5 9.33301 -6.5 15s-4.83301 9.83398 -5.5 12.501c-33.333 71.333 -115.666 172.666 -246.999 303.999c-32 33.333 -53 56 -63 68c-4.66699 26.667 -7 45 -7 55c0 25.333 9 54 27 86
c7.33301 13.333 19.333 25.666 36 36.999c84 54 289 132 615 234l4 -6c-20.667 -40.667 -46.334 -81.667 -77.001 -123c-52.667 -13.333 -129 -38 -229 -74c-144 -54 -245 -96.333 -303 -127v-3c36.667 -23.333 88 -49.333 154 -78l-30 -50
c90 -81.333 213 -213.333 369 -396c29.333 -34.667 59.166 -60.334 89.499 -77.001s64.833 -25 103.5 -25h17v-128h-20c-56 0 -102.833 13.333 -140.5 40s-77.167 67.334 -118.5 122.001c-44.667 59.333 -79 102 -103 128l-4 -1c-3.33301 -51.333 -13.666 -92 -30.999 -122
s-44.333 -54.667 -81 -74l1 -5c34 -13.333 57 -28.166 69 -44.499s18 -42.166 18 -77.499c0 -37.333 -13 -81 -39 -131c-72.667 -71.333 -149.834 -123.166 -231.501 -155.499s-159.834 -48.5 -234.501 -48.5c-46.667 0 -90.667 8.33301 -132 25s-76.666 38.667 -105.999 66
c-70.667 74.667 -106 164 -106 268c0 95.333 25.333 201 76 317l38 -17c-30.667 -82 -46 -152.333 -46 -211c0 -75.333 19.667 -141 59 -197c62 -75.333 138 -113 228 -113c100 0 196.333 24.667 289 74c81.333 43.333 130.666 76.666 147.999 99.999
c0 18.667 -32.833 35.834 -98.5 51.501s-136.834 24.834 -213.501 27.501l-7 10l45 106c82 12.667 151.667 30.5 209 53.5s86.333 46.833 87 71.5z" />
    <glyph glyph-name="uni0643064A" unicode="&#xfedb;&#xfef2;" horiz-adv-x="1116" 
d="M844 246c0 24.667 -22.999 68.998 -68.999 132.998c-63.333 86.667 -158.333 182.667 -285 288c-24 20 -36 50.667 -36 92c0 16.667 7 38 21 64c11.333 20 37 40.333 77 61c92 46.667 271.333 113.334 538 200.001l7 -8c-17.333 -32.667 -42.333 -73.667 -75 -123
c-52.667 -13.333 -106.334 -29.666 -161.001 -48.999c-99.333 -34.667 -209 -78.334 -329 -131.001v-3l164 -61l-23 -51c154 -154 231 -275.333 231 -364c0 -38.667 -5.16699 -73.167 -15.5 -103.5s-31.166 -58.5 -62.499 -84.5l-1 -4c35.333 -10 62.166 -25.333 80.499 -46
s27.5 -50 27.5 -88c0 -38.667 -13 -83 -39 -133c-72.667 -71.333 -149.834 -123.166 -231.501 -155.499s-159.834 -48.5 -234.501 -48.5c-46.667 0 -90.667 8.33301 -132 25s-76.666 38.667 -105.999 66c-70.667 74.667 -106 164 -106 268c0 95.333 25.333 201 76 317
l38 -17c-30.667 -82 -46 -152.333 -46 -211c0 -75.333 19.667 -141 59 -197c62 -75.333 138 -113 228 -113c100 0 196.333 24.667 289 74c80 42.667 129.333 76.667 148 102c0 16 -37.167 32 -111.5 48s-151.166 26.333 -230.499 31l-8 10l46 104
c78.667 11.333 143.667 27.5 195 48.5s77 40.833 77 59.5zM674.001 -553.002c-28.667 -40.667 -54 -71.334 -76 -92.001c-39.333 37.333 -78.333 72 -117 104c24.667 34.667 51 66.334 79 95.001c35.333 -28 73.333 -63.667 114 -107zM481.001 -566.002
c-28.667 -40.667 -54 -71.334 -76 -92.001c-39.333 37.333 -78.333 72 -117 104c24.667 34.667 51 66.334 79 95.001c35.333 -28 73.333 -63.667 114 -107z" />
    <glyph glyph-name="uni0643064A.fina" unicode="&#xfedc;&#xfef2;" horiz-adv-x="1343" 
d="M898 263c0 4 -0.664062 8.16406 -1.99707 12.4971s-3.5 9.33301 -6.5 15s-4.83301 9.83398 -5.5 12.501c-33.333 71.333 -115.666 172.666 -246.999 303.999c-32 33.333 -53 56 -63 68c-4.66699 26.667 -7 45 -7 55c0 25.333 9 54 27 86
c7.33301 13.333 19.333 25.666 36 36.999c84 54 289 132 615 234l4 -6c-20.667 -40.667 -46.334 -81.667 -77.001 -123c-52.667 -13.333 -129 -38 -229 -74c-144 -54 -245 -96.333 -303 -127v-3c36.667 -23.333 88 -49.333 154 -78l-30 -50
c90 -81.333 213 -213.333 369 -396c29.333 -34.667 59.166 -60.334 89.499 -77.001s64.833 -25 103.5 -25h17v-128h-20c-56 0 -102.833 13.333 -140.5 40s-77.167 67.334 -118.5 122.001c-44.667 59.333 -79 102 -103 128l-4 -1c-3.33301 -51.333 -13.666 -92 -30.999 -122
s-44.333 -54.667 -81 -74l1 -5c34 -13.333 57 -28.166 69 -44.499s18 -42.166 18 -77.499c0 -37.333 -13 -81 -39 -131c-72.667 -71.333 -149.834 -123.166 -231.501 -155.499s-159.834 -48.5 -234.501 -48.5c-46.667 0 -90.667 8.33301 -132 25s-76.666 38.667 -105.999 66
c-70.667 74.667 -106 164 -106 268c0 95.333 25.333 201 76 317l38 -17c-30.667 -82 -46 -152.333 -46 -211c0 -75.333 19.667 -141 59 -197c62 -75.333 138 -113 228 -113c100 0 196.333 24.667 289 74c81.333 43.333 130.666 76.666 147.999 99.999
c0 18.667 -32.833 35.834 -98.5 51.501s-136.834 24.834 -213.501 27.501l-7 10l45 106c82 12.667 151.667 30.5 209 53.5s86.333 46.833 87 71.5zM674.003 -553.003c-28.667 -40.667 -54 -71.334 -76 -92.001c-39.333 37.333 -78.333 72 -117 104
c24.667 34.667 51 66.334 79 95.001c35.333 -28 73.333 -63.667 114 -107zM481.003 -566.003c-28.667 -40.667 -54 -71.334 -76 -92.001c-39.333 37.333 -78.333 72 -117 104c24.667 34.667 51 66.334 79 95.001c35.333 -28 73.333 -63.667 114 -107z" />
    <glyph glyph-name="uni06440671" unicode="&#xfedf;&#xfb51;" horiz-adv-x="892" 
d="M742 1029l7.00098 -5.00195c-1.33301 -9.33301 -2 -16.333 -2 -21c0 -47.333 27 -115 81 -203c-22.667 -21.333 -43 -37.666 -61 -48.999c5.33301 -130 8 -249.667 8 -359c0 -62.667 -11 -127.667 -33 -195c-27.333 -78 -64.333 -134.333 -111 -169
c-34.667 -25.333 -75 -45.833 -121 -61.5s-89.333 -23.5 -130 -23.5c-68.667 0 -151 15.333 -247 46v11c199.333 26.667 348.666 70 447.999 130c-1.33301 12.667 -8.16602 30.667 -20.499 54s-24.5 44.666 -36.5 63.999l-56 86c-9.33301 14.667 -82 121.334 -218 320.001
c-66 96.667 -99 158.667 -99 186c0 19.333 15.333 51.333 46 96l5 1c27.333 -36 81.666 -94.333 162.999 -175l-32 -57l84 -131.5l91 -142c24.667 -39 45.667 -73.833 63 -104.5c28 -50 42.333 -108 43 -174l6 -1c53.333 38 80 98.667 80 182
c0 90.667 -8.66699 225.334 -26 404.001c-0.666992 12 -2.83398 36.833 -6.50098 74.5s-5.5 64.834 -5.5 81.501c0 29.333 7 53 21 71c10.667 15.333 30.334 36.666 59.001 63.999zM30.001 994.998l-6 3.00098l5 73c21.333 42 41 63 59 63c10 0 23 -4 39 -12
c61.333 86.667 117.333 130 168 130c28 0 51 -10 69 -30c18.667 -22 28 -52 28 -90c0 -34.667 -12.333 -64.334 -37 -89.001c-26.667 -25.333 -60.334 -38 -101.001 -38c-30 0 -57.833 3.83301 -83.5 11.5s-45.667 15.167 -60 22.5s-22.166 11 -23.499 11
c-10 0 -29 -18.333 -57 -55zM158.001 1105c33.333 -16 68.334 -24 105.001 -24c21.333 0 41.666 4.16699 60.999 12.5s29.333 18.833 30 31.5c-4.66699 16.667 -13.5 30.5 -26.5 41.5s-27.5 16.833 -43.5 17.5c-41.333 0 -83.333 -26.333 -126 -79z" />
    <glyph glyph-name="uni06440671.fina" unicode="&#xfee0;&#xfb51;" horiz-adv-x="918" 
d="M745 1032l8.00195 -3.00293c6.66699 -216.667 10 -412 10 -586c0 -106.667 8.66699 -181 26 -223c10.667 -25.333 27 -47 49 -65s46 -27 72 -27h8v-128h-19c-53.333 0 -101.166 23.833 -143.499 71.5s-63.5 115.834 -63.5 204.501l-7 1
c-32.667 -120 -105.334 -206 -218.001 -258c-68.667 -26.667 -136.667 -40 -204 -40l-109 10l-4 7c150 56.667 277 119 381 187c-16 92.667 -112 255.667 -288 489l-30 39l-29.5 39c-7 9.33301 -14.333 20 -22 32s-13.334 22.333 -17.001 31s-5.5 16.334 -5.5 23.001
c0 17.333 9 48 27 92h5c36.667 -37.333 99.667 -84.666 189 -141.999l-34 -59c62.667 -86 116 -166.667 160 -242c52.667 -91.333 79 -162.666 79 -213.999c0 -12.667 -1.33301 -33.667 -4 -63l3 -1c28.667 27.333 52.667 56 72 86c18.667 29.333 30 63.166 34 101.499
s6 106.5 6 204.5c0 29.333 -4.33301 145.333 -13 348c31.333 38.667 58.666 67 81.999 85zM30.002 994.997l-6 3.00098l5 73c21.333 42 41 63 59 63c10 0 23 -4 39 -12c61.333 86.667 117.333 130 168 130c28 0 51 -10 69 -30c18.667 -22 28 -52 28 -90
c0 -34.667 -12.333 -64.334 -37 -89.001c-26.667 -25.333 -60.334 -38 -101.001 -38c-30 0 -57.833 3.83301 -83.5 11.5s-45.667 15.167 -60 22.5s-22.166 11 -23.499 11c-10 0 -29 -18.333 -57 -55zM158.002 1105c33.333 -16 68.334 -24 105.001 -24
c21.333 0 41.666 4.16699 60.999 12.5s29.333 18.833 30 31.5c-4.66699 16.667 -13.5 30.5 -26.5 41.5s-27.5 16.833 -43.5 17.5c-41.333 0 -83.333 -26.333 -126 -79z" />
    <glyph glyph-name="uni06440645" unicode="&#xfedf;&#xfee2;" horiz-adv-x="804" 
d="M331 246c-46.667 -16.667 -86.9961 -39.332 -120.996 -67.999s-51 -55.334 -51 -80.001c0 -50 12.667 -116.667 38 -200l76 -244.5c25.333 -79.667 38 -140.167 38 -181.5c0 -34.667 -7.66699 -76 -23 -124h-17c0 33.333 -15.833 95.166 -47.5 185.499l-95 276.5
c-31.667 94 -47.5 162.333 -47.5 205c-0.666992 50 11 101.333 35 154c47.333 96 117.666 160 210.999 192c-11.333 184.667 -17 328 -17 430c0 12.667 -3 38.834 -9 78.501s-9 67.5 -9 83.5c0 34.667 9 62 27 82c13.333 16 32 33.333 56 52l10 -6
c-1.33301 -8 -2 -22 -2 -42c0 -33.333 28.667 -94.333 86 -183l-74 -48c0 -174 4.66699 -317 14 -429c30 8.66699 65 13 105 13c63.333 0 115.166 -17.667 155.499 -53s60.5 -83.333 60.5 -144c0 -58 -17.833 -107 -53.5 -147s-76.167 -60 -121.5 -60
c-30 0 -57.5 6 -82.5 18s-45.333 27 -61 45s-29.334 39.167 -41.001 63.5s-20.334 46.833 -26.001 67.5s-10.167 42 -13.5 64zM419.004 268.002c6.66699 -46 26.668 -84.334 60.001 -115.001s70.333 -46 111 -46c29.333 0 53.666 8.66699 72.999 26
c1.33301 30.667 -8 57.334 -28 80.001s-43 38.667 -69 48s-52.333 14 -79 14c-29.333 0 -52 -2.33301 -68 -7z" />
    <glyph glyph-name="uni06450627.fina" unicode="&#xfee4;&#xfe8e;" horiz-adv-x="1059" 
d="M344 128c32 0 61.6689 7.66602 89.002 22.999c8 4 15.333 8.66699 22 14s13.167 11.833 19.5 19.5l15.5 19c4 5 9.16699 13.167 15.5 24.5l13.5 24c2.66699 4.66699 7.5 14.334 14.5 29.001s11.833 24.334 14.5 29.001c30 60.667 60.333 111.667 91 153h10
c67.333 -88.667 130.666 -164.334 189.999 -227.001c68 -72 137.333 -108 208 -108h12v-128h-12c-42 -0 -78.667 8.33301 -110 25s-62.333 43 -93 79l-3 -1v-16c0 -64 -12.833 -114.5 -38.5 -151.5s-54.5 -55.5 -86.5 -55.5c-48 0 -92.333 21 -133 63
s-66.667 92.667 -78 152h-5c-42 -63.333 -98.667 -95 -170 -95c-61.333 -0 -111.333 19.333 -150 58c-28.667 29.333 -46.834 62.833 -54.501 100.5s-11.5 97.167 -11.5 178.5c0 156 -8.66699 356.333 -26 601c42 45.333 73.333 76.333 94 93l7 -4
c10.667 -146 16 -387.333 16 -724v-57c0 -53.333 25 -89 75 -107c20.667 -7.33301 42 -11 64 -11zM623.002 326.999l-4.99805 -0.000976562c-32.667 -61.333 -49 -106.666 -49 -135.999c0 -42 15.167 -82.167 45.5 -120.5s67.166 -57.5 110.499 -57.5
c13.333 0 25.666 7 36.999 21s17 31.333 17 52c0 27.333 -11.333 56.333 -34 87c-14 20 -35.667 48 -65 84z" />
    <glyph glyph-name="uni06450622.fina" unicode="&#xfee4;&#xfe82;" horiz-adv-x="1131" 
d="M416 128c32 0 61.6689 7.66602 89.002 22.999c8 4 15.333 8.66699 22 14s13.167 11.833 19.5 19.5l15.5 19c4 5 9.16699 13.167 15.5 24.5l13.5 24c2.66699 4.66699 7.5 14.334 14.5 29.001s11.833 24.334 14.5 29.001c30 60.667 60.333 111.667 91 153h10
c67.333 -88.667 130.666 -164.334 189.999 -227.001c68 -72 137.333 -108 208 -108h12v-128h-12c-42 -0 -78.667 8.33301 -110 25s-62.333 43 -93 79l-3 -1v-16c0 -64 -12.833 -114.5 -38.5 -151.5s-54.5 -55.5 -86.5 -55.5c-48 0 -92.333 21 -133 63
s-66.667 92.667 -78 152h-5c-42 -63.333 -98.667 -95 -170 -95c-61.333 -0 -111.333 19.333 -150 58c-28.667 29.333 -46.834 62.833 -54.501 100.5s-11.5 97.167 -11.5 178.5c0 156 -8.66699 356.333 -26 601c42 45.333 73.333 76.333 94 93l7 -4
c10.667 -146 16 -387.333 16 -724v-57c0 -53.333 25 -89 75 -107c20.667 -7.33301 42 -11 64 -11zM695.002 326.999l-4.99805 -0.000976562c-32.667 -61.333 -49 -106.666 -49 -135.999c0 -42 15.167 -82.167 45.5 -120.5s67.166 -57.5 110.499 -57.5
c13.333 0 25.666 7 36.999 21s17 31.333 17 52c0 27.333 -11.333 56.333 -34 87c-14 20 -35.667 48 -65 84zM464.004 1219l5 -5.00098c-15.333 -42.667 -25 -67.667 -29 -75c-38 -32 -84.667 -48 -140 -48c-22 0 -54.5 2.83301 -97.5 8.5s-72.167 8.5 -87.5 8.5
c-10 0 -27 -22.667 -51 -68c-1.33301 -2 -2.33301 -3.66699 -3 -5l-2 -4h-7l-34 61c0 28.667 7.16699 54.334 21.5 77.001s37.5 34 69.5 34c22.667 0 58 -5 106 -15s85 -15 111 -15c30.667 0 58 4.66699 82 14c20 8 38.667 18.667 56 32z" />
    <glyph glyph-name="uni06450623.fina" unicode="&#xfee4;&#xfe84;" horiz-adv-x="1103" 
d="M388 128c32 0 61.6689 7.66602 89.002 22.999c8 4 15.333 8.66699 22 14s13.167 11.833 19.5 19.5l15.5 19c4 5 9.16699 13.167 15.5 24.5l13.5 24c2.66699 4.66699 7.5 14.334 14.5 29.001s11.833 24.334 14.5 29.001c30 60.667 60.333 111.667 91 153h10
c67.333 -88.667 130.666 -164.334 189.999 -227.001c68 -72 137.333 -108 208 -108h12v-128h-12c-42 -0 -78.667 8.33301 -110 25s-62.333 43 -93 79l-3 -1v-16c0 -64 -12.833 -114.5 -38.5 -151.5s-54.5 -55.5 -86.5 -55.5c-48 0 -92.333 21 -133 63
s-66.667 92.667 -78 152h-5c-42 -63.333 -98.667 -95 -170 -95c-61.333 -0 -111.333 19.333 -150 58c-28.667 29.333 -46.834 62.833 -54.501 100.5s-11.5 97.167 -11.5 178.5c0 156 -8.66699 356.333 -26 601c42 45.333 73.333 76.333 94 93l7 -4
c10.667 -146 16 -387.333 16 -724v-57c0 -53.333 25 -89 75 -107c20.667 -7.33301 42 -11 64 -11zM667.002 326.999l-4.99805 -0.000976562c-32.667 -61.333 -49 -106.666 -49 -135.999c0 -42 15.167 -82.167 45.5 -120.5s67.166 -57.5 110.499 -57.5
c13.333 0 25.666 7 36.999 21s17 31.333 17 52c0 27.333 -11.333 56.333 -34 87c-14 20 -35.667 48 -65 84zM344.004 1169l0.000976562 -2.99902c-12.667 -26 -25.667 -48.667 -39 -68c-97.333 -15.333 -184 -40.333 -260 -75l-2 3l24 42c12.667 16 28 27 46 33v3
c-52 15.333 -78 44.333 -78 87c0 27.333 15.667 56.666 47 87.999c42.667 38 83 57 121 57c19.333 0 34.666 -4.83301 45.999 -14.5s17 -21.167 17 -34.5c0 -18 -10.667 -39.667 -32 -65h-2c-12 23.333 -22.667 36.333 -32 39c-7.33301 2 -17.666 3 -30.999 3
c-16.667 0 -32.5 -3.83301 -47.5 -11.5s-22.5 -15.5 -22.5 -23.5c0 -14.667 8.16699 -27.167 24.5 -37.5s34.666 -17.333 54.999 -21s41.5 -5.5 63.5 -5.5c22.667 0 56.667 1.33301 102 4z" />
    <glyph glyph-name="uni06450625.fina" unicode="&#xfee4;&#xfe88;" horiz-adv-x="1059" 
d="M361 -221l0.000976562 -2.99902c-12.667 -26 -25.667 -48.667 -39 -68c-97.333 -15.333 -184 -40.333 -260 -75l-2 3l24 42c12.667 16 28 27 46 33v3c-52 15.333 -78 44.333 -78 87c0 27.333 15.667 56.666 47 87.999c42.667 38 83 57 121 57
c19.333 0 34.666 -4.83301 45.999 -14.5s17 -21.167 17 -34.5c0 -18 -10.667 -39.667 -32 -65h-2c-12 23.333 -22.667 36.333 -32 39c-7.33301 2 -17.666 3 -30.999 3c-16.667 0 -32.5 -3.83301 -47.5 -11.5s-22.5 -15.5 -22.5 -23.5c0 -14.667 8.16699 -27.167 24.5 -37.5
s34.666 -17.333 54.999 -21s41.5 -5.5 63.5 -5.5c22.667 0 56.667 1.33301 102 4zM344.001 128.001c32 0 61.6689 7.66602 89.002 22.999c8 4 15.333 8.66699 22 14s13.167 11.833 19.5 19.5l15.5 19c4 5 9.16699 13.167 15.5 24.5l13.5 24
c2.66699 4.66699 7.5 14.334 14.5 29.001s11.833 24.334 14.5 29.001c30 60.667 60.333 111.667 91 153h10c67.333 -88.667 130.666 -164.334 189.999 -227.001c68 -72 137.333 -108 208 -108h12v-128h-12c-42 0 -78.667 8.33301 -110 25s-62.333 43 -93 79l-3 -1v-16
c0 -64 -12.833 -114.5 -38.5 -151.5s-54.5 -55.5 -86.5 -55.5c-48 0 -92.333 21 -133 63s-66.667 92.667 -78 152h-5c-42 -63.333 -98.667 -95 -170 -95c-61.333 0 -111.333 19.333 -150 58c-28.667 29.333 -46.834 62.833 -54.501 100.5s-11.5 97.167 -11.5 178.5
c0 156 -8.66699 356.333 -26 601c42 45.333 73.333 76.333 94 93l7 -4c10.667 -146 16 -387.333 16 -724v-57c0 -53.333 25 -89 75 -107c20.667 -7.33301 42 -11 64 -11zM623.003 327l-4.99805 -0.000976562c-32.667 -61.333 -49 -106.666 -49 -135.999
c0 -42 15.167 -82.167 45.5 -120.5s67.166 -57.5 110.499 -57.5c13.333 0 25.666 7 36.999 21s17 31.333 17 52c0 27.333 -11.333 56.333 -34 87c-14 20 -35.667 48 -65 84z" />
    <glyph glyph-name="uni06460631" unicode="&#xfee8;&#xfeae;" horiz-adv-x="910" 
d="M555 710c32.667 43.333 59.667 77.334 81 102.001c40 -29.333 80 -65 120 -107c-23.333 -38 -51 -70.667 -83 -98c-18 17.333 -57.333 51.666 -118 102.999zM694 479.001l9.99902 0.00195312c1.33301 -6 3 -15.667 5 -29s5.16699 -31.833 9.5 -55.5l12.5 -71.5
c16.667 -90.667 45 -148.334 85 -173.001c27.333 -14.667 54.333 -22 81 -22h13v-128h-18c-59.333 0 -104 15.667 -134 47s-55 87.666 -75 168.999l-25 102h-5c-16 -32.667 -36.833 -59.167 -62.5 -79.5s-54.167 -29.5 -85.5 -27.5c9.33301 -40 14 -86 14 -138
c0 -16 -0.666992 -33.333 -2 -52c-4 -38.667 -23 -83.334 -57 -134.001c-32 -48 -66 -85.333 -102 -112s-67.667 -40 -95 -40c-40.667 0 -81 6.5 -121 19.5s-86.667 32.833 -140 59.5l14 32c36 -16.667 67.333 -25 94 -25c102.667 0 194 47.333 274 142
c54 63.333 81 110.333 81 141c-7.33301 19.333 -18.5 39.833 -33.5 61.5s-28 38.834 -39 51.501s-28.5 31.667 -52.5 57l33 128h9c30.667 -28 55 -49 73 -63c21.333 -14.667 49.333 -22 84 -22c25.333 0 49 9 71 27c9.33301 7.33301 18.333 17.833 27 31.5
s18.334 31.167 29.001 52.5s20 38.333 28 51z" />
    <glyph glyph-name="uni06460645.init" unicode="&#xfee7;&#xfee4;" horiz-adv-x="810" 
d="M445 800c32.667 43.333 59.667 77.334 81 102.001c40 -29.333 80 -65 120 -107c-23.333 -38 -51 -70.667 -83 -98c-18 17.333 -57.333 51.666 -118 102.999zM0 128.001h8.99902c48.667 0 91.667 6.16699 129 18.5s75.666 35.5 114.999 69.5
c16.667 110 61 198.333 133 265c70.667 63.333 141.334 95 212.001 95c37.333 0 68.833 -9.33301 94.5 -28s38.5 -42.667 38.5 -72c0 -32.667 -6.66699 -66.334 -20 -101.001l-7 -1c-26 50 -67.333 75 -124 75c-44 0 -88.667 -13 -134 -39
c-64.667 -43.333 -104 -93.333 -118 -150l3 -3c35.333 16 69 24 101 24c54.667 0 98 -17.667 130 -53c32 -34 48 -74.333 48 -121c0 -42.667 -8 -80 -24 -112c-34.667 -65.333 -80.334 -98 -137.001 -98c-55.333 0 -102.666 23.333 -141.999 70
c-35.333 38.667 -53.333 81.334 -54 128.001h-5c-61.333 -63.333 -140.666 -95 -237.999 -95h-10c-24.667 0 -42.5 6.83301 -53.5 20.5s-16.5 29.167 -16.5 46.5c0 15.333 5.66699 29.333 17 42s29 19 53 19zM324.999 148.001c8.66699 -38 28.333 -70.167 59 -96.5
s63.667 -39.5 99 -39.5c34.667 0 56 9.33301 64 28c0 35.333 -14.167 65.333 -42.5 90s-62.833 37 -103.5 37c-28 0 -53.333 -6.33301 -76 -19z" />
    <glyph glyph-name="uni06460649" unicode="&#xfee7;&#xfef0;" horiz-adv-x="999" 
d="M734 653l7.00098 -0.000976562c65.333 -128.667 98 -225.667 98 -291c0 -53.333 -18 -109.666 -54 -168.999c56.667 -13.333 94 -30.333 112 -51s27 -53 27 -97c0 -37.333 -13.667 -82.333 -41 -135c-137.333 -134.667 -287.333 -202 -450 -202
c-46 0 -90 8.66699 -132 26s-77.667 40 -107 68c-69.333 73.333 -104 162.666 -104 267.999c0 94.667 25 199.334 75 314.001l39 -15c-30 -84 -45 -154 -45 -210c0 -76 19.333 -141.667 58 -197c62 -76 138 -114 228 -114c109.333 0 205.333 25 288 75
c65.333 39.333 107.666 72.333 126.999 99c0 18 -32.333 34.833 -97 50.5s-137.334 26.5 -218.001 32.5l-7 9l48 104c92.667 14 152.667 38.333 180 73c-16 65.333 -51.333 149 -106 251c24.667 40 49.334 77 74.001 111zM581.001 869.999
c32.667 43.333 59.667 77.334 81 102.001c40 -29.333 80 -65 120 -107c-23.333 -38 -51 -70.667 -83 -98c-18 17.333 -57.333 51.666 -118 102.999z" />
    <glyph glyph-name="uni0646064A" unicode="&#xfee7;&#xfef2;" horiz-adv-x="999" 
d="M734 653l7.00098 -0.000976562c65.333 -128.667 98 -225.667 98 -291c0 -53.333 -18 -109.666 -54 -168.999c56.667 -13.333 94 -30.333 112 -51s27 -53 27 -97c0 -37.333 -13.667 -82.333 -41 -135c-137.333 -134.667 -287.333 -202 -450 -202
c-46 0 -90 8.66699 -132 26s-77.667 40 -107 68c-69.333 73.333 -104 162.666 -104 267.999c0 94.667 25 199.334 75 314.001l39 -15c-30 -84 -45 -154 -45 -210c0 -76 19.333 -141.667 58 -197c62 -76 138 -114 228 -114c109.333 0 205.333 25 288 75
c65.333 39.333 107.666 72.333 126.999 99c0 18 -32.333 34.833 -97 50.5s-137.334 26.5 -218.001 32.5l-7 9l48 104c92.667 14 152.667 38.333 180 73c-16 65.333 -51.333 149 -106 251c24.667 40 49.334 77 74.001 111zM581.001 869.999
c32.667 43.333 59.667 77.334 81 102.001c40 -29.333 80 -65 120 -107c-23.333 -38 -51 -70.667 -83 -98c-18 17.333 -57.333 51.666 -118 102.999zM680.001 -493c-28.667 -40.667 -54 -71.334 -76 -92.001c-39.333 37.333 -78.333 72 -117 104
c24.667 34.667 51 66.334 79 95.001c35.333 -28 73.333 -63.667 114 -107zM487.001 -506c-28.667 -40.667 -54 -71.334 -76 -92.001c-39.333 37.333 -78.333 72 -117 104c24.667 34.667 51 66.334 79 95.001c35.333 -28 73.333 -63.667 114 -107z" />
    <glyph glyph-name="uni064A0631.fina" unicode="&#xfef4;&#xfeae;" horiz-adv-x="910" 
d="M694 479l9.99902 0.00195312c1.33301 -6 3 -15.667 5 -29s5.16699 -31.833 9.5 -55.5l12.5 -71.5c16.667 -90.667 45 -148.334 85 -173.001c27.333 -14.667 54.333 -22 81 -22h13v-128h-18c-59.333 0 -104 15.667 -134 47s-55 87.666 -75 168.999l-25 102h-5
c-16 -32.667 -36.833 -59.167 -62.5 -79.5s-54.167 -29.5 -85.5 -27.5c9.33301 -40 14 -86 14 -138c0 -16 -0.666992 -33.333 -2 -52c-4 -38.667 -23 -83.334 -57 -134.001c-32 -48 -66 -85.333 -102 -112s-67.667 -40 -95 -40c-40.667 0 -81 6.5 -121 19.5
s-86.667 32.833 -140 59.5l14 32c36 -16.667 67.333 -25 94 -25c102.667 0 194 47.333 274 142c54 63.333 81 110.333 81 141c-7.33301 19.333 -18.5 39.833 -33.5 61.5s-28 38.834 -39 51.501s-28.5 31.667 -52.5 57l33 128h9c30.667 -28 55 -49 73 -63
c21.333 -14.667 49.333 -22 84 -22c25.333 0 49 9 71 27c9.33301 7.33301 18.333 17.833 27 31.5s18.334 31.167 29.001 52.5s20 38.333 28 51zM853.999 -323.998c-28.667 -40.667 -54 -71.334 -76 -92.001c-39.333 37.333 -78.333 72 -117 104
c24.667 34.667 51 66.334 79 95.001c35.333 -28 73.333 -63.667 114 -107zM660.999 -336.998c-28.667 -40.667 -54 -71.334 -76 -92.001c-39.333 37.333 -78.333 72 -117 104c24.667 34.667 51 66.334 79 95.001c35.333 -28 73.333 -63.667 114 -107z" />
    <glyph glyph-name="uni064A0645.init" unicode="&#xfef3;&#xfee4;" horiz-adv-x="819" 
d="M541 -357c-28.667 -40.667 -54 -71.334 -76 -92.001c-39.333 37.333 -78.333 72 -117 104c24.667 34.667 51 66.334 79 95.001c35.333 -28 73.333 -63.667 114 -107zM734 -344c-28.667 -40.667 -54 -71.334 -76 -92.001c-39.333 37.333 -78.333 72 -117 104
c24.667 34.667 51 66.334 79 95.001c35.333 -28 73.333 -63.667 114 -107zM0 128h8.99902c48.667 0 91.667 6.16699 129 18.5s75.666 35.5 114.999 69.5c16.667 110 61 198.333 133 265c70.667 63.333 141.334 95 212.001 95c37.333 0 68.833 -9.33301 94.5 -28
s38.5 -42.667 38.5 -72c0 -32.667 -6.66699 -66.334 -20 -101.001l-7 -1c-26 50 -67.333 75 -124 75c-44 0 -88.667 -13 -134 -39c-64.667 -43.333 -104 -93.333 -118 -150l3 -3c35.333 16 69 24 101 24c54.667 0 98 -17.667 130 -53c32 -34 48 -74.333 48 -121
c0 -42.667 -8 -80 -24 -112c-34.667 -65.333 -80.334 -98 -137.001 -98c-55.333 0 -102.666 23.333 -141.999 70c-35.333 38.667 -53.333 81.334 -54 128.001h-5c-61.333 -63.333 -140.666 -95 -237.999 -95h-10c-24.667 -0 -42.5 6.83301 -53.5 20.5
s-16.5 29.167 -16.5 46.5c0 15.333 5.66699 29.333 17 42s29 19 53 19zM324.999 148c8.66699 -38 28.333 -70.167 59 -96.5s63.667 -39.5 99 -39.5c34.667 0 56 9.33301 64 28c0 35.333 -14.167 65.333 -42.5 90s-62.833 37 -103.5 37c-28 0 -53.333 -6.33301 -76 -19z" />
    <glyph glyph-name="uni064A0646.fina" unicode="&#xfef4;&#xfee6;" horiz-adv-x="1120" 
d="M904 489h9.99902c0.666992 -4 2.5 -13.333 5.5 -28s6.5 -33 10.5 -55l13 -71c18 -96 46 -156 84 -180c33.333 -18 59.666 -27 78.999 -27h14v-128h-16c-58.667 0 -103.167 17 -133.5 51s-55.833 92 -76.5 174l-26 103h-5c-33.333 -67.333 -80.333 -102 -141 -104
c20 -50 30 -112.667 30 -188c0 -60 -9.66699 -114 -29 -162c-26 -39.333 -61.333 -75 -106 -107c-71.333 -45.333 -146.333 -68 -225 -68c-91.333 0 -163.666 29.167 -216.999 87.5s-80 134.5 -80 228.5c0 79.333 16.667 158 50 236l35 -13c-18 -60.667 -27 -115 -27 -163
c0 -70.667 24 -128.5 72 -173.5s103.667 -67.5 167 -67.5c69.333 0 136.333 18.667 201 56c69.333 47.333 104 88.666 104 123.999c0 24.667 -7.33301 58 -22 100c-16.667 46 -58.667 102.667 -126 170l36 130l10 1c31.333 -29.333 56 -50.666 74 -63.999
c20 -14 47 -21 81 -21c26.667 0 50 8 70 24c9.33301 7.33301 18.333 17.833 27 31.5s18.334 31.167 29.001 52.5s20 38.333 28 51zM1074 -334c-28.667 -40.667 -54 -71.334 -76 -92.001c-39.333 37.333 -78.333 72 -117 104c24.667 34.667 51 66.334 79 95.001
c35.333 -28 73.333 -63.667 114 -107zM880.999 -347c-28.667 -40.667 -54 -71.334 -76 -92.001c-39.333 37.333 -78.333 72 -117 104c24.667 34.667 51 66.334 79 95.001c35.333 -28 73.333 -63.667 114 -107zM308.999 640c32.667 43.333 59.667 77.334 81 102.001
c40 -29.333 80 -65 120 -107c-23.333 -38 -51 -70.667 -83 -98c-18 17.333 -57.333 51.666 -118 102.999z" />
    <glyph glyph-name="T_h" unicode="Th" horiz-adv-x="1624" 
d="M1596 0l-323.001 0.00195312v41c42.667 3.33301 69.167 11.166 79.5 23.499s15.5 41.833 15.5 88.5v237c0 60 -11.833 104.667 -35.5 134s-59.5 43.666 -107.5 42.999c-26.667 0 -53.334 -6.33301 -80.001 -19s-49.667 -30.667 -69 -54v-341
c0 -46.667 5.16699 -75.834 15.5 -87.501s37.5 -19.834 81.5 -24.501v-41h-330v41c48 4.66699 77.5 12.834 88.5 24.501s16.5 41.834 16.5 90.501v730c-69.333 6.66699 -169.333 10 -300 10h-97v-708c0 -22.667 0.5 -40.667 1.5 -54s3.5 -25.833 7.5 -37.5
s8.66699 -20.167 14 -25.5s14.333 -10.166 27 -14.499s26 -7.5 40 -9.5s33.333 -3.66699 58 -5v-42h-430v42c35.333 2.66699 61.333 5.5 78 8.5s30.5 10.167 41.5 21.5s17.667 25 20 41s3.5 41 3.5 75v708h-87c-66.667 0 -111.834 -3.33301 -135.501 -10
s-41.834 -19.334 -54.501 -38.001c-17.333 -26.667 -34.333 -70.334 -51 -131.001h-43c8.66699 116.667 14.334 207 17.001 271h28c10.667 -16 21.667 -26.167 33 -30.5s29 -6.5 53 -6.5h632c58 0 96.5 2.66699 115.5 8s28.5 15.333 28.5 30v19
c30.667 4 73.334 15.667 128.001 35v-494c68.667 70 138.334 105.333 209.001 106c66 1.33301 117.833 -18.667 155.5 -60s56.5 -105.666 56.5 -192.999v-248c0 -48 5.33301 -78 16 -90s38.334 -19.667 83.001 -23v-41z" />
    <glyph glyph-name="f_b" unicode="fb" horiz-adv-x="1215" 
d="M683 591l110.998 45.9971c30.667 12 54.334 18 71.001 18c81.333 0 151.166 -29.667 209.499 -89s87.5 -131.333 87.5 -216c0 -104.667 -37.333 -192 -112 -262s-164 -105 -268 -105c-74.667 0 -150.667 17.333 -228 52v867c-16.667 18.667 -38.167 34.5 -64.5 47.5
s-53.166 19.5 -80.499 19.5c-38.667 0 -70 -17.667 -94 -53c-25.333 -38.667 -37.666 -111 -36.999 -217l2 -61h169c4.66699 -8 5.33398 -19 2.00098 -33s-10 -23.333 -20 -28h-151v-408c0 -52.667 6.5 -86 19.5 -100s48.167 -23.333 105.5 -28v-41h-357v41
c44 4.66699 72 13.334 84 26.001s18 42.334 18 89.001v421h-106l-6 17l42 44h70v32c0 45.333 5.33301 85 16 119c24 70 63 127.333 117 172c56 46 114.667 72.333 176 79c45.333 -1.33301 83.666 -13 114.999 -35c48 14.667 82 26.334 102 35.001l7 -9v-440z
M682.998 547.997l-0.000976562 -376c0 -18.667 2.33301 -35.667 7 -51c7.33301 -20 22.5 -38.833 45.5 -56.5s50.833 -26.5 83.5 -26.5c60.667 -1.33301 109.334 23 146.001 73s55 117 55 201c0 80 -22 143.667 -66 191s-97.333 71 -160 71c-46 0 -83 -8.66699 -111 -26z
" />
    <glyph glyph-name="f_f_b" unicode="ffb" horiz-adv-x="1618" 
d="M1088 1033l0.000976562 -440c34 12.667 71 27.667 111 45c24.667 11.333 48 17 70 17c81.333 0 151.166 -29.667 209.499 -89s87.5 -131.333 87.5 -216c0 -104.667 -37.833 -192 -113.5 -262s-165.5 -105 -269.5 -105c-72 0 -147.333 17.333 -226 52v865
c-16.667 21.333 -37.334 39 -62.001 53s-50.667 21 -78 21c-38 0 -69 -17 -93 -51c-25.333 -35.333 -39 -110.333 -41 -225v-60h169c4.66699 -7.33301 5.33398 -18 2.00098 -32s-9.33301 -23.667 -18 -29h-153v-424c0 -47.333 6.16699 -76.833 18.5 -88.5
s44.5 -20.167 96.5 -25.5v-39h-333v39c39.333 6 64 14.833 74 26.5s15 40.834 15 87.501v424h-276v-424c0 -46.667 5.5 -76 16.5 -88s38.5 -20.667 82.5 -26v-39h-329v41c45.333 4.66699 73.666 13 84.999 25s17 41 17 87v424h-106l-5 16l41 45h70v17
c0 37.333 6.66699 74.333 20 111c24 65.333 65.333 119.666 124 162.999c58.667 44 122 69.333 190 76c76.667 -2.66699 133.667 -26 171 -70c64 63.333 133.667 98.333 209 105c48.667 -1.33301 87.334 -13 116.001 -35c27.333 6 61 17.667 101 35zM554.001 638v26
c0 70 14.333 132.667 43 188c-15.333 24 -37 45 -65 63s-60 27 -96 27c-52 0 -91 -23.667 -117 -71c-26 -44 -39 -109.667 -39 -197v-36h274zM1088 548v-375c0 -20.667 3 -37.667 9 -51c6 -18.667 20.667 -37 44 -55s51.333 -27.333 84 -28
c56.667 -0.666992 104.167 23.5 142.5 72.5s57.5 115.833 57.5 200.5c0 81.333 -21.667 145 -65 191s-97 69 -161 69c-44 0 -81 -8 -111 -24z" />
    <glyph glyph-name="f_f" unicode="ff" horiz-adv-x="852" 
d="M146 638l-0.00195312 20c0 44.667 7.33301 83.667 22 117c23.333 62.667 61.666 114.667 114.999 156c60 45.333 122.333 71.333 187 78c78 -2 138 -26.667 180 -74c60.667 62 127 97.333 199 106c53.333 -2 95 -19.667 125 -53c13.333 -15.333 16 -32 8 -50
c-6 -13.333 -17.333 -26.333 -34 -39c-17.333 -14 -32.666 -13.667 -45.999 1c-42.667 42.667 -83.667 64 -123 64c-31.333 0 -56 -15 -74 -45c-19.333 -35.333 -28.666 -110.666 -27.999 -225.999l2 -55h177c4.66699 -6 5.83398 -16.333 3.50098 -31
s-7.83301 -24.667 -16.5 -30h-166v-426c0 -46.667 6.5 -75.834 19.5 -87.501s47.5 -20.167 103.5 -25.5v-38h-341v38c40 5.33301 65 14 75 26s15 41.667 15 89v424h-274v-426c0 -46 5.5 -75 16.5 -87s38.5 -20.667 82.5 -26v-38h-329v39c45.333 4.66699 73.5 13 84.5 25
s16.5 41 16.5 87v426h-107l-4 17l41 44h70zM548.998 638v31c0 42 4 77.333 12 106c5.33301 19.333 14.333 43 27 71c-16.667 27.333 -39.5 51 -68.5 71s-61.5 30 -97.5 30c-46 0 -81.333 -22 -106 -66c-27.333 -48.667 -41 -116.667 -41 -204v-39h274z" />
    <glyph glyph-name="f_h" unicode="fh" horiz-adv-x="1231" 
d="M1203 0l-322.999 -0.000976562v41c42.667 4.66699 69.334 13 80.001 25s16 41 16 87v237c0 118 -48 177 -144 177c-26.667 0 -53.5 -6.33301 -80.5 -19s-49.833 -30.667 -68.5 -54v-341c0 -45.333 5.33301 -74.166 16 -86.499s37 -20.833 79 -25.5v-41h-319v41
c42 4.66699 68.333 13 79 25s16 41 16 87v749c-16.667 19.333 -38.334 35.833 -65.001 49.5s-53.334 20.5 -80.001 20.5c-38.667 0 -70.667 -18 -96 -54c-22 -33.333 -33 -107.333 -33 -222v-58h167c4.66699 -8 5.33398 -19 2.00098 -33s-9.33301 -24 -18 -30h-151v-409
c0 -38 2.33301 -64.5 7 -79.5s12.667 -25.5 24 -31.5s32.333 -10.667 63 -14v-41h-324v41c44.667 5.33301 72.5 13.833 83.5 25.5s16.5 40.5 16.5 86.5v422h-103l-6 16l41 47h68v25c0 48 5.33301 89.667 16 125c23.333 68.667 61.666 125.334 114.999 170.001
c60 48 117.667 75.333 173 82c51.333 -0.666992 90.666 -12.334 117.999 -35.001c34 7.33301 68.667 19 104 35l7 -7v-482c30 30 63.5 54.667 100.5 74s73.5 29.333 109.5 30c66 1.33301 117.667 -18.667 155 -60s56 -105.666 56 -192.999v-248
c0 -47.333 5.33301 -76.833 16 -88.5s38.334 -19.834 83.001 -24.501v-41z" />
    <glyph glyph-name="f_f_h" unicode="ffh" horiz-adv-x="1634" 
d="M1607 0l-324.004 0.00195312v41c43.333 4.66699 70.166 12.667 80.499 24s15.5 40 15.5 86v239c0 120 -48 180 -144 180c-60 -2.66699 -109.333 -27.667 -148 -75v-344c0 -45.333 5.33301 -73.833 16 -85.5s37.334 -19.834 80.001 -24.501v-41h-318v41
c40.667 4.66699 66.334 13 77.001 25s16 41 16 87v749c-42 48 -89 72 -141 72c-44 0 -76 -18.333 -96 -55c-25.333 -36.667 -38 -110.334 -38 -221.001v-60h169c5.33301 -7.33301 6.33301 -18.166 3 -32.499s-9.66602 -23.833 -18.999 -28.5h-153v-426
c0 -44.667 5.83301 -73 17.5 -85s40.834 -20.333 87.501 -25v-41h-323v41c38.667 4.66699 63.167 13.167 73.5 25.5s15.5 41.166 15.5 86.499v424h-274v-424c0 -45.333 5.33301 -74 16 -86s37.667 -20.667 81 -26v-41h-325v41c42.667 4.66699 69.667 13.334 81 26.001
s17 41.334 17 86.001v424h-105l-4 16l41 45h68v17c0 34 7.33301 71 22 111c24 65.333 64.667 119.666 122 162.999c58.667 45.333 123.334 70.666 194.001 75.999c74 -2.66699 130.333 -26 169 -70c60.667 60.667 128 95.667 202 105c47.333 0 86.333 -11.667 117 -35
c36 7.33301 70.333 19 103 35l8 -7v-482c30 30 63.5 54.667 100.5 74s73.167 29.333 108.5 30c66 1.33301 118 -19 156 -61s57 -106.333 57 -193v-251c0 -45.333 5.5 -74 16.5 -86s38.167 -19.667 81.5 -23v-41zM553.996 638.002l0.00195312 27.999
c0 70.667 14.333 133.334 43 188.001c-14.667 23.333 -35.834 43.833 -63.501 61.5s-59.834 26.5 -96.501 26.5c-52.667 0 -92 -24.667 -118 -74c-26 -46 -39 -110.667 -39 -194v-36h274z" />
    <glyph glyph-name="f_f_i" unicode="ffi" horiz-adv-x="1209" 
d="M1183 0l-322.005 0.00292969v39c40.667 4.66699 66.167 12.667 76.5 24s15.5 39 15.5 83v351c0 36 -4 58.333 -12 67s-30 13 -66 13h-196v-431c0 -44 5.33301 -71.667 16 -83s37.667 -19.333 81 -24v-39h-319v39c42 4.66699 67.833 12.5 77.5 23.5s14.5 39.167 14.5 84.5
v430h-274v-426c0 -46.667 5.16699 -75.834 15.5 -87.501s37.833 -20.167 82.5 -25.5v-38h-325v39c44.667 4.66699 72.167 12.667 82.5 24s15.5 40.666 15.5 87.999v426h-105l-5 17l41 44h69v31c0 31.333 5.66699 66.666 17 105.999c24 63.333 66.667 118.333 128 165
c60.667 43.333 123 68 187 74c43.333 -1.33301 80.333 -9.5 111 -24.5s53.334 -33.167 68.001 -54.5c35.333 33.333 73 59 113 77s77.667 27.667 113 29c72 -0.666992 126.667 -24.334 164 -71.001c16 -20 19.333 -39 10 -57c-10 -17.333 -22 -30.333 -36 -39
c-18.667 -14.667 -35.667 -14.334 -51 0.999023c-0.666992 0.666992 -4.5 5.16699 -11.5 13.5l-14 16.5c-2.33301 2.66699 -7.16602 7.83398 -14.499 15.501s-13.333 13 -18 16l-19.5 13c-8.33301 5.66699 -16 9.83398 -23 12.501s-15.167 5 -24.5 7s-18.666 3 -27.999 3
c-40 0 -72.333 -19.667 -97 -59c-27.333 -39.333 -41 -110 -41 -212v-63h124c124.667 0 217.334 6.33301 278.001 19v-511c0 -44 5.33301 -71.5 16 -82.5s39.334 -19.167 86.001 -24.5v-39zM548.995 638.003l0.000976562 41c0 35.333 5 69.666 15 102.999
c8 27.333 17 50.333 27 69c-16 26.667 -38.5 49.834 -67.5 69.501s-61.833 29.5 -98.5 29.5c-48.667 0 -85.334 -22.333 -110.001 -67c-26.667 -48 -40 -115.667 -40 -203v-42h274z" />
    <glyph glyph-name="f_j" unicode="fj" horiz-adv-x="791" 
d="M280 638l123.002 -0.00195312c126 0 219.333 6.33301 280 19v-494c0 -94 -11.667 -172.667 -35 -236c-24 -64 -53 -120.667 -87 -170s-65 -87.666 -93 -114.999c-14.667 -12.667 -29 -19 -43 -19c-11.333 0 -23.333 6.33301 -36 19s-19 27.667 -19 45
c0 16.667 10.333 28.334 31 35.001c56 14 90.667 30.333 104 49c18.667 22 31.334 59.333 38.001 112c7.33301 64 11 161.667 11 293v319c0 36 -4.16699 58.667 -12.5 68s-30.5 14 -66.5 14h-195v-431c0 -44 5.66699 -71.667 17 -83s40.666 -19.333 87.999 -24v-39h-340v39
c48.667 5.33301 78.5 13.5 89.5 24.5s16.5 38.5 16.5 82.5v431h-107l-6 17l42 44h71v36c0 42.667 7 82.667 21 120c24.667 68 65 123.667 121 167c62 48 125 74.333 189 79c40.667 -1.33301 74.667 -9.16602 102 -23.499s47.333 -29.833 60 -46.5c14 -22 17 -42 9 -60
c-8.66699 -14 -20.334 -26 -35.001 -36c-20.667 -10.667 -36 -10.334 -46 0.999023c-50.667 61.333 -103.334 92 -158.001 92c-40 0 -70.667 -19.333 -92 -58c-28 -45.333 -42 -118.333 -42 -219v-52z" />
    <glyph glyph-name="f_f_j" unicode="ffj" horiz-adv-x="1194" 
d="M682 638l124.998 -0.00195312c123.333 0 216 6.33301 278 19l2 -492c0 -96.667 -11.667 -175.334 -35 -236.001c-23.333 -64.667 -53.166 -123.667 -89.499 -177s-66.833 -90.666 -91.5 -111.999c-15.333 -11.333 -29 -17 -41 -17
c-11.333 0 -23.166 6.83301 -35.499 20.5s-18.5 29.167 -18.5 46.5s10.333 29 31 35c54 12.667 88.333 29 103 49c16.667 22 28 58 34 108c8.66699 67.333 13 163 13 287l-1 326c0 36.667 -3.66699 59.5 -11 68.5s-29 13.5 -65 13.5h-198v-431c0 -44 5.5 -71.5 16.5 -82.5
s41.167 -19.167 90.5 -24.5v-39h-330v39c42.667 4.66699 69.167 12.667 79.5 24s15.5 39.333 15.5 84v430h-274v-426c0 -46.667 5 -75.834 15 -87.501s37.333 -20.167 82 -25.5v-38h-326v39c44 4.66699 71.5 13 82.5 25s16.5 41 16.5 87v426h-106l-5 17l41 44h70v31
c0 32 6.33301 66.333 19 103c23.333 66 64.666 121 123.999 165c60 43.333 123 68.333 189 75c43.333 -1.33301 80.333 -9.66602 111 -24.999s53 -33.666 67 -54.999c35.333 33.333 73 59.333 113 78s77 29 111 31c69.333 -1.33301 124.333 -25 165 -71
c14 -20 16.667 -39 8 -57c-8 -16 -19.333 -29.333 -34 -40c-20 -13.333 -37 -12.666 -51 2.00098c-0.666992 0.666992 -6 6.5 -16 17.5s-17 18.333 -21 22s-11.333 10 -22 19s-20.167 15.5 -28.5 19.5s-18.666 7.83301 -30.999 11.5s-24.833 5.5 -37.5 5.5
c-38 0 -69.333 -19.333 -94 -58c-26.667 -40.667 -40 -111 -40 -211v-63zM553.998 637.998v41c0 40.667 4.66699 76 14 106c7.33301 22.667 16.666 43.667 27.999 63c-16 26.667 -39 50 -69 70s-63 30 -99 30c-49.333 0 -85.666 -22.333 -108.999 -67
c-26 -44.667 -39 -111.667 -39 -201v-42h274z" />
    <glyph glyph-name="f_k" unicode="fk" horiz-adv-x="1175" 
d="M1202 0l-208.996 -3.00098l-65.5 72.5l-57 66l-67 81l-56.5 68.5c-15.333 20 -29 30 -41 30c-7.33301 0.666992 -15.333 0 -24 -2v-157c0 -48 6 -78 18 -90s41.667 -20.333 89 -25v-41h-336v41c45.333 4.66699 73.5 13 84.5 25s16.5 42 16.5 90v749
c-40 43.333 -87.333 65 -142 65c-44 0 -76.333 -18.333 -97 -55c-25.333 -44 -37.666 -117 -36.999 -219l2 -58h167c4.66699 -6 5.5 -16.667 2.5 -32s-8.5 -25.666 -16.5 -30.999h-153v-406c0 -38 2.33301 -64.833 7 -80.5s13 -26.667 25 -33s33.667 -11.166 65 -14.499v-41
h-329v41c45.333 5.33301 73.666 14.166 84.999 26.499s17 41.833 17 88.5v419h-106l-5 16l40 47h71v25c0 46 5.33301 87.667 16 125c22 66.667 61.333 123.334 118 170.001c59.333 48 116 75.333 170 82c51.333 -1.33301 90.333 -12.333 117 -33
c37.333 6.66699 71.666 17.667 102.999 33l8 -7v-682c36 8 67 25 93 51c36.667 35.333 71.667 78 105 128c16 22 21.667 37.333 17 46s-24 14.667 -58 18v40l309 13v-40c-47.333 -6.66699 -83.5 -15.5 -108.5 -26.5s-52.5 -29.167 -82.5 -54.5
c-20.667 -19.333 -63.334 -65.666 -128.001 -138.999c17.333 -24.667 54.166 -69.334 110.499 -134.001s97.166 -109.334 122.499 -134.001c28 -27.333 51.667 -46.833 71 -58.5s42.333 -18.167 69 -19.5v-41z" />
    <glyph glyph-name="f_f_k" unicode="ffk" horiz-adv-x="1579" 
d="M1605 0l-207.001 -3.00195l-79.5 88l-92.5 109.5l-75 90.5c-16.667 20 -30.334 30 -41.001 30c-7.33301 0.666992 -15.666 0 -24.999 -2v-159c0 -46.667 6.16699 -76 18.5 -88s42.5 -20.333 90.5 -25v-41h-335v41c44 4.66699 71.333 12.834 82 24.501s16 41.167 16 88.5
v746c-41.333 48.667 -88 73 -140 73c-41.333 0 -73 -17.333 -95 -52c-26 -39.333 -39 -113.666 -39 -222.999v-60h169c4.66699 -7.33301 5.33398 -18.166 2.00098 -32.499s-9.33301 -23.833 -18 -28.5h-153v-428c0 -44.667 5.66699 -72.5 17 -83.5s40.333 -19.167 87 -24.5
v-41h-325v41c40.667 5.33301 66.167 13.666 76.5 24.999s15.5 39 15.5 83v428h-276v-426c0 -44.667 5.5 -72.834 16.5 -84.501s38.5 -20.167 82.5 -25.5v-41h-329v42c45.333 4.66699 73.666 12.834 84.999 24.501s17 39.834 17 84.501v426h-106l-6 14l42 47h70v16
c0 32.667 7.33301 71 22 115c24.667 63.333 65 116.333 121 159c59.333 46 124.666 71.667 195.999 77c76 -2.66699 132 -26 168 -70c60.667 60.667 129 95.667 205 105c47.333 -1.33301 84.666 -12.333 111.999 -33c38.667 6 73.667 17 105 33l6 -7v-682c36 8 67 25 93 51
c15.333 14 33.5 33.833 54.5 59.5s37.5 47.5 49.5 65.5c14.667 22 19.167 37.667 13.5 47s-24.167 15.666 -55.5 18.999v41l311 13v-40c-45.333 -6 -81.166 -15.167 -107.499 -27.5s-54.166 -31.166 -83.499 -56.499c-30 -26.667 -72 -72 -126 -136
c16.667 -24.667 52.834 -68.834 108.501 -132.501s96.5 -108.167 122.5 -133.5c29.333 -28 53.5 -47.833 72.5 -59.5s41.5 -18.5 67.5 -20.5v-41zM553.999 637.998l-0.00292969 27.999c0 68.667 14.333 131.334 43 188.001c-15.333 23.333 -37.166 43.833 -65.499 61.5
s-60.166 26.5 -95.499 26.5c-49.333 0 -88.666 -24.667 -117.999 -74c-25.333 -40 -38 -104.667 -38 -194v-36h274z" />
    <glyph glyph-name="f_f_l" unicode="ffl" horiz-adv-x="1213" 
d="M1190 0l-323.002 -0.00195312v39c40 4.66699 65 12.667 75 24s15 39 15 83v759c-12 20 -29.833 36.833 -53.5 50.5s-49.167 20.5 -76.5 20.5c-41.333 0 -74.666 -16 -99.999 -48c-29.333 -36.667 -44 -108.667 -44 -216v-74h173c4.66699 -6 5.33398 -16.5 2.00098 -31.5
s-9.33301 -24.833 -18 -29.5h-155l-2 -430c0 -44.667 5.33301 -72.667 16 -84s38 -19.333 82 -24v-39h-321v39c42 4.66699 68.167 12.834 78.5 24.501s15.5 39.5 15.5 83.5v430h-274v-426c0 -46 5.16699 -74.833 15.5 -86.5s37.166 -20.167 80.499 -25.5v-39h-325v39
c44 4.66699 71.5 13 82.5 25s16.5 41 16.5 87v426h-103l-6 17l41 44h68v29c0 38 6.66699 73.333 20 106c23.333 61.333 63.666 114.333 120.999 159c60.667 46.667 126 72.334 196 77.001c76.667 -2 135.334 -26 176.001 -72c64.667 64.667 134 99 208 103
c50.667 0.666992 96 -11.333 136 -36c14.667 6 36.334 17.667 65.001 35l13 -9v-884c0 -44 5.5 -71.667 16.5 -83s40.5 -19.333 88.5 -24v-39zM553.998 637.998v31c0 45.333 5.33301 85.333 16 120c2 8 11 30 27 66c-14.667 25.333 -36.5 46.5 -65.5 63.5
s-61.833 25.5 -98.5 25.5c-51.333 0 -90.333 -23 -117 -69c-24 -45.333 -36 -111.333 -36 -198v-39h274z" />
    <glyph glyph-name="f_t" unicode="ft" horiz-adv-x="881" 
d="M875 52l-104.001 -50.9971c-24 -12 -45 -18 -63 -18c-102.667 0 -154 58 -154 174v420h-274v-424c0 -46.667 5.5 -75.834 16.5 -87.501s41.167 -19.834 90.5 -24.501v-41h-342v41c47.333 5.33301 76.666 13.833 87.999 25.5s17 39.834 17 84.501v426h-106l-8 17l41 44h73
v36c0 41.333 5.33301 79.666 16 114.999c20.667 68.667 60.334 126.667 119.001 174c56.667 44.667 112.334 70.334 167.001 77.001c48 -0.666992 86.667 -15.667 116 -45c16 -18.667 19 -37.667 9 -57c-8 -16 -20.333 -29 -37 -39
c-12.667 -8.66699 -25 -7.33398 -37 3.99902c-14 15.333 -32.5 28.666 -55.5 39.999s-43.833 17 -62.5 17c-32.667 0 -58.667 -14.667 -78 -44c-22 -33.333 -31.667 -112.333 -29 -237l2 -41h274v98l109 102l20 -6v-194h166c7.33301 -7.33301 10 -18 8 -32
s-8 -23.667 -18 -29h-156v-367c0 -52.667 8.66699 -89.5 26 -110.5s38 -31.5 62 -31.5c24.667 0 54.667 8.33301 90 25z" />
    <glyph glyph-name="f_f_t" unicode="fft" horiz-adv-x="1289" 
d="M1279 52l-106 -52.001c-24.667 -11.333 -45.334 -17 -62.001 -17c-102 0 -153 58 -153 174v421h-275v-429c0 -46 6 -74.5 18 -85.5s43.333 -19.167 94 -24.5v-39h-330v39c39.333 5.33301 64 13.833 74 25.5s15 40.167 15 85.5v428h-274v-429
c0 -45.333 5.33301 -73.666 16 -84.999s38.334 -19.666 83.001 -24.999v-39h-332v41c46 4.66699 74.667 12.667 86 24s17 39.333 17 84v429h-106l-6 16l41 44h71v17c0 38.667 6.66699 75.334 20 110.001c24 63.333 65 117.666 123 162.999c60 46 125 71.667 195 77
c74.667 -2.66699 131 -26.334 169 -71.001c60.667 61.333 126.667 96.666 198 105.999c49.333 -0.666992 88.666 -15.667 117.999 -45c16 -18.667 19 -37 9 -55s-22.667 -32.333 -38 -43c-12 -6.66699 -23.667 -4.66699 -35 6c-40 40 -80.333 60 -121 60
c-31.333 0 -56.666 -15.667 -75.999 -47c-20 -35.333 -29.667 -112 -29 -230v-48h275v95l110 103l19 -4v-194h167c7.33301 -7.33301 10 -17.666 8 -30.999s-8 -23 -18 -29h-157v-368c0 -52.667 8.5 -89.5 25.5 -110.5s37.5 -31.5 61.5 -31.5c26.667 0 56.667 8.33301 90 25z
M554 637.999l-0.000976562 28.999c0 70.667 14 132.334 42 185.001c-15.333 23.333 -37.166 44 -65.499 62s-59.833 27 -94.5 27c-48 0 -87 -22 -117 -66c-27.333 -44 -41 -111 -41 -201v-36h276z" />
    <glyph glyph-name="uniFEEA.UYG" unicode="&#x647;" horiz-adv-x="764" arabic-form="final" 
d="M61 -66l-16.0029 10.001c20.667 40 46.334 80 77.001 120c12.667 16.667 26.834 28.167 42.501 34.5s41.834 12.166 78.501 17.499c27.333 120.667 45.333 195.667 54 225c27.333 98.667 65.333 184.334 114 257.001l9 3c4.66699 -10.667 17 -30.667 37 -60
c43.333 -61.333 76 -113.833 98 -157.5s33 -84.834 33 -123.501c0 -48 -6.33301 -92 -19 -132h195v-128h-26c-34.667 -0 -62.667 3.33301 -84 10l-5 -2c27.333 -44.667 41 -89.667 41 -135c0 -46 -10.667 -86 -32 -120c-15.333 -26 -36.833 -48.167 -64.5 -66.5
s-56.167 -27.5 -85.5 -27.5c-54 0 -101.333 13.333 -142 40c-41.333 26 -74.333 62.5 -99 109.5s-37 96.167 -37 147.5v40c-49.333 -6 -86 -13.833 -110 -23.5s-43.667 -22.5 -59 -38.5zM288.997 3.00098c2.66699 -48 23.668 -94.333 63.001 -139
c26.667 -30.667 57.167 -55 91.5 -73s67.5 -27 99.5 -27c18.667 0 33 4.5 43 13.5s15 20.833 15 35.5c0 43.333 -13 83.333 -39 120c-36.667 52 -90 78 -160 78c-34.667 0 -72.334 -2.66699 -113.001 -8zM298.998 121.001c80 7.33301 132.332 14.333 156.999 21
c44 12 66 29 66 51c0 28.667 -10.5 61.667 -31.5 99s-51.833 84.666 -92.5 141.999h-5c-31.333 -91.333 -62.666 -195.666 -93.999 -312.999z" />
    <glyph glyph-name="uni0672.fina" unicode="&#x672;" horiz-adv-x="507" 
d="M507 128v-128.002h-11c-76 0 -133 19 -171 57c-28 28.667 -45.333 61.334 -52 98.001s-10 97.334 -10 182.001c0 156 -8.66699 356.333 -26 601c42 45.333 73.333 76.333 94 93l7 -4c10.667 -146 16 -387.333 16 -724v-57c0 -53.333 25 -89 75 -107
c20.667 -7.33301 42 -11 64 -11h14zM381 1236l-9 1.00098c-9.33301 29.333 -27 44 -53 44c-17.333 0 -34.333 -3.83301 -51 -11.5s-25 -15.834 -25 -24.501c0 -18 10.667 -32.833 32 -44.5s44 -17.5 68 -17.5c28 0 74 9.66699 138 29l2 -5
c-16 -27.333 -34.333 -55.666 -55 -84.999c-77.333 -16.667 -138 -41 -182 -73c-18.667 -14 -33.667 -21.667 -45 -23c-4 -0.666992 -8.33301 -1 -13 -1c-14 0 -31.667 6.5 -53 19.5s-37.333 19.5 -48 19.5c-16 0 -32.333 -10 -49 -30l-20 23
c38.667 55.333 75.334 83 110.001 83c12.667 0 29.5 -6.16699 50.5 -18.5s35.167 -18.5 42.5 -18.5c14 0 26 4.33301 36 13v4c-50.667 21.333 -76 50.666 -76 87.999c0 24.667 15.667 52.667 47 84c39.333 38 78.666 57 117.999 57c17.333 0 32.333 -4.5 45 -13.5
s19 -22.167 19 -39.5c0 -14 -9.66699 -34 -29 -60z" />
    <glyph glyph-name="uni0673.fina" unicode="&#x673;" horiz-adv-x="462" 
d="M462 128v-128.002h-11c-76 0 -133 19 -171 57c-28 28.667 -45.333 61.334 -52 98.001s-10 97.334 -10 182.001c0 156 -8.66699 356.333 -26 601c42 45.333 73.333 76.333 94 93l7 -4c10.667 -146 16 -387.333 16 -724v-57c0 -53.333 25 -89 75 -107
c20.667 -7.33301 42 -11 64 -11h14zM366 -167.002l-9 1.00098c-9.33301 29.333 -27 44 -53 44c-17.333 0 -34.333 -3.83301 -51 -11.5s-25 -15.834 -25 -24.501c0 -18 10.667 -32.833 32 -44.5s44 -17.5 68 -17.5c28 0 74 9.66699 138 29l2 -5
c-16 -27.333 -34.333 -55.666 -55 -84.999c-77.333 -16.667 -138 -41 -182 -73c-18.667 -14 -33.667 -21.667 -45 -23c-4 -0.666992 -8.33301 -1 -13 -1c-14 0 -31.667 6.5 -53 19.5s-37.333 19.5 -48 19.5c-16 0 -32.333 -10 -49 -30l-20 23
c38.667 55.333 75.334 83 110.001 83c12.667 0 29.5 -6.16699 50.5 -18.5s35.167 -18.5 42.5 -18.5c14 0 26 4.33301 36 13v4c-50.667 21.333 -76 50.666 -76 87.999c0 24.667 15.667 52.667 47 84c39.333 38 78.666 57 117.999 57c17.333 0 32.333 -4.5 45 -13.5
s19 -22.167 19 -39.5c0 -14 -9.66699 -34 -29 -60z" />
    <glyph glyph-name="uni0675.fina" unicode="&#x675;" horiz-adv-x="568" 
d="M561 1169l0.000976562 -2.99902c-12.667 -26 -25.667 -48.667 -39 -68c-97.333 -15.333 -184 -40.333 -260 -75l-2 3l24 42c12.667 16 28 27 46 33v3c-52 15.333 -78 44.333 -78 87c0 27.333 15.667 56.666 47 87.999c42.667 38 83 57 121 57
c19.333 0 34.666 -4.83301 45.999 -14.5s17 -21.167 17 -34.5c0 -18 -10.667 -39.667 -32 -65h-2c-12 23.333 -22.667 36.333 -32 39c-7.33301 2 -17.666 3 -30.999 3c-16.667 0 -32.5 -3.83301 -47.5 -11.5s-22.5 -15.5 -22.5 -23.5c0 -14.667 8.16699 -27.167 24.5 -37.5
s34.666 -17.333 54.999 -21s41.5 -5.5 63.5 -5.5c22.667 0 56.667 1.33301 102 4zM568.001 128.001v-128.002h-221c-76 0 -133 19 -171 57c-28 28.667 -45.333 61.334 -52 98.001s-10 97.334 -10 182.001c0 156 -8.66699 356.333 -26 601c42 45.333 73.333 76.333 94 93
l7 -4c10.667 -146 16 -387.333 16 -724v-57c0 -53.333 25 -89 75 -107c20.667 -7.33301 42 -11 64 -11h224z" />
    <glyph glyph-name="uni0676.fina" unicode="&#x676;" horiz-adv-x="827" 
d="M601 128h225.999v-128h-220c-5.33301 -66 -31.666 -134.667 -78.999 -206c-37.333 -55.333 -78.666 -97.5 -123.999 -126.5s-83.333 -43.5 -114 -43.5c-82.667 0 -178.667 33.667 -288 101l17 33c44.667 -24 93.667 -36 147 -36c94.667 0 187.334 46 278.001 138
c52 53.333 83.333 100 94 140h-51c-204 -0 -306 68.333 -306 205c0 59.333 17 113 51 161c44 64 95.333 96 154 96c47.333 0 91.666 -30.667 132.999 -92s68.666 -142 81.999 -242zM532.999 128c-11.333 59.333 -34.668 108.001 -70.001 146.001
c-33.333 37.333 -68.666 56 -105.999 56c-27.333 0 -53 -9.5 -77 -28.5s-36 -38.833 -36 -59.5c0 -44.667 36.333 -77.334 109 -98.001c40 -10.667 100 -16 180 -16zM821.997 719.001l0.000976562 -2.99902c-12.667 -26 -25.667 -48.667 -39 -68
c-97.333 -15.333 -184 -40.333 -260 -75l-2 3l24 42c12.667 16 28 27 46 33v3c-52 15.333 -78 44.333 -78 87c0 27.333 15.667 56.666 47 87.999c42.667 38 83 57 121 57c19.333 0 34.666 -4.83301 45.999 -14.5s17 -21.167 17 -34.5c0 -18 -10.667 -39.667 -32 -65h-2
c-12 23.333 -22.667 36.333 -32 39c-7.33301 2 -17.666 3 -30.999 3c-16.667 0 -32.5 -3.83301 -47.5 -11.5s-22.5 -15.5 -22.5 -23.5c0 -14.667 8.16699 -27.167 24.5 -37.5s34.666 -17.333 54.999 -21s41.5 -5.5 63.5 -5.5c22.667 0 56.667 1.33301 102 4z" />
    <glyph glyph-name="uni0677.fina" unicode="&#x677;" horiz-adv-x="865" 
d="M639 128h225.999v-128h-220c-5.33301 -66 -31.666 -134.667 -78.999 -206c-37.333 -55.333 -78.666 -97.5 -123.999 -126.5s-83.333 -43.5 -114 -43.5c-82.667 0 -178.667 33.667 -288 101l17 33c44.667 -24 93.667 -36 147 -36c94.667 0 187.334 46 278.001 138
c52 53.333 83.333 100 94 140h-51c-204 -0 -306 68.333 -306 205c0 59.333 17 113 51 161c44 64 95.333 96 154 96c47.333 0 91.666 -30.667 132.999 -92s68.666 -142 81.999 -242zM570.999 128c-11.333 59.333 -34.668 108.001 -70.001 146.001
c-33.333 37.333 -68.666 56 -105.999 56c-27.333 0 -53 -9.5 -77 -28.5s-36 -38.833 -36 -59.5c0 -44.667 36.333 -77.334 109 -98.001c40 -10.667 100 -16 180 -16zM859.997 719.001l0.00195312 -2.99902c-12.667 -26 -25.667 -48.667 -39 -68
c-97.333 -15.333 -184 -40.333 -260 -75l-2 3l24 42c12.667 16 28 27 46 33v3c-52 15.333 -78 44.333 -78 87c0 27.333 15.667 56.666 47 87.999c42.667 38 83 57 121 57c19.333 0 34.666 -4.83301 45.999 -14.5s17 -21.167 17 -34.5c0 -18 -10.667 -39.667 -32 -65h-2
c-12 23.333 -22.667 36.333 -32 39c-6.66699 2 -17 3 -31 3c-16.667 0 -32.5 -3.83301 -47.5 -11.5s-22.5 -15.5 -22.5 -23.5c0 -14.667 8.16699 -27.167 24.5 -37.5s34.666 -17.333 54.999 -21s41.5 -5.5 63.5 -5.5c22.667 0 56.667 1.33301 102 4zM431.999 733.002
l-47 -65c-5.33301 4 -13.333 7.66699 -24 11c-39.333 -50 -109 -93.333 -209 -130c-13.333 0 -32.333 1.66699 -57 5s-38.667 7.66602 -42 12.999l-2 5l95 38c20.667 8.66699 47 20.834 79 36.501s57.333 30.5 76 44.5c-40.667 7.33301 -71 19 -91 35s-30 38.333 -30 67
c0 37.333 14.333 69.5 43 96.5s59.667 40.5 93 40.5c22.667 0 42.667 -11.5 60 -34.5s26 -58.833 26 -107.5c0 -14.667 -2 -28.667 -6 -42c14.667 -2 26.667 -6.33301 36 -13zM226.999 827.002c0 -33.333 41.667 -58.333 125 -75c2 6 3 12 3 18
c-0.666992 23.333 -8 45.5 -22 66.5s-30 31.5 -48 31.5c-14.667 0 -28 -4.33301 -40 -13s-18 -18 -18 -28z" />
    <glyph glyph-name="uni0678.init" unicode="&#x678;" horiz-adv-x="632" 
d="M246 551l5 0.000976562c66.667 -117.333 100 -219 100 -305c0 -62 -23.333 -124 -70 -186c-22.667 -22.667 -53.834 -38.334 -93.501 -47.001s-98.167 -13 -175.5 -13h-12c-24.667 -0 -42.5 6.83301 -53.5 20.5s-16.5 29.167 -16.5 46.5c0 15.333 5.66699 29.333 17 42
s29 19 53 19h17c96.667 0 162.334 6.33301 197.001 19c38 14 57 28.667 57 44c0 34 -33.333 116.333 -100 247c24.667 44 49.667 81.667 75 113zM602 769.001l0.00195312 -2.99902c-12.667 -26 -25.667 -48.667 -39 -68c-97.333 -15.333 -184 -40.333 -260 -75l-2 3l24 42
c12.667 16 28 27 46 33v3c-52 15.333 -78 44.333 -78 87c0 27.333 15.667 56.666 47 87.999c42.667 38 83 57 121 57c19.333 0 34.666 -4.83301 45.999 -14.5s17 -21.167 17 -34.5c0 -18 -10.667 -39.667 -32 -65h-2c-12 23.333 -22.667 36.333 -32 39
c-6.66699 2 -17 3 -31 3c-16.667 0 -32.5 -3.83301 -47.5 -11.5s-22.5 -15.5 -22.5 -23.5c0 -14.667 8.16699 -27.167 24.5 -37.5s34.666 -17.333 54.999 -21s41.5 -5.5 63.5 -5.5c22.667 0 56.667 1.33301 102 4z" />
    <glyph glyph-name="uni0678.medi" unicode="&#x678;" horiz-adv-x="646" 
d="M0 128l22.002 0.000976562c40.667 0 77.667 7.83301 111 23.5s53.666 37.167 60.999 64.5l29 108l69 50l6 -7c-14.667 -53.333 -22 -92 -22 -116c0 -38 11 -65.667 33 -83c32.667 -26.667 74 -40 124 -40h213v-128h-218c-106.667 0 -175.334 34 -206.001 102h-4
c-16.667 -32.667 -43 -57.834 -79 -75.501s-76 -26.5 -120 -26.5h-19c-24.667 -0 -42.5 6.83301 -53.5 20.5s-16.5 29.167 -16.5 46.5c0 15.333 5.66699 29.333 17 42s29 19 53 19zM632.002 629.001l0.00195312 -2.99902c-12.667 -26 -25.667 -48.667 -39 -68
c-97.333 -15.333 -184 -40.333 -260 -75l-2 3l24 42c12.667 16 28 27 46 33v3c-52 15.333 -78 44.333 -78 87c0 27.333 15.667 56.666 47 87.999c42.667 38 83 57 121 57c19.333 0 34.666 -4.83301 45.999 -14.5s17 -21.167 17 -34.5c0 -18 -10.667 -39.667 -32 -65h-2
c-12 23.333 -22.667 36.333 -32 39c-6.66699 2 -17 3 -31 3c-16.667 0 -32.5 -3.83301 -47.5 -11.5s-22.5 -15.5 -22.5 -23.5c0 -14.667 8.16699 -27.167 24.5 -37.5s34.666 -17.333 54.999 -21s41.5 -5.5 63.5 -5.5c22.667 0 56.667 1.33301 102 4z" />
    <glyph glyph-name="uni0678.fina" unicode="&#x678;" horiz-adv-x="1285" 
d="M664 128l621.001 0.00390625v-128h-326c2.66699 -24.667 4 -48.667 4 -72c0 -14.667 -5.33301 -35.834 -16 -63.501s-20.334 -48.167 -29.001 -61.5c-63.333 -56.667 -138 -101.834 -224 -135.501s-166.667 -50.5 -242 -50.5c-118 0 -209.667 36 -275 108
c-58 64.667 -87 157.667 -87 279c0 50 8.66699 105.667 26 167s40 115.666 68 162.999l38 -17c-40.667 -98.667 -61 -182.334 -61 -251.001c0 -90 26.667 -162.667 80 -218c60.667 -62.667 141.334 -94 242.001 -94c95.333 0 201.666 28.667 318.999 86
c53.333 30 83.333 53 90 69c-12 25.333 -44.5 46.833 -97.5 64.5s-117.5 26.5 -193.5 26.5l-6 14zM1275 589.004l0.000976562 -2.99902c-12.667 -26 -25.667 -48.667 -39 -68c-97.333 -15.333 -184 -40.333 -260 -75l-2 3l24 42c12.667 16 28 27 46 33v3
c-52 15.333 -78 44.333 -78 87c0 27.333 15.667 56.666 47 87.999c42.667 38 83 57 121 57c19.333 0 34.666 -4.83301 45.999 -14.5s17 -21.167 17 -34.5c0 -18 -10.667 -39.667 -32 -65h-2c-12 23.333 -22.667 36.333 -32 39c-7.33301 2 -17.666 3 -30.999 3
c-16.667 0 -32.5 -3.83301 -47.5 -11.5s-22.5 -15.5 -22.5 -23.5c0 -14.667 8.16699 -27.167 24.5 -37.5s34.666 -17.333 54.999 -21s41.5 -5.5 63.5 -5.5c22.667 0 56.667 1.33301 102 4z" />
    <glyph glyph-name="uni067C.init" unicode="&#x67c;" horiz-adv-x="441" 
d="M273 52c20 -10.667 35.999 -25.832 47.999 -45.499s18 -41.167 18 -64.5c0 -34.667 -12.167 -64.167 -36.5 -88.5s-53.833 -36.5 -88.5 -36.5s-64.167 12.167 -88.5 36.5s-36.5 53.833 -36.5 88.5c0 22 5.33301 42.667 16 62c-36 -2.66699 -67 -4 -93 -4h-12
c-24.667 0 -42.5 6.83301 -53.5 20.5s-16.5 29.167 -16.5 46.5c0 15.333 5.66699 29.333 17 42s29 19 53 19h17c96.667 0 162.334 6.33301 197.001 19c38 14 57 28.667 57 44c0 34 -33.333 116.333 -100 247c24.667 44 49.667 81.667 75 113h5
c66.667 -117.333 100 -219 100 -305c0 -66.667 -26 -131.334 -78 -194.001zM360.999 742.002c-28.667 -40.667 -54 -71.334 -76 -92.001c-39.333 37.333 -78.333 72 -117 104c24.667 34.667 51 66.334 79 95.001c35.333 -28 73.333 -63.667 114 -107zM167.999 729.002
c-28.667 -40.667 -54 -71.334 -76 -92.001c-39.333 37.333 -78.333 72 -117 104c24.667 34.667 51 66.334 79 95.001c35.333 -28 73.333 -63.667 114 -107zM138.999 -57.998c0 -20.667 7.33301 -38.334 22 -53.001s32.334 -22 53.001 -22s38.334 7.33301 53.001 22
s22 32.334 22 53.001s-7.33301 38.334 -22 53.001s-32.334 22 -53.001 22s-38.334 -7.33301 -53.001 -22s-22 -32.334 -22 -53.001z" />
    <glyph glyph-name="uni067C.medi" unicode="&#x67c;" horiz-adv-x="581" 
d="M338 599c-28.667 -40.667 -54 -71.334 -76 -92.001c-39.333 37.333 -78.333 72 -117 104c24.667 34.667 51 66.334 79 95.001c35.333 -28 73.333 -63.667 114 -107zM531 612c-28.667 -40.667 -54 -71.334 -76 -92.001c-39.333 37.333 -78.333 72 -117 104
c24.667 34.667 51 66.334 79 95.001c35.333 -28 73.333 -63.667 114 -107zM264 24c28.667 -24 43.0039 -54.668 43.0039 -92.001c0 -33.333 -11.833 -61.666 -35.5 -84.999s-51.834 -35 -84.501 -35s-60.834 11.667 -84.501 35s-35.5 51.666 -35.5 84.999
c0 24.667 7 47.334 21 68.001h-88c-24.667 -0 -42.5 6.83301 -53.5 20.5s-16.5 29.167 -16.5 46.5c0 15.333 5.66699 29.333 17 42s29 19 53 19h152c40.667 0 77.667 7.83301 111 23.5s53.666 37.167 60.999 64.5l29 108l69 50l6 -7c-14.667 -53.333 -22 -92 -22 -116
c0 -38 11 -65.667 33 -83c32.667 -26.667 74 -40 124 -40h18v-128h-23c-106.667 0 -175.334 34 -206.001 102h-4c-18 -34.667 -46 -60.667 -84 -78zM112.004 -68.001c0 -20.667 7.33301 -38.334 22 -53.001s32.334 -22 53.001 -22s38.334 7.33301 53.001 22
s22 32.334 22 53.001s-7.33301 38.334 -22 53.001s-32.334 22 -53.001 22s-38.334 -7.33301 -53.001 -22s-22 -32.334 -22 -53.001z" />
    <glyph glyph-name="uni067C.fina" unicode="&#x67c;" horiz-adv-x="1361" 
d="M860 732c-28.667 -40.667 -54 -71.334 -76 -92.001c-39.333 37.333 -78.333 72 -117 104c24.667 34.667 51 66.334 79 95.001c35.333 -28 73.333 -63.667 114 -107zM667 719c-28.667 -40.667 -54 -71.334 -76 -92.001c-39.333 37.333 -78.333 72 -117 104
c24.667 34.667 51 66.334 79 95.001c35.333 -28 73.333 -63.667 114 -107zM739 -29c28 -26.667 42 -60 42 -100c0 -38.667 -13.667 -71.667 -41 -99s-60.333 -41 -99 -41s-71.667 13.667 -99 41s-41 60.333 -41 99c0 34.667 11 64.667 33 90
c-119.333 5.33301 -215 30.666 -287 75.999c-98 62.667 -147 153 -147 271c0 87.333 19.667 168 59 242l40 -17c-19.333 -58 -29 -108.667 -29 -152c0 -45.333 11.833 -87.333 35.5 -126s55.834 -70.334 96.501 -95.001c71.333 -42.667 177.333 -64 318 -64
c99.333 0 213 15 341 45c51.333 12 95.666 26.333 132.999 43l44 140l68 49l6 -7c-16 -50 -24 -89.667 -24 -119c0 -34.667 11.667 -61.667 35 -81c30 -25.333 70 -38 120 -38h18v-128h-23c-52 0 -94.5 6.33301 -127.5 19s-58.5 35.334 -76.5 68.001
c-39.333 -24 -91.333 -45.333 -156 -64c-79.333 -23.333 -159 -40.666 -239 -51.999zM551 -129c0 -24.667 8.83301 -45.834 26.5 -63.501s38.834 -26.5 63.501 -26.5s45.834 8.83301 63.501 26.5s26.5 38.834 26.5 63.501s-8.83301 45.834 -26.5 63.501
s-38.834 26.5 -63.501 26.5s-45.834 -8.83301 -63.501 -26.5s-26.5 -38.834 -26.5 -63.501z" />
    <glyph glyph-name="uni067D.init" unicode="&#x67d;" horiz-adv-x="440" 
d="M0 128l17 0.000976562c96.667 0 162.334 6.33301 197.001 19c38 14 57 28.667 57 44c0 34 -33.333 116.333 -100 247c24.667 44 49.667 81.667 75 113h5c66.667 -117.333 100 -219 100 -305c0 -62 -23.333 -124 -70 -186
c-22.667 -22.667 -53.834 -38.334 -93.501 -47.001s-98.167 -13 -175.5 -13h-12c-24.667 -0 -42.5 6.83301 -53.5 20.5s-16.5 29.167 -16.5 46.5c0 15.333 5.66699 29.333 17 42s29 19 53 19zM355 953.001c-28.667 -40.667 -54 -71.334 -76 -92.001
c-39.333 37.333 -78.333 72 -117 104c24.667 34.667 51 66.334 79 95.001c35.333 -28 73.333 -63.667 114 -107zM162 940.001c-28.667 -40.667 -54 -71.334 -76 -92.001c-39.333 37.333 -78.333 72 -117 104c24.667 34.667 51 66.334 79 95.001
c35.333 -28 73.333 -63.667 114 -107zM302 741.001c-28.667 -40.667 -54 -71.334 -76 -92.001c-39.333 37.333 -78.333 72 -117 104c24.667 34.667 51 66.334 79 95.001c35.333 -28 73.333 -63.667 114 -107z" />
    <glyph glyph-name="uni067D.medi" unicode="&#x67d;" horiz-adv-x="451" 
d="M0 128l22.002 0.000976562c40.667 0 77.667 7.83301 111 23.5s53.666 37.167 60.999 64.5l29 108l69 50l6 -7c-14.667 -53.333 -22 -92 -22 -116c0 -38 11 -65.667 33 -83c32.667 -26.667 74 -40 124 -40h18v-128h-23c-106.667 0 -175.334 34 -206.001 102h-4
c-16.667 -32.667 -43 -57.834 -79 -75.501s-76 -26.5 -120 -26.5h-19c-24.667 -0 -42.5 6.83301 -53.5 20.5s-16.5 29.167 -16.5 46.5c0 15.333 5.66699 29.333 17 42s29 19 53 19zM385.002 813.001c-28.667 -40.667 -54 -71.334 -76 -92.001
c-39.333 37.333 -78.333 72 -117 104c24.667 34.667 51 66.334 79 95.001c35.333 -28 73.333 -63.667 114 -107zM192.002 800.001c-28.667 -40.667 -54 -71.334 -76 -92.001c-39.333 37.333 -78.333 72 -117 104c24.667 34.667 51 66.334 79 95.001
c35.333 -28 73.333 -63.667 114 -107zM332.002 601.001c-28.667 -40.667 -54 -71.334 -76 -92.001c-39.333 37.333 -78.333 72 -117 104c24.667 34.667 51 66.334 79 95.001c35.333 -28 73.333 -63.667 114 -107z" />
    <glyph glyph-name="uni067D.fina" unicode="&#x67d;" horiz-adv-x="1361" 
d="M1361 128l-0.00195312 -128h-23c-52 -0 -94.5 6.33301 -127.5 19s-58.5 35.334 -76.5 68.001c-41.333 -25.333 -93.333 -47 -156 -65c-141.333 -41.333 -270.666 -62 -387.999 -62c-148 0 -262.333 25.667 -343 77c-98 62.667 -147 153 -147 271
c0 87.333 19.667 168 59 242l40 -17c-19.333 -58 -29 -108.667 -29 -152c0 -45.333 11.833 -87.333 35.5 -126s55.834 -70.334 96.501 -95.001c71.333 -42.667 177.333 -64 318 -64c102.667 0 216.667 14.667 342 44c46.667 11.333 90.667 26 132 44l44 140l64 50l6 -7
c-15.333 -44.667 -23 -82 -23 -112c0 -42 11.333 -71.667 34 -89c32 -25.333 73.333 -38 124 -38h18zM846.998 893c-28.667 -40.667 -54 -71.334 -76 -92.001c-39.333 37.333 -78.333 72 -117 104c24.667 34.667 51 66.334 79 95.001c35.333 -28 73.333 -63.667 114 -107z
M653.998 880c-28.667 -40.667 -54 -71.334 -76 -92.001c-39.333 37.333 -78.333 72 -117 104c24.667 34.667 51 66.334 79 95.001c35.333 -28 73.333 -63.667 114 -107zM793.998 681c-28.667 -40.667 -54 -71.334 -76 -92.001c-39.333 37.333 -78.333 72 -117 104
c24.667 34.667 51 66.334 79 95.001c35.333 -28 73.333 -63.667 114 -107z" />
    <glyph glyph-name="uni0681.init" unicode="&#x681;" horiz-adv-x="935" 
d="M0 128h60.999c155.333 0 333.333 60.333 534 181l1 4c-126 46.667 -230.667 70 -314 70c-55.333 0 -97.666 -16.667 -126.999 -50l12 -50l-30 -90h-10l-49 132c4 54.667 26 98.334 66 131.001s90.333 49 151 49c75.333 0 184.666 -29 327.999 -87
c51.333 -20.667 108.333 -31.334 171 -32.001l81 1l3 -2l-53 -105c-74 2 -131.667 -10.333 -173 -37l-167 -109c-137.333 -89.333 -281.666 -134 -432.999 -134h-52c-24.667 -0 -42.5 6.83301 -53.5 20.5s-16.5 29.167 -16.5 46.5c0 15.333 5.66699 29.333 17 42
s29 19 53 19zM551.999 829l0.00195312 -2.99902c-12.667 -26 -25.667 -48.667 -39 -68c-97.333 -15.333 -184 -40.333 -260 -75l-2 3l24 42c12.667 16 28 27 46 33v3c-52 15.333 -78 44.333 -78 87c0 27.333 15.667 56.666 47 87.999c42.667 38 83 57 121 57
c19.333 0 34.666 -4.83301 45.999 -14.5s17 -21.167 17 -34.5c0 -18 -10.667 -39.667 -32 -65h-2c-12 23.333 -22.667 36.333 -32 39c-6.66699 2 -17 3 -31 3c-16.667 0 -32.5 -3.83301 -47.5 -11.5s-22.5 -15.5 -22.5 -23.5c0 -14.667 8.16699 -27.167 24.5 -37.5
s34.666 -17.333 54.999 -21s41.5 -5.5 63.5 -5.5c22.667 0 56.667 1.33301 102 4z" />
    <glyph glyph-name="uni0681.medi" unicode="&#x681;" horiz-adv-x="915" 
d="M595 309l0.998047 3.99902c-126 46.667 -230.667 70 -314 70c-55.333 0 -97.666 -16.667 -126.999 -50l12 -50l-30 -90h-10l-49 132c4 54.667 26 98.334 66 131.001s90.333 49 151 49c74.667 0 184 -28.667 328 -86c55.333 -22 112.333 -33 171 -33h87l2 -2l-62 -103
c-72.667 0 -129 -12.667 -169 -38l-167 -109c-139.333 -89.333 -285.666 -134 -438.999 -134h-46c-24.667 -0 -42.5 6.83301 -53.5 20.5s-16.5 29.167 -16.5 46.5c0 15.333 5.66699 29.333 17 42s29 19 53 19h61c155.333 0 333.333 60.333 534 181zM671.998 220.999
l36 23.999l3 -1c3.33301 -77.333 62.333 -116 177 -116h27v-128h-31c-143.333 0 -215 55 -215 165c0 18.667 1 37.334 3 56.001zM551.998 828.998l0.00195312 -2.99902c-12.667 -26 -25.667 -48.667 -39 -68c-97.333 -15.333 -184 -40.333 -260 -75l-2 3l24 42
c12.667 16 28 27 46 33v3c-52 15.333 -78 44.333 -78 87c0 27.333 15.667 56.666 47 87.999c42.667 38 83 57 121 57c19.333 0 34.666 -4.83301 45.999 -14.5s17 -21.167 17 -34.5c0 -18 -10.667 -39.667 -32 -65h-2c-12 23.333 -22.667 36.333 -32 39
c-6.66699 2 -17 3 -31 3c-16.667 0 -32.5 -3.83301 -47.5 -11.5s-22.5 -15.5 -22.5 -23.5c0 -14.667 8.16699 -27.167 24.5 -37.5s34.666 -17.333 54.999 -21s41.5 -5.5 63.5 -5.5c22.667 0 56.667 1.33301 102 4z" />
    <glyph glyph-name="uni0681.fina" unicode="&#x681;" horiz-adv-x="939" 
d="M561 324l-1.00586 2.99707c-57.333 21.333 -106.333 36 -147 44s-84.334 12 -131.001 12c-55.333 0 -97.666 -16.667 -126.999 -50l20 -84l-28 -79l-11 -3l-58 158c4 54.667 26 98.334 66 131.001s90.333 49 151 49c75.333 0 184.666 -29 327.999 -87
c54.667 -20.667 111.667 -31.334 171 -32.001l88 1l1 -2l-60 -101c-30.667 -3.33301 -75.5 -12.666 -134.5 -27.999s-103.167 -28 -132.5 -38c-114.667 -44 -205 -94.333 -271 -151s-99 -117.334 -99 -182.001c0 -67.333 22.333 -126.166 67 -176.499
s104.334 -88.166 179.001 -113.499s159 -38 253 -38c78.667 0 164.334 7.33301 257.001 22l3 -10c-69.333 -57.333 -123.666 -97 -162.999 -119c-62.667 -12 -125.667 -18 -189 -18c-67.333 0 -129.666 8.33301 -186.999 25s-108.166 41.167 -152.499 73.5
s-79.166 74.833 -104.499 127.5s-38 112.667 -38 180c0 116 42.833 218.333 128.5 307s192.834 148.334 321.501 179.001zM671.994 220.997l36 23.999l3 -1c3.33301 -77.333 62.333 -116 177 -116h51v-128h-55c-143.333 0 -215 55 -215 165c0 18.667 1 37.334 3 56.001z
M621.994 828.996l0.000976562 -2.99902c-12.667 -26 -25.667 -48.667 -39 -68c-97.333 -15.333 -184 -40.333 -260 -75l-2 3l24 42c12.667 16 28 27 46 33v3c-52 15.333 -78 44.333 -78 87c0 27.333 15.667 56.666 47 87.999c42.667 38 83 57 121 57
c19.333 0 34.666 -4.83301 45.999 -14.5s17 -21.167 17 -34.5c0 -18 -10.667 -39.667 -32 -65h-2c-12 23.333 -22.667 36.333 -32 39c-7.33301 2 -17.666 3 -30.999 3c-16.667 0 -32.5 -3.83301 -47.5 -11.5s-22.5 -15.5 -22.5 -23.5c0 -14.667 8.16699 -27.167 24.5 -37.5
s34.666 -17.333 54.999 -21s41.5 -5.5 63.5 -5.5c22.667 0 56.667 1.33301 102 4z" />
    <glyph glyph-name="uni0682.init" unicode="&#x682;" horiz-adv-x="935" 
d="M0 128h60.999c155.333 0 333.333 60.333 534 181l1 4c-126 46.667 -230.667 70 -314 70c-55.333 0 -97.666 -16.667 -126.999 -50l12 -50l-30 -90h-10l-49 132c4 54.667 26 98.334 66 131.001s90.333 49 151 49c75.333 0 184.666 -29 327.999 -87
c51.333 -20.667 108.333 -31.334 171 -32.001l81 1l3 -2l-53 -105c-74 2 -131.667 -10.333 -173 -37l-167 -109c-137.333 -89.333 -281.666 -134 -432.999 -134h-52c-24.667 -0 -42.5 6.83301 -53.5 20.5s-16.5 29.167 -16.5 46.5c0 15.333 5.66699 29.333 17 42
s29 19 53 19zM440.999 936c-28 -38.667 -53.332 -68.666 -75.999 -89.999c-38.667 35.333 -78 69.333 -118 102c25.333 34 51.666 64.667 78.999 92c36 -26.667 74.333 -61.334 115 -104.001zM461 734.001c-30.667 -41.333 -55.999 -71 -75.999 -89
c-42 38 -81.333 71.667 -118 101c23.333 32 49.666 63 78.999 93c36.667 -28 75 -63 115 -105z" />
    <glyph glyph-name="uni0682.medi" unicode="&#x682;" horiz-adv-x="915" 
d="M595 309l0.998047 3.99902c-126 46.667 -230.667 70 -314 70c-55.333 0 -97.666 -16.667 -126.999 -50l12 -50l-30 -90h-10l-49 132c4 54.667 26 98.334 66 131.001s90.333 49 151 49c74.667 0 184 -28.667 328 -86c55.333 -22 112.333 -33 171 -33h87l2 -2l-62 -103
c-72.667 0 -129 -12.667 -169 -38l-167 -109c-139.333 -89.333 -285.666 -134 -438.999 -134h-46c-24.667 -0 -42.5 6.83301 -53.5 20.5s-16.5 29.167 -16.5 46.5c0 15.333 5.66699 29.333 17 42s29 19 53 19h61c155.333 0 333.333 60.333 534 181zM671.998 220.999
l36 23.999l3 -1c3.33301 -77.333 62.333 -116 177 -116h27v-128h-31c-143.333 0 -215 55 -215 165c0 18.667 1 37.334 3 56.001zM440.998 935.998c-28 -38.667 -53.332 -68.666 -75.999 -89.999c-38.667 35.333 -78 69.333 -118 102c25.333 34 51.666 64.667 78.999 92
c36 -26.667 74.333 -61.334 115 -104.001zM460.999 733.999c-30.667 -41.333 -55.999 -71 -75.999 -89c-42 38 -81.333 71.667 -118 101c23.333 32 49.666 63 78.999 93c36.667 -28 75 -63 115 -105z" />
    <glyph glyph-name="uni0682.fina" unicode="&#x682;" horiz-adv-x="939" 
d="M561 324l-1.00586 2.99707c-57.333 21.333 -106.333 36 -147 44s-84.334 12 -131.001 12c-55.333 0 -97.666 -16.667 -126.999 -50l20 -84l-28 -79l-11 -3l-58 158c4 54.667 26 98.334 66 131.001s90.333 49 151 49c75.333 0 184.666 -29 327.999 -87
c54.667 -20.667 111.667 -31.334 171 -32.001l88 1l1 -2l-60 -101c-30.667 -3.33301 -75.5 -12.666 -134.5 -27.999s-103.167 -28 -132.5 -38c-114.667 -44 -205 -94.333 -271 -151s-99 -117.334 -99 -182.001c0 -67.333 22.333 -126.166 67 -176.499
s104.334 -88.166 179.001 -113.499s159 -38 253 -38c78.667 0 164.334 7.33301 257.001 22l3 -10c-69.333 -57.333 -123.666 -97 -162.999 -119c-62.667 -12 -125.667 -18 -189 -18c-67.333 0 -129.666 8.33301 -186.999 25s-108.166 41.167 -152.499 73.5
s-79.166 74.833 -104.499 127.5s-38 112.667 -38 180c0 116 42.833 218.333 128.5 307s192.834 148.334 321.501 179.001zM671.994 220.997l36 23.999l3 -1c3.33301 -77.333 62.333 -116 177 -116h51v-128h-55c-143.333 0 -215 55 -215 165c0 18.667 1 37.334 3 56.001z
M520.994 935.996c-28 -38.667 -53.332 -68.666 -75.999 -89.999c-38.667 35.333 -78 69.333 -118 102c25.333 34 51.666 64.667 78.999 92c36 -26.667 74.333 -61.334 115 -104.001zM540.995 733.997c-30.667 -41.333 -55.999 -71 -75.999 -89
c-42 38 -81.333 71.667 -118 101c23.333 32 49.666 63 78.999 93c36.667 -28 75 -63 115 -105z" />
    <glyph glyph-name="uni0685.init" unicode="&#x685;" horiz-adv-x="935" 
d="M0 128h60.999c155.333 0 333.333 60.333 534 181l1 4c-126 46.667 -230.667 70 -314 70c-55.333 0 -97.666 -16.667 -126.999 -50l12 -50l-30 -90h-10l-49 132c4 54.667 26 98.334 66 131.001s90.333 49 151 49c75.333 0 184.666 -29 327.999 -87
c51.333 -20.667 108.333 -31.334 171 -32.001l81 1l3 -2l-53 -105c-74 2 -131.667 -10.333 -173 -37l-167 -109c-137.333 -89.333 -281.666 -134 -432.999 -134h-52c-24.667 -0 -42.5 6.83301 -53.5 20.5s-16.5 29.167 -16.5 46.5c0 15.333 5.66699 29.333 17 42
s29 19 53 19zM387.999 739c-28.667 -40.667 -54 -71.334 -76 -92.001c-39.333 37.333 -78.333 72 -117 104c24.667 34.667 51 66.334 79 95.001c35.333 -28 73.333 -63.667 114 -107zM441.999 952c-28.667 -40.667 -54 -71.334 -76 -92.001
c-39.333 37.333 -78.333 72 -117 104c24.667 34.667 51 66.334 79 95.001c35.333 -28 73.333 -63.667 114 -107zM580.999 752c-28.667 -40.667 -54 -71.334 -76 -92.001c-39.333 37.333 -78.333 72 -117 104c24.667 34.667 51 66.334 79 95.001
c35.333 -28 73.333 -63.667 114 -107z" />
    <glyph glyph-name="uni0685.medi" unicode="&#x685;" horiz-adv-x="915" 
d="M595 309l0.998047 3.99902c-126 46.667 -230.667 70 -314 70c-55.333 0 -97.666 -16.667 -126.999 -50l12 -50l-30 -90h-10l-49 132c4 54.667 26 98.334 66 131.001s90.333 49 151 49c74.667 0 184 -28.667 328 -86c55.333 -22 112.333 -33 171 -33h87l2 -2l-62 -103
c-72.667 0 -129 -12.667 -169 -38l-167 -109c-139.333 -89.333 -285.666 -134 -438.999 -134h-46c-24.667 -0 -42.5 6.83301 -53.5 20.5s-16.5 29.167 -16.5 46.5c0 15.333 5.66699 29.333 17 42s29 19 53 19h61c155.333 0 333.333 60.333 534 181zM671.998 220.999
l36 23.999l3 -1c3.33301 -77.333 62.333 -116 177 -116h27v-128h-31c-143.333 0 -215 55 -215 165c0 18.667 1 37.334 3 56.001zM387.998 738.998c-28.667 -40.667 -54 -71.334 -76 -92.001c-39.333 37.333 -78.333 72 -117 104c24.667 34.667 51 66.334 79 95.001
c35.333 -28 73.333 -63.667 114 -107zM441.998 951.998c-28.667 -40.667 -54 -71.334 -76 -92.001c-39.333 37.333 -78.333 72 -117 104c24.667 34.667 51 66.334 79 95.001c35.333 -28 73.333 -63.667 114 -107zM580.998 751.998c-28.667 -40.667 -54 -71.334 -76 -92.001
c-39.333 37.333 -78.333 72 -117 104c24.667 34.667 51 66.334 79 95.001c35.333 -28 73.333 -63.667 114 -107z" />
    <glyph glyph-name="uni0685.fina" unicode="&#x685;" horiz-adv-x="939" 
d="M561 324l-1.00586 2.99707c-57.333 21.333 -106.333 36 -147 44s-84.334 12 -131.001 12c-55.333 0 -97.666 -16.667 -126.999 -50l20 -84l-28 -79l-11 -3l-58 158c4 54.667 26 98.334 66 131.001s90.333 49 151 49c75.333 0 184.666 -29 327.999 -87
c54.667 -20.667 111.667 -31.334 171 -32.001l88 1l1 -2l-60 -101c-30.667 -3.33301 -75.5 -12.666 -134.5 -27.999s-103.167 -28 -132.5 -38c-114.667 -44 -205 -94.333 -271 -151s-99 -117.334 -99 -182.001c0 -67.333 22.333 -126.166 67 -176.499
s104.334 -88.166 179.001 -113.499s159 -38 253 -38c78.667 0 164.334 7.33301 257.001 22l3 -10c-69.333 -57.333 -123.666 -97 -162.999 -119c-62.667 -12 -125.667 -18 -189 -18c-67.333 0 -129.666 8.33301 -186.999 25s-108.166 41.167 -152.499 73.5
s-79.166 74.833 -104.499 127.5s-38 112.667 -38 180c0 116 42.833 218.333 128.5 307s192.834 148.334 321.501 179.001zM671.994 220.997l36 23.999l3 -1c3.33301 -77.333 62.333 -116 177 -116h51v-128h-55c-143.333 0 -215 55 -215 165c0 18.667 1 37.334 3 56.001z
M467.994 728.996c-28.667 -40.667 -54 -71.334 -76 -92.001c-39.333 37.333 -78.333 72 -117 104c24.667 34.667 51 66.334 79 95.001c35.333 -28 73.333 -63.667 114 -107zM521.994 941.996c-28.667 -40.667 -54 -71.334 -76 -92.001c-39.333 37.333 -78.333 72 -117 104
c24.667 34.667 51 66.334 79 95.001c35.333 -28 73.333 -63.667 114 -107zM660.994 741.996c-28.667 -40.667 -54 -71.334 -76 -92.001c-39.333 37.333 -78.333 72 -117 104c24.667 34.667 51 66.334 79 95.001c35.333 -28 73.333 -63.667 114 -107z" />
    <glyph glyph-name="uni0689.fina" unicode="&#x689;" horiz-adv-x="770" 
d="M444 52c20.667 -11.333 37.334 -27.1689 50.001 -47.502s19 -42.833 19 -67.5c0 -36 -12.667 -66.667 -38 -92s-56 -38 -92 -38s-66.667 12.667 -92 38s-38 56 -38 92c0 22 5.33301 43 16 63c-56 0 -99 16.167 -129 48.5s-45 77.833 -45 136.5c0 24 1 48.667 3 74l39 3
c4 -89.333 51 -134 141 -134c50.667 0 105 16.667 163 50c18.667 10.667 34.167 22.834 46.5 36.501s18.5 26.5 18.5 38.5c0 46.667 -27.667 170.667 -83 372c36 54.667 59.667 89 71 103l6 -4c31.333 -120.667 63 -269 95 -445c8.66699 -48 27.5 -85.167 56.5 -111.5
s62.833 -39.5 101.5 -39.5h17v-128h-19c-102 0 -170 54.333 -204 163h-5c-8.66699 -40 -32.667 -72 -72 -96c-3.33301 -1.33301 -7.83301 -3.66602 -13.5 -6.99902s-9.83398 -6 -12.501 -8zM303 -63.0029c0 -22 7.83301 -40.833 23.5 -56.5s34.5 -23.5 56.5 -23.5
s40.833 7.83301 56.5 23.5s23.5 34.5 23.5 56.5s-7.83301 40.833 -23.5 56.5s-34.5 23.5 -56.5 23.5s-40.833 -7.83301 -56.5 -23.5s-23.5 -34.5 -23.5 -56.5z" />
    <glyph glyph-name="uni068A.fina" unicode="&#x68a;" horiz-adv-x="770" 
d="M770 128v-128.001h-19c-102 0 -170 54.333 -204 163h-5c-8.66699 -40 -32.667 -72 -72 -96c-74 -44.667 -141 -67 -201 -67c-56 0 -99 16.167 -129 48.5s-45 77.833 -45 136.5c0 24 1 48.667 3 74l39 3c4 -89.333 51 -134 141 -134c50.667 0 105 16.667 163 50
c18.667 10.667 34.167 22.834 46.5 36.501s18.5 26.5 18.5 38.5c0 46.667 -27.667 170.667 -83 372c36 54.667 59.667 89 71 103l6 -4c31.333 -120.667 63 -269 95 -445c8.66699 -48 27.5 -85.167 56.5 -111.5s62.833 -39.5 101.5 -39.5h17zM232 -291.001
c32.667 43.333 59.667 77.334 81 102.001c40 -29.333 80 -65 120 -107c-23.333 -38 -51 -70.667 -83 -98c-18 17.333 -57.333 51.666 -118 102.999z" />
    <glyph glyph-name="uni068B.fina" unicode="&#x68b;" horiz-adv-x="770" 
d="M770 128v-128.001h-19c-102 0 -170 54.333 -204 163h-5c-8.66699 -40 -32.667 -72 -72 -96c-74 -44.667 -141 -67 -201 -67c-56 0 -99 16.167 -129 48.5s-45 77.833 -45 136.5c0 24 1 48.667 3 74l39 3c4 -89.333 51 -134 141 -134c50.667 0 105 16.667 163 50
c18.667 10.667 34.167 22.834 46.5 36.501s18.5 26.5 18.5 38.5c0 46.667 -27.667 170.667 -83 372c36 54.667 59.667 89 71 103l6 -4c31.333 -120.667 63 -269 95 -445c8.66699 -48 27.5 -85.167 56.5 -111.5s62.833 -39.5 101.5 -39.5h17zM293 836.999l-93.998 76.9971
l4 6l105 -4c12 22 18 58 18 108c0 41.333 -2.16699 82.666 -6.5 123.999s-6.5 63.666 -6.5 66.999c0 2.66699 0.166992 5.33398 0.5 8.00098s1.16602 5.33398 2.49902 8.00098l3.5 7c1 2 2.66699 4.66699 5 8s4.16602 5.83301 5.49902 7.5l6.5 8
c3 3.66699 5.33301 6.33398 7 8.00098s4.33398 4.5 8.00098 8.5s6.16699 6.66699 7.5 8h6c6 -37.333 19.667 -74.333 41 -111l-36 -31l2 -75c0 -24.667 -3.33301 -47 -10 -67l3 -2c50.667 77.333 100.667 116 150 116c29.333 0 53.166 -10.167 71.499 -30.5
s27.5 -45.166 27.5 -74.499c0 -20 -5.66699 -44.333 -17 -73c-14.667 -33.333 -37 -57.666 -67 -72.999c-43.333 -20.667 -97.333 -31 -162 -31c-34.667 0 -59.667 1 -75 3zM345.002 916.996c129.333 3.33301 206 22.667 230 58c-12 40.667 -37.333 61 -76 61
c-52.667 0 -104 -39.667 -154 -119zM252.002 -291.003c32.667 43.333 59.667 77.334 81 102.001c40 -29.333 80 -65 120 -107c-23.333 -38 -51 -70.667 -83 -98c-18 17.333 -57.333 51.666 -118 102.999z" />
    <glyph glyph-name="uni068F.fina" unicode="&#x68f;" horiz-adv-x="770" 
d="M770 128v-128.001h-19c-102 0 -170 54.333 -204 163h-5c-8.66699 -40 -32.667 -72 -72 -96c-74 -44.667 -141 -67 -201 -67c-56 0 -99 16.167 -129 48.5s-45 77.833 -45 136.5c0 24 1 48.667 3 74l39 3c4 -89.333 51 -134 141 -134c50.667 0 105 16.667 163 50
c18.667 10.667 34.167 22.834 46.5 36.501s18.5 26.5 18.5 38.5c0 46.667 -27.667 170.667 -83 372c36 54.667 59.667 89 71 103l6 -4c31.333 -120.667 63 -269 95 -445c8.66699 -48 27.5 -85.167 56.5 -111.5s62.833 -39.5 101.5 -39.5h17zM607 1123
c-28.667 -40.667 -54 -71.334 -76 -92.001c-39.333 37.333 -78.333 72 -117 104c24.667 34.667 51 66.334 79 95.001c35.333 -28 73.333 -63.667 114 -107zM414 1110c-28.667 -40.667 -54 -71.334 -76 -92.001c-39.333 37.333 -78.333 72 -117 104
c24.667 34.667 51 66.334 79 95.001c35.333 -28 73.333 -63.667 114 -107zM554 910.999c-28.667 -40.667 -54 -71.334 -76 -92.001c-39.333 37.333 -78.333 72 -117 104c24.667 34.667 51 66.334 79 95.001c35.333 -28 73.333 -63.667 114 -107z" />
    <glyph glyph-name="uni0690.fina" unicode="&#x690;" horiz-adv-x="770" 
d="M770 128v-128.001h-19c-102 0 -170 54.333 -204 163h-5c-8.66699 -40 -32.667 -72 -72 -96c-74 -44.667 -141 -67 -201 -67c-56 0 -99 16.167 -129 48.5s-45 77.833 -45 136.5c0 24 1 48.667 3 74l39 3c4 -89.333 51 -134 141 -134c50.667 0 105 16.667 163 50
c18.667 10.667 34.167 22.834 46.5 36.501s18.5 26.5 18.5 38.5c0 46.667 -27.667 170.667 -83 372c36 54.667 59.667 89 71 103l6 -4c31.333 -120.667 63 -269 95 -445c8.66699 -48 27.5 -85.167 56.5 -111.5s62.833 -39.5 101.5 -39.5h17zM427 885.999
c-30.667 -42 -54.667 -70.667 -72 -86c-34.667 34 -71.334 66.667 -110.001 98c24.667 34 49.334 63.667 74.001 89c34 -26 70 -59.667 108 -101zM608 898.999c-24.667 -36.667 -48.333 -65.668 -71 -87.001c-35.333 33.333 -72 66 -110 98c24 34 48.667 63.667 74 89
c32 -25.333 67.667 -58.666 107 -99.999zM415.001 1076c-27.333 -38.667 -51.001 -67.333 -71.001 -86c-44 40.667 -80.667 73.334 -110 98.001c20 27.333 44.667 57 74 89c34.667 -26.667 70.334 -60.334 107.001 -101.001zM597 1088
c-30.667 -42 -54.666 -70.666 -71.999 -85.999c-34.667 34 -71.334 66.667 -110.001 98c26 35.333 51 65 75 89c33.333 -26.667 69 -60.334 107 -101.001z" />
    <glyph glyph-name="uni0692.fina" unicode="&#x692;" horiz-adv-x="656" 
d="M406 343l7.00195 0.999023c31.333 -75.333 63.166 -130.166 95.499 -164.499s75.5 -51.5 129.5 -51.5h18v-128h-21c-44 0 -77.667 10.667 -101 32h-4c1.33301 -16 2 -27.667 2 -35c0 -56 -13.333 -107.667 -40 -155c-38 -66.667 -77.667 -116.5 -119 -149.5
s-81.333 -49.5 -120 -49.5c-68.667 0 -152 26 -250 78l15 34c30.667 -14.667 69 -22 115 -22c44 0 90.5 14.5 139.5 43.5s91.5 67 127.5 114s57.667 94.5 65 142.5c-6 14 -15 29 -27 45c-32 45.333 -61 95 -87 149c17.333 39.333 35.666 78 54.999 116zM526.002 767.999
c10 -22.667 17.668 -47.667 23.001 -75c-89.333 -102 -139.333 -172.667 -150 -212l-19 -10c-6.66699 40 -65 105 -175 195l23 97h8c80.667 -79.333 132 -138 154 -176h3c19.333 40.667 63.666 101 132.999 181z" />
    <glyph glyph-name="uni0693.fina" unicode="&#x693;" horiz-adv-x="696" 
d="M497 -148l10.002 -0.000976562c36 0 66.667 -12.667 92 -38s38 -56 38 -92s-12.667 -66.667 -38 -92s-56 -38 -92 -38c-32 0 -60 10 -84 30s-38.667 45.333 -44 76c-43.333 -36.667 -85.333 -55 -126 -55c-68.667 0 -152 26 -250 78l15 34c30.667 -14.667 69 -22 115 -22
c44 0 90.5 14.5 139.5 43.5s91.5 67 127.5 114s57.667 94.5 65 142.5c-6 14 -15 29 -27 45c-32 45.333 -61 95 -87 149c17.333 39.333 35.666 78 54.999 116l7 1c31.333 -75.333 63.166 -130.166 95.499 -164.499s75.5 -51.5 129.5 -51.5h58v-128h-61
c-44 0 -77.667 10.667 -101 32h-4c1.33301 -16 2 -27.667 2 -35c0 -52 -11.667 -100.333 -35 -145zM427.002 -278.001c0 -22 7.83301 -40.833 23.5 -56.5s34.5 -23.5 56.5 -23.5s40.833 7.83301 56.5 23.5s23.5 34.5 23.5 56.5s-7.83301 40.833 -23.5 56.5
s-34.5 23.5 -56.5 23.5s-40.833 -7.83301 -56.5 -23.5s-23.5 -34.5 -23.5 -56.5z" />
    <glyph glyph-name="uni0694.fina" unicode="&#x694;" horiz-adv-x="656" 
d="M406 343l7.00195 0.999023c31.333 -75.333 63.166 -130.166 95.499 -164.499s75.5 -51.5 129.5 -51.5h18v-128h-21c-44 0 -77.667 10.667 -101 32h-4c1.33301 -16 2 -27.667 2 -35c0 -56 -13.333 -107.667 -40 -155c-38 -66.667 -77.667 -116.5 -119 -149.5
s-81.333 -49.5 -120 -49.5c-68.667 0 -152 26 -250 78l15 34c30.667 -14.667 69 -22 115 -22c44 0 90.5 14.5 139.5 43.5s91.5 67 127.5 114s57.667 94.5 65 142.5c-6 14 -15 29 -27 45c-32 45.333 -61 95 -87 149c17.333 39.333 35.666 78 54.999 116zM365.002 -511.001
c32.667 43.333 59.667 77.334 81 102.001c40 -29.333 80 -65 120 -107c-23.333 -38 -51 -70.667 -83 -98c-18 17.333 -57.333 51.666 -118 102.999z" />
    <glyph glyph-name="uni0695.fina" unicode="&#x695;" horiz-adv-x="656" 
d="M406 343l7.00195 0.999023c31.333 -75.333 63.166 -130.166 95.499 -164.499s75.5 -51.5 129.5 -51.5h18v-128h-21c-44 0 -77.667 10.667 -101 32h-4c1.33301 -16 2 -27.667 2 -35c0 -56 -13.333 -107.667 -40 -155c-38 -66.667 -77.667 -116.5 -119 -149.5
s-81.333 -49.5 -120 -49.5c-68.667 0 -152 26 -250 78l15 34c30.667 -14.667 69 -22 115 -22c44 0 90.5 14.5 139.5 43.5s91.5 67 127.5 114s57.667 94.5 65 142.5c-6 14 -15 29 -27 45c-32 45.333 -61 95 -87 149c17.333 39.333 35.666 78 54.999 116zM516.002 -442.001
c10 -22.667 17.668 -47.667 23.001 -75c-89.333 -102 -139.333 -172.667 -150 -212l-19 -10c-6.66699 40 -65 105 -175 195l23 97h8c80.667 -79.333 132 -138 154 -176h3c19.333 40.667 63.666 101 132.999 181z" />
    <glyph glyph-name="uni0696.fina" unicode="&#x696;" horiz-adv-x="656" 
d="M406 343l7.00195 0.999023c31.333 -75.333 63.166 -130.166 95.499 -164.499s75.5 -51.5 129.5 -51.5h18v-128h-21c-44 0 -77.667 10.667 -101 32h-4c1.33301 -16 2 -27.667 2 -35c0 -56 -13.333 -107.667 -40 -155c-38 -66.667 -77.667 -116.5 -119 -149.5
s-81.333 -49.5 -120 -49.5c-68.667 0 -152 26 -250 78l15 34c30.667 -14.667 69 -22 115 -22c44 0 90.5 14.5 139.5 43.5s91.5 67 127.5 114s57.667 94.5 65 142.5c-6 14 -15 29 -27 45c-32 45.333 -61 95 -87 149c17.333 39.333 35.666 78 54.999 116zM365.002 -511.001
c32.667 43.333 59.667 77.334 81 102.001c40 -29.333 80 -65 120 -107c-23.333 -38 -51 -70.667 -83 -98c-18 17.333 -57.333 51.666 -118 102.999zM85.002 0c32.667 43.333 59.667 77.334 81 102.001c40 -29.333 80 -65 120 -107c-23.333 -38 -51 -70.667 -83 -98
c-18 17.333 -57.333 51.666 -118 102.999z" />
    <glyph glyph-name="uni0697.fina" unicode="&#x697;" horiz-adv-x="656" 
d="M406 343l7.00195 0.999023c31.333 -75.333 63.166 -130.166 95.499 -164.499s75.5 -51.5 129.5 -51.5h18v-128h-21c-44 0 -77.667 10.667 -101 32h-4c1.33301 -16 2 -27.667 2 -35c0 -56 -13.333 -107.667 -40 -155c-38 -66.667 -77.667 -116.5 -119 -149.5
s-81.333 -49.5 -120 -49.5c-68.667 0 -152 26 -250 78l15 34c30.667 -14.667 69 -22 115 -22c44 0 90.5 14.5 139.5 43.5s91.5 67 127.5 114s57.667 94.5 65 142.5c-6 14 -15 29 -27 45c-32 45.333 -61 95 -87 149c17.333 39.333 35.666 78 54.999 116zM541.002 571.999
c-28.667 -40.667 -54 -71.334 -76 -92.001c-39.333 37.333 -78.333 72 -117 104c24.667 34.667 51 66.334 79 95.001c35.333 -28 73.333 -63.667 114 -107zM348.002 558.999c-28.667 -40.667 -54 -71.334 -76 -92.001c-39.333 37.333 -78.333 72 -117 104
c24.667 34.667 51 66.334 79 95.001c35.333 -28 73.333 -63.667 114 -107z" />
    <glyph glyph-name="uni0699.fina" unicode="&#x699;" horiz-adv-x="656" 
d="M406 343l7.00195 0.999023c31.333 -75.333 63.166 -130.166 95.499 -164.499s75.5 -51.5 129.5 -51.5h18v-128h-21c-44 0 -77.667 10.667 -101 32h-4c1.33301 -16 2 -27.667 2 -35c0 -56 -13.333 -107.667 -40 -155c-38 -66.667 -77.667 -116.5 -119 -149.5
s-81.333 -49.5 -120 -49.5c-68.667 0 -152 26 -250 78l15 34c30.667 -14.667 69 -22 115 -22c44 0 90.5 14.5 139.5 43.5s91.5 67 127.5 114s57.667 94.5 65 142.5c-6 14 -15 29 -27 45c-32 45.333 -61 95 -87 149c17.333 39.333 35.666 78 54.999 116zM350.002 545.999
c-30.667 -42 -54.667 -70.667 -72 -86c-34.667 34 -71.334 66.667 -110.001 98c24.667 34 49.334 63.667 74.001 89c34 -26 70 -59.667 108 -101zM531.002 558.999c-24.667 -36.667 -48.333 -65.668 -71 -87.001c-35.333 33.333 -72 66 -110 98c24 34 48.667 63.667 74 89
c32 -25.333 67.667 -58.666 107 -99.999zM338.003 735.998c-27.333 -38.667 -51.001 -67.333 -71.001 -86c-44 40.667 -80.667 73.334 -110 98.001c20 27.333 44.667 57 74 89c34.667 -26.667 70.334 -60.334 107.001 -101.001zM520.002 747.999
c-30.667 -42 -54.666 -70.666 -71.999 -85.999c-34.667 34 -71.334 66.667 -110.001 98c26 35.333 51 65 75 89c33.333 -26.667 69 -60.334 107 -101.001z" />
    <glyph glyph-name="uni069A.init" unicode="&#x69a;" horiz-adv-x="905" 
d="M800 431l5.99805 -2.99805c10.667 -66.667 16 -126 16 -178c0 -44.667 -12 -90.334 -36 -137.001c-44 -73.333 -93.333 -110 -148 -110c-44 0 -85.667 27.667 -125 83h-8c-52.667 -57.333 -111 -86 -175 -86c-58 0 -90 28.333 -96 85h-4
c-48.667 -56.667 -119.667 -85 -213 -85h-17c-24.667 0 -42.5 6.83301 -53.5 20.5s-16.5 29.167 -16.5 46.5c0 15.333 5.66699 29.333 17 42s29 19 53 19h34c98 1.33301 168.333 32.333 211 93l55 79l77 27l4 -5c-45.333 -72.667 -68 -120.667 -68 -144
c0 -15.333 4.83301 -27.5 14.5 -36.5s22.167 -13.5 37.5 -13.5c32 0 61.667 9.66699 89 29c4 2.66699 7.5 5.5 10.5 8.5s6 6.5 9 10.5s5.5 7.5 7.5 10.5s4.33301 7.66699 7 14s4.66699 11.333 6 15s3.5 10.167 6.5 19.5l7 22c1.66699 5.33301 4.33398 14.5 8.00098 27.5
s6.83398 23.5 9.50098 31.5l60 35l6 -4c-8.66699 -34.667 -13 -67.334 -13 -98.001c0 -35.333 10.667 -63.333 32 -84s45.333 -31 72 -31c14.667 0 27.167 4 37.5 12s15.5 19 15.5 33c0 32.667 -8.33301 86.667 -25 162c28 32.667 58 62.667 90 90zM404.998 690.002
c32.667 43.333 59.667 77.334 81 102.001c40 -29.333 80 -65 120 -107c-23.333 -38 -51 -70.667 -83 -98c-18 17.333 -57.333 51.666 -118 102.999zM394.998 -289.997c32.667 43.333 59.667 77.334 81 102.001c40 -29.333 80 -65 120 -107c-23.333 -38 -51 -70.667 -83 -98
c-18 17.333 -57.333 51.666 -118 102.999z" />
    <glyph glyph-name="uni069A.medi" unicode="&#x69a;" horiz-adv-x="1024" 
d="M1024 128l0.000976562 -128.001h-25c-109.333 0 -178 31.333 -206 94h-6c-53.333 -62.667 -110.333 -94 -171 -94c-60 0 -96.333 27.667 -109 83h-4c-50.667 -55.333 -108.334 -83 -173.001 -83c-58 0 -90 28.333 -96 85h-4c-48.667 -56.667 -119.667 -85 -213 -85h-17
c-24.667 0 -42.5 6.83301 -53.5 20.5s-16.5 29.167 -16.5 46.5c0 15.333 5.66699 29.333 17 42s29 19 53 19h34c96 1.33301 166.333 32.333 211 93l50 78l77 27l4 -5c-43.333 -75.333 -65 -123 -65 -143c0 -15.333 5 -27.5 15 -36.5s23 -13.5 39 -13.5c32 0 61 10 87 30
c26 18.667 47.667 48 65 88l24 59l76 35l4 -4c-27.333 -69.333 -41 -119.333 -41 -150c0 -15.333 4.83301 -28.833 14.5 -40.5s23.5 -17.5 41.5 -17.5c24 0 47 7.33301 69 22c25.333 17.333 44.666 49.333 57.999 96c0.666992 3.33301 2.16699 8.83301 4.5 16.5
s4.83301 16.834 7.5 27.501s5.33398 22.334 8.00098 35.001l76 51l4 -3c-16.667 -56.667 -25 -102.334 -25 -137.001c0 -72 54.667 -108 164 -108h22zM445.001 679.999c32.667 43.333 59.667 77.334 81 102.001c40 -29.333 80 -65 120 -107c-23.333 -38 -51 -70.667 -83 -98
c-18 17.333 -57.333 51.666 -118 102.999zM425.001 -290c32.667 43.333 59.667 77.334 81 102.001c40 -29.333 80 -65 120 -107c-23.333 -38 -51 -70.667 -83 -98c-18 17.333 -57.333 51.666 -118 102.999z" />
    <glyph glyph-name="uni069A.fina" unicode="&#x69a;" horiz-adv-x="1467" 
d="M773 0l-20.002 0.000976562c-11.333 -73.333 -24 -126.666 -38 -159.999c-25.333 -56.667 -70 -103.334 -134 -140.001s-131.333 -55 -202 -55c-94 0 -166 28.333 -216 85s-75 130.667 -75 222c0 105.333 26.333 198.666 79 279.999l35 -18
c-32 -72 -48 -134.333 -48 -187c0 -78 23.167 -137.833 69.5 -179.5s104.5 -62.5 174.5 -62.5c74.667 0 142.834 23.167 204.501 69.5s92.5 93.833 92.5 142.5c0 32 -9.33301 72.333 -28 121s-43.667 96.667 -75 144c15.333 28.667 37.333 64.334 66 107.001h4
c32.667 -63.333 60 -127 82 -191c7.33301 -18 15.5 -30.833 24.5 -38.5s22.167 -11.5 39.5 -11.5c26 0 51.333 9.33301 76 28c26.667 18 46 44.333 58 79l26 74l68 31l4 -5c-20 -62.667 -30 -111.334 -30 -146.001c0 -20 6.33301 -35.167 19 -45.5
s29.334 -15.5 50.001 -15.5c60 0 101 44.333 123 133l17 70l73 43l4 -5c-16 -61.333 -24 -107 -24 -137c0 -69.333 57.667 -104 173 -104h22v-128h-25c-116 -0 -188 31.333 -216 94h-6c-53.333 -62.667 -111.666 -94 -174.999 -94c-58.667 0 -94.334 27.667 -107.001 83h-6
c-36.667 -55.333 -89.667 -83 -159 -83zM854.998 680.001c32.667 43.333 59.667 77.334 81 102.001c40 -29.333 80 -65 120 -107c-23.333 -38 -51 -70.667 -83 -98c-18 17.333 -57.333 51.666 -118 102.999zM924.998 -299.998c32.667 43.333 59.667 77.334 81 102.001
c40 -29.333 80 -65 120 -107c-23.333 -38 -51 -70.667 -83 -98c-18 17.333 -57.333 51.666 -118 102.999z" />
    <glyph glyph-name="uni069B.init" unicode="&#x69b;" horiz-adv-x="905" 
d="M800 431l5.99805 -2.99805c10.667 -66.667 16 -126 16 -178c0 -44.667 -12 -90.334 -36 -137.001c-44 -73.333 -93.333 -110 -148 -110c-44 0 -85.667 27.667 -125 83h-8c-52.667 -57.333 -111 -86 -175 -86c-58 0 -90 28.333 -96 85h-4
c-48.667 -56.667 -119.667 -85 -213 -85h-17c-24.667 0 -42.5 6.83301 -53.5 20.5s-16.5 29.167 -16.5 46.5c0 15.333 5.66699 29.333 17 42s29 19 53 19h34c98 1.33301 168.333 32.333 211 93l55 79l77 27l4 -5c-45.333 -72.667 -68 -120.667 -68 -144
c0 -15.333 4.83301 -27.5 14.5 -36.5s22.167 -13.5 37.5 -13.5c32 0 61.667 9.66699 89 29c4 2.66699 7.5 5.5 10.5 8.5s6 6.5 9 10.5s5.5 7.5 7.5 10.5s4.33301 7.66699 7 14s4.66699 11.333 6 15s3.5 10.167 6.5 19.5l7 22c1.66699 5.33301 4.33398 14.5 8.00098 27.5
s6.83398 23.5 9.50098 31.5l60 35l6 -4c-8.66699 -34.667 -13 -67.334 -13 -98.001c0 -35.333 10.667 -63.333 32 -84s45.333 -31 72 -31c14.667 0 27.167 4 37.5 12s15.5 19 15.5 33c0 32.667 -8.33301 86.667 -25 162c28 32.667 58 62.667 90 90zM677.998 -246.998
c-28.667 -40.667 -54 -71.334 -76 -92.001c-39.333 37.333 -78.333 72 -117 104c24.667 34.667 51 66.334 79 95.001c35.333 -28 73.333 -63.667 114 -107zM484.998 -259.998c-28.667 -40.667 -54 -71.334 -76 -92.001c-39.333 37.333 -78.333 72 -117 104
c24.667 34.667 51 66.334 79 95.001c35.333 -28 73.333 -63.667 114 -107zM624.998 -458.998c-28.667 -40.667 -54 -71.334 -76 -92.001c-39.333 37.333 -78.333 72 -117 104c24.667 34.667 51 66.334 79 95.001c35.333 -28 73.333 -63.667 114 -107z" />
    <glyph glyph-name="uni069B.medi" unicode="&#x69b;" horiz-adv-x="1024" 
d="M1024 128l0.000976562 -128.001h-25c-109.333 0 -178 31.333 -206 94h-6c-53.333 -62.667 -110.333 -94 -171 -94c-60 0 -96.333 27.667 -109 83h-4c-50.667 -55.333 -108.334 -83 -173.001 -83c-58 0 -90 28.333 -96 85h-4c-48.667 -56.667 -119.667 -85 -213 -85h-17
c-24.667 0 -42.5 6.83301 -53.5 20.5s-16.5 29.167 -16.5 46.5c0 15.333 5.66699 29.333 17 42s29 19 53 19h34c96 1.33301 166.333 32.333 211 93l50 78l77 27l4 -5c-43.333 -75.333 -65 -123 -65 -143c0 -15.333 5 -27.5 15 -36.5s23 -13.5 39 -13.5c32 0 61 10 87 30
c26 18.667 47.667 48 65 88l24 59l76 35l4 -4c-27.333 -69.333 -41 -119.333 -41 -150c0 -15.333 4.83301 -28.833 14.5 -40.5s23.5 -17.5 41.5 -17.5c24 0 47 7.33301 69 22c25.333 17.333 44.666 49.333 57.999 96c0.666992 3.33301 2.16699 8.83301 4.5 16.5
s4.83301 16.834 7.5 27.501s5.33398 22.334 8.00098 35.001l76 51l4 -3c-16.667 -56.667 -25 -102.334 -25 -137.001c0 -72 54.667 -108 164 -108h22zM688.001 -247.001c-28.667 -40.667 -54 -71.334 -76 -92.001c-39.333 37.333 -78.333 72 -117 104
c24.667 34.667 51 66.334 79 95.001c35.333 -28 73.333 -63.667 114 -107zM495.001 -260.001c-28.667 -40.667 -54 -71.334 -76 -92.001c-39.333 37.333 -78.333 72 -117 104c24.667 34.667 51 66.334 79 95.001c35.333 -28 73.333 -63.667 114 -107zM635.001 -459.001
c-28.667 -40.667 -54 -71.334 -76 -92.001c-39.333 37.333 -78.333 72 -117 104c24.667 34.667 51 66.334 79 95.001c35.333 -28 73.333 -63.667 114 -107z" />
    <glyph glyph-name="uni069B.fina" unicode="&#x69b;" horiz-adv-x="1467" 
d="M773 0l-20.002 0.000976562c-11.333 -73.333 -24 -126.666 -38 -159.999c-25.333 -56.667 -70 -103.334 -134 -140.001s-131.333 -55 -202 -55c-94 0 -166 28.333 -216 85s-75 130.667 -75 222c0 105.333 26.333 198.666 79 279.999l35 -18
c-32 -72 -48 -134.333 -48 -187c0 -78 23.167 -137.833 69.5 -179.5s104.5 -62.5 174.5 -62.5c74.667 0 142.834 23.167 204.501 69.5s92.5 93.833 92.5 142.5c0 32 -9.33301 72.333 -28 121s-43.667 96.667 -75 144c15.333 28.667 37.333 64.334 66 107.001h4
c32.667 -63.333 60 -127 82 -191c7.33301 -18 15.5 -30.833 24.5 -38.5s22.167 -11.5 39.5 -11.5c26 0 51.333 9.33301 76 28c26.667 18 46 44.333 58 79l26 74l68 31l4 -5c-20 -62.667 -30 -111.334 -30 -146.001c0 -20 6.33301 -35.167 19 -45.5
s29.334 -15.5 50.001 -15.5c60 0 101 44.333 123 133l17 70l73 43l4 -5c-16 -61.333 -24 -107 -24 -137c0 -69.333 57.667 -104 173 -104h22v-128h-25c-116 -0 -188 31.333 -216 94h-6c-53.333 -62.667 -111.666 -94 -174.999 -94c-58.667 0 -94.334 27.667 -107.001 83h-6
c-36.667 -55.333 -89.667 -83 -159 -83zM1208 -246.999c-28.667 -40.667 -54 -71.334 -76 -92.001c-39.333 37.333 -78.333 72 -117 104c24.667 34.667 51 66.334 79 95.001c35.333 -28 73.333 -63.667 114 -107zM1015 -259.999c-28.667 -40.667 -54 -71.334 -76 -92.001
c-39.333 37.333 -78.333 72 -117 104c24.667 34.667 51 66.334 79 95.001c35.333 -28 73.333 -63.667 114 -107zM1155 -458.999c-28.667 -40.667 -54 -71.334 -76 -92.001c-39.333 37.333 -78.333 72 -117 104c24.667 34.667 51 66.334 79 95.001
c35.333 -28 73.333 -63.667 114 -107z" />
    <glyph glyph-name="uni069C.init" unicode="&#x69c;" horiz-adv-x="905" 
d="M592 802c-28.667 -40.667 -54 -71.334 -76 -92.001c-39.333 37.333 -78.333 72 -117 104c24.667 34.667 51 66.334 79 95.001c35.333 -28 73.333 -63.667 114 -107zM538 589c-28.667 -40.667 -54 -71.334 -76 -92.001c-39.333 37.333 -78.333 72 -117 104
c24.667 34.667 51 66.334 79 95.001c35.333 -28 73.333 -63.667 114 -107zM731 602c-28.667 -40.667 -54 -71.334 -76 -92.001c-39.333 37.333 -78.333 72 -117 104c24.667 34.667 51 66.334 79 95.001c35.333 -28 73.333 -63.667 114 -107zM800 431l5.99805 -2.99805
c10.667 -66.667 16 -126 16 -178c0 -44.667 -12 -90.334 -36 -137.001c-44 -73.333 -93.333 -110 -148 -110c-44 0 -85.667 27.667 -125 83h-8c-52.667 -57.333 -111 -86 -175 -86c-58 0 -90 28.333 -96 85h-4c-48.667 -56.667 -119.667 -85 -213 -85h-17
c-24.667 0 -42.5 6.83301 -53.5 20.5s-16.5 29.167 -16.5 46.5c0 15.333 5.66699 29.333 17 42s29 19 53 19h34c98 1.33301 168.333 32.333 211 93l55 79l77 27l4 -5c-45.333 -72.667 -68 -120.667 -68 -144c0 -15.333 4.83301 -27.5 14.5 -36.5s22.167 -13.5 37.5 -13.5
c32 0 61.667 9.66699 89 29c4 2.66699 7.5 5.5 10.5 8.5s6 6.5 9 10.5s5.5 7.5 7.5 10.5s4.33301 7.66699 7 14s4.66699 11.333 6 15s3.5 10.167 6.5 19.5l7 22c1.66699 5.33301 4.33398 14.5 8.00098 27.5s6.83398 23.5 9.50098 31.5l60 35l6 -4
c-8.66699 -34.667 -13 -67.334 -13 -98.001c0 -35.333 10.667 -63.333 32 -84s45.333 -31 72 -31c14.667 0 27.167 4 37.5 12s15.5 19 15.5 33c0 32.667 -8.33301 86.667 -25 162c28 32.667 58 62.667 90 90zM697.998 -246.998c-28.667 -40.667 -54 -71.334 -76 -92.001
c-39.333 37.333 -78.333 72 -117 104c24.667 34.667 51 66.334 79 95.001c35.333 -28 73.333 -63.667 114 -107zM504.998 -259.998c-28.667 -40.667 -54 -71.334 -76 -92.001c-39.333 37.333 -78.333 72 -117 104c24.667 34.667 51 66.334 79 95.001
c35.333 -28 73.333 -63.667 114 -107zM644.998 -458.998c-28.667 -40.667 -54 -71.334 -76 -92.001c-39.333 37.333 -78.333 72 -117 104c24.667 34.667 51 66.334 79 95.001c35.333 -28 73.333 -63.667 114 -107z" />
    <glyph glyph-name="uni069C.medi" unicode="&#x69c;" horiz-adv-x="1024" 
d="M622 792c-28.667 -40.667 -54 -71.334 -76 -92.001c-39.333 37.333 -78.333 72 -117 104c24.667 34.667 51 66.334 79 95.001c35.333 -28 73.333 -63.667 114 -107zM568 579c-28.667 -40.667 -54 -71.334 -76 -92.001c-39.333 37.333 -78.333 72 -117 104
c24.667 34.667 51 66.334 79 95.001c35.333 -28 73.333 -63.667 114 -107zM761 592c-28.667 -40.667 -54 -71.334 -76 -92.001c-39.333 37.333 -78.333 72 -117 104c24.667 34.667 51 66.334 79 95.001c35.333 -28 73.333 -63.667 114 -107zM1024 128l0.000976562 -128.001
h-25c-109.333 0 -178 31.333 -206 94h-6c-53.333 -62.667 -110.333 -94 -171 -94c-60 0 -96.333 27.667 -109 83h-4c-50.667 -55.333 -108.334 -83 -173.001 -83c-58 0 -90 28.333 -96 85h-4c-48.667 -56.667 -119.667 -85 -213 -85h-17c-24.667 0 -42.5 6.83301 -53.5 20.5
s-16.5 29.167 -16.5 46.5c0 15.333 5.66699 29.333 17 42s29 19 53 19h34c96 1.33301 166.333 32.333 211 93l50 78l77 27l4 -5c-43.333 -75.333 -65 -123 -65 -143c0 -15.333 5 -27.5 15 -36.5s23 -13.5 39 -13.5c32 0 61 10 87 30c26 18.667 47.667 48 65 88l24 59l76 35
l4 -4c-27.333 -69.333 -41 -119.333 -41 -150c0 -15.333 4.83301 -28.833 14.5 -40.5s23.5 -17.5 41.5 -17.5c24 0 47 7.33301 69 22c25.333 17.333 44.666 49.333 57.999 96c0.666992 3.33301 2.16699 8.83301 4.5 16.5s4.83301 16.834 7.5 27.501
s5.33398 22.334 8.00098 35.001l76 51l4 -3c-16.667 -56.667 -25 -102.334 -25 -137.001c0 -72 54.667 -108 164 -108h22zM718.001 -247.001c-28.667 -40.667 -54 -71.334 -76 -92.001c-39.333 37.333 -78.333 72 -117 104c24.667 34.667 51 66.334 79 95.001
c35.333 -28 73.333 -63.667 114 -107zM525.001 -260.001c-28.667 -40.667 -54 -71.334 -76 -92.001c-39.333 37.333 -78.333 72 -117 104c24.667 34.667 51 66.334 79 95.001c35.333 -28 73.333 -63.667 114 -107zM665.001 -459.001
c-28.667 -40.667 -54 -71.334 -76 -92.001c-39.333 37.333 -78.333 72 -117 104c24.667 34.667 51 66.334 79 95.001c35.333 -28 73.333 -63.667 114 -107z" />
    <glyph glyph-name="uni069C.fina" unicode="&#x69c;" horiz-adv-x="1467" 
d="M1191 602c-28.667 -40.667 -54 -71.334 -76 -92.001c-39.333 37.333 -78.333 72 -117 104c24.667 34.667 51 66.334 79 95.001c35.333 -28 73.333 -63.667 114 -107zM998 589c-28.667 -40.667 -54 -71.334 -76 -92.001c-39.333 37.333 -78.333 72 -117 104
c24.667 34.667 51 66.334 79 95.001c35.333 -28 73.333 -63.667 114 -107zM1052 802c-28.667 -40.667 -54 -71.334 -76 -92.001c-39.333 37.333 -78.333 72 -117 104c24.667 34.667 51 66.334 79 95.001c35.333 -28 73.333 -63.667 114 -107zM773 0l-20.002 0.000976562
c-11.333 -73.333 -24 -126.666 -38 -159.999c-25.333 -56.667 -70 -103.334 -134 -140.001s-131.333 -55 -202 -55c-94 0 -166 28.333 -216 85s-75 130.667 -75 222c0 105.333 26.333 198.666 79 279.999l35 -18c-32 -72 -48 -134.333 -48 -187
c0 -78 23.167 -137.833 69.5 -179.5s104.5 -62.5 174.5 -62.5c74.667 0 142.834 23.167 204.501 69.5s92.5 93.833 92.5 142.5c0 32 -9.33301 72.333 -28 121s-43.667 96.667 -75 144c15.333 28.667 37.333 64.334 66 107.001h4c32.667 -63.333 60 -127 82 -191
c7.33301 -18 15.5 -30.833 24.5 -38.5s22.167 -11.5 39.5 -11.5c26 0 51.333 9.33301 76 28c26.667 18 46 44.333 58 79l26 74l68 31l4 -5c-20 -62.667 -30 -111.334 -30 -146.001c0 -20 6.33301 -35.167 19 -45.5s29.334 -15.5 50.001 -15.5c60 0 101 44.333 123 133l17 70
l73 43l4 -5c-16 -61.333 -24 -107 -24 -137c0 -69.333 57.667 -104 173 -104h22v-128h-25c-116 -0 -188 31.333 -216 94h-6c-53.333 -62.667 -111.666 -94 -174.999 -94c-58.667 0 -94.334 27.667 -107.001 83h-6c-36.667 -55.333 -89.667 -83 -159 -83zM1218 -246.999
c-28.667 -40.667 -54 -71.334 -76 -92.001c-39.333 37.333 -78.333 72 -117 104c24.667 34.667 51 66.334 79 95.001c35.333 -28 73.333 -63.667 114 -107zM1025 -259.999c-28.667 -40.667 -54 -71.334 -76 -92.001c-39.333 37.333 -78.333 72 -117 104
c24.667 34.667 51 66.334 79 95.001c35.333 -28 73.333 -63.667 114 -107zM1165 -458.999c-28.667 -40.667 -54 -71.334 -76 -92.001c-39.333 37.333 -78.333 72 -117 104c24.667 34.667 51 66.334 79 95.001c35.333 -28 73.333 -63.667 114 -107z" />
    <glyph glyph-name="uni069D.init" unicode="&#x69d;" horiz-adv-x="1066" 
d="M0 128h21.998c44.667 0 81.834 7.5 111.501 22.5s47.5 36.833 53.5 65.5c10 49.333 18.667 87.333 26 114c17.333 16.667 39.333 34 66 52l6 -6c-10.667 -38 -16 -69.333 -16 -94c0 -47.333 20 -84.333 60 -111c73.333 112 142 196.667 206 254
c81.333 72.667 161.333 109 240 109c44.667 0 82.834 -10.667 114.501 -32s55.5 -47.333 71.5 -78c16.667 -34 25 -73 25 -117c0 -27.333 -6.33301 -59 -19 -95c-28.667 -84.667 -98 -145 -208 -181c-60 -20.667 -143 -31 -249 -31c-140.667 0 -236.667 35 -288 105h-3
c-44.667 -70 -113.667 -105 -207 -105h-12c-24.667 -0 -42.5 6.83301 -53.5 20.5s-16.5 29.167 -16.5 46.5c0 15.333 5.66699 29.333 17 42s29 19 53 19zM380.998 149c42 -14 104.332 -21 186.999 -21c94 0 180.667 19 260 57c54.667 26 82 50 82 72
c-6.66699 43.333 -26 79.5 -58 108.5s-70 43.5 -114 43.5c-57.333 0 -117.666 -23.833 -180.999 -71.5s-122 -110.5 -176 -188.5zM590.997 -307c-28.667 -40.667 -54 -71.334 -76 -92.001c-39.333 37.333 -78.333 72 -117 104c24.667 34.667 51 66.334 79 95.001
c35.333 -28 73.333 -63.667 114 -107zM783.997 -294c-28.667 -40.667 -54 -71.334 -76 -92.001c-39.333 37.333 -78.333 72 -117 104c24.667 34.667 51 66.334 79 95.001c35.333 -28 73.333 -63.667 114 -107z" />
    <glyph glyph-name="uni069D.medi" unicode="&#x69d;" horiz-adv-x="1063" 
d="M0 128l22 0.000976562c44.667 0 81.834 7.5 111.501 22.5s47.5 36.833 53.5 65.5c10 49.333 18.667 87.333 26 114c17.333 16.667 39.333 34 66 52l6 -6c-10.667 -38 -16 -69.333 -16 -94c0 -26.667 4 -48.334 12 -65.001s22.333 -32 43 -46
c72.667 110.667 141.667 194.667 207 252c78.667 68.667 153.334 103 224.001 103c68.667 0 123.5 -21.5 164.5 -64.5s61.5 -95.167 61.5 -156.5c0 -50 -17 -109 -51 -177h133v-128h-26c-100.667 0 -200.334 11.667 -299.001 35c-74.667 -23.333 -152.334 -35 -233.001 -35
c-136.667 0 -231 35 -283 105h-3c-44.667 -70 -113.667 -105 -207 -105h-12c-24.667 -0 -42.5 6.83301 -53.5 20.5s-16.5 29.167 -16.5 46.5c0 15.333 5.66699 29.333 17 42s29 19 53 19zM380 149.001c42 -14 103.002 -21 183.002 -21c47.333 0 95.166 4.5 143.499 13.5
s87.166 19.5 116.499 31.5c54.667 22 82 47 82 75c-6.66699 42.667 -28.167 78.167 -64.5 106.5s-77.166 42.5 -122.499 42.5c-104.667 0 -217.334 -82.667 -338.001 -248zM591.002 -306.999c-28.667 -40.667 -54 -71.334 -76 -92.001c-39.333 37.333 -78.333 72 -117 104
c24.667 34.667 51 66.334 79 95.001c35.333 -28 73.333 -63.667 114 -107zM784.002 -293.999c-28.667 -40.667 -54 -71.334 -76 -92.001c-39.333 37.333 -78.333 72 -117 104c24.667 34.667 51 66.334 79 95.001c35.333 -28 73.333 -63.667 114 -107z" />
    <glyph glyph-name="uni069D.fina" unicode="&#x69d;" horiz-adv-x="1477" 
d="M738 171c71.333 109.333 140.337 193.002 207.004 251.002c79.333 69.333 154 104 224 104c68.667 0 123.5 -21.5 164.5 -64.5s61.5 -95.167 61.5 -156.5c0 -50 -17 -109 -51 -177h133v-128h-38c-92.667 0 -188.334 11.667 -287.001 35
c-74.667 -23.333 -152.334 -35 -233.001 -35c-22.667 0 -43.167 0.5 -61.5 1.5s-33.833 2.66699 -46.5 5s-22.334 4.16602 -29.001 5.49902s-13.834 3.33301 -21.501 6s-11.834 4 -12.501 4c-10 -64 -23 -115.333 -39 -154c-25.333 -58 -69 -106.167 -131 -144.5
s-127.667 -57.5 -197 -57.5c-93.333 0 -165.166 29.833 -215.499 89.5s-75.5 135.5 -75.5 227.5c0 108.667 25.333 202 76 280l38 -18c-32 -72 -48 -134.333 -48 -187c0 -78.667 23.5 -140.334 70.5 -185.001s104.833 -67 173.5 -67c58 0 114 19.167 168 57.5
s91.667 81.5 113 129.5c-10 118 -46 224 -108 318c17.333 32 42 67.667 74 107l8 -1c44 -71.333 71.667 -153.333 83 -246zM794.004 149.002c42 -14 103 -21.001 183 -21.001c46 0 93.333 4.33301 142 13s88 19.334 118 32.001c54.667 22 82 47 82 75
c-6.66699 42.667 -28.167 78.167 -64.5 106.5s-77.166 42.5 -122.499 42.5c-104.667 0 -217.334 -82.667 -338.001 -248zM1015 -306.999c-28.667 -40.667 -54 -71.334 -76 -92.001c-39.333 37.333 -78.333 72 -117 104c24.667 34.667 51 66.334 79 95.001
c35.333 -28 73.333 -63.667 114 -107zM1208 -293.999c-28.667 -40.667 -54 -71.334 -76 -92.001c-39.333 37.333 -78.333 72 -117 104c24.667 34.667 51 66.334 79 95.001c35.333 -28 73.333 -63.667 114 -107z" />
    <glyph glyph-name="uni069E.init" unicode="&#x69e;" horiz-adv-x="1066" 
d="M0 128h21.998c44.667 0 81.834 7.5 111.501 22.5s47.5 36.833 53.5 65.5c10 49.333 18.667 87.333 26 114c17.333 16.667 39.333 34 66 52l6 -6c-10.667 -38 -16 -69.333 -16 -94c0 -47.333 20 -84.333 60 -111c73.333 112 142 196.667 206 254
c81.333 72.667 161.333 109 240 109c44.667 0 82.834 -10.667 114.501 -32s55.5 -47.333 71.5 -78c16.667 -34 25 -73 25 -117c0 -27.333 -6.33301 -59 -19 -95c-28.667 -84.667 -98 -145 -208 -181c-60 -20.667 -143 -31 -249 -31c-140.667 0 -236.667 35 -288 105h-3
c-44.667 -70 -113.667 -105 -207 -105h-12c-24.667 -0 -42.5 6.83301 -53.5 20.5s-16.5 29.167 -16.5 46.5c0 15.333 5.66699 29.333 17 42s29 19 53 19zM380.998 149c42 -14 104.332 -21 186.999 -21c94 0 180.667 19 260 57c54.667 26 82 50 82 72
c-6.66699 43.333 -26 79.5 -58 108.5s-70 43.5 -114 43.5c-57.333 0 -117.666 -23.833 -180.999 -71.5s-122 -110.5 -176 -188.5zM825.997 762c-28.667 -40.667 -54 -71.334 -76 -92.001c-39.333 37.333 -78.333 72 -117 104c24.667 34.667 51 66.334 79 95.001
c35.333 -28 73.333 -63.667 114 -107zM632.997 749c-28.667 -40.667 -54 -71.334 -76 -92.001c-39.333 37.333 -78.333 72 -117 104c24.667 34.667 51 66.334 79 95.001c35.333 -28 73.333 -63.667 114 -107zM686.997 962c-28.667 -40.667 -54 -71.334 -76 -92.001
c-39.333 37.333 -78.333 72 -117 104c24.667 34.667 51 66.334 79 95.001c35.333 -28 73.333 -63.667 114 -107z" />
    <glyph glyph-name="uni069E.medi" unicode="&#x69e;" horiz-adv-x="1063" 
d="M0 128l22 0.000976562c44.667 0 81.834 7.5 111.501 22.5s47.5 36.833 53.5 65.5c10 49.333 18.667 87.333 26 114c17.333 16.667 39.333 34 66 52l6 -6c-10.667 -38 -16 -69.333 -16 -94c0 -26.667 4 -48.334 12 -65.001s22.333 -32 43 -46
c72.667 110.667 141.667 194.667 207 252c78.667 68.667 153.334 103 224.001 103c68.667 0 123.5 -21.5 164.5 -64.5s61.5 -95.167 61.5 -156.5c0 -50 -17 -109 -51 -177h133v-128h-26c-100.667 0 -200.334 11.667 -299.001 35c-74.667 -23.333 -152.334 -35 -233.001 -35
c-136.667 0 -231 35 -283 105h-3c-44.667 -70 -113.667 -105 -207 -105h-12c-24.667 -0 -42.5 6.83301 -53.5 20.5s-16.5 29.167 -16.5 46.5c0 15.333 5.66699 29.333 17 42s29 19 53 19zM380 149.001c42 -14 103.002 -21 183.002 -21c47.333 0 95.166 4.5 143.499 13.5
s87.166 19.5 116.499 31.5c54.667 22 82 47 82 75c-6.66699 42.667 -28.167 78.167 -64.5 106.5s-77.166 42.5 -122.499 42.5c-104.667 0 -217.334 -82.667 -338.001 -248zM826.002 762.001c-28.667 -40.667 -54 -71.334 -76 -92.001c-39.333 37.333 -78.333 72 -117 104
c24.667 34.667 51 66.334 79 95.001c35.333 -28 73.333 -63.667 114 -107zM633.002 749.001c-28.667 -40.667 -54 -71.334 -76 -92.001c-39.333 37.333 -78.333 72 -117 104c24.667 34.667 51 66.334 79 95.001c35.333 -28 73.333 -63.667 114 -107zM687.002 962.001
c-28.667 -40.667 -54 -71.334 -76 -92.001c-39.333 37.333 -78.333 72 -117 104c24.667 34.667 51 66.334 79 95.001c35.333 -28 73.333 -63.667 114 -107z" />
    <glyph glyph-name="uni069E.fina" unicode="&#x69e;" horiz-adv-x="1477" 
d="M738 171c71.333 109.333 140.337 193.002 207.004 251.002c79.333 69.333 154 104 224 104c68.667 0 123.5 -21.5 164.5 -64.5s61.5 -95.167 61.5 -156.5c0 -50 -17 -109 -51 -177h133v-128h-38c-92.667 0 -188.334 11.667 -287.001 35
c-74.667 -23.333 -152.334 -35 -233.001 -35c-22.667 0 -43.167 0.5 -61.5 1.5s-33.833 2.66699 -46.5 5s-22.334 4.16602 -29.001 5.49902s-13.834 3.33301 -21.501 6s-11.834 4 -12.501 4c-10 -64 -23 -115.333 -39 -154c-25.333 -58 -69 -106.167 -131 -144.5
s-127.667 -57.5 -197 -57.5c-93.333 0 -165.166 29.833 -215.499 89.5s-75.5 135.5 -75.5 227.5c0 108.667 25.333 202 76 280l38 -18c-32 -72 -48 -134.333 -48 -187c0 -78.667 23.5 -140.334 70.5 -185.001s104.833 -67 173.5 -67c58 0 114 19.167 168 57.5
s91.667 81.5 113 129.5c-10 118 -46 224 -108 318c17.333 32 42 67.667 74 107l8 -1c44 -71.333 71.667 -153.333 83 -246zM794.004 149.002c42 -14 103 -21.001 183 -21.001c46 0 93.333 4.33301 142 13s88 19.334 118 32.001c54.667 22 82 47 82 75
c-6.66699 42.667 -28.167 78.167 -64.5 106.5s-77.166 42.5 -122.499 42.5c-104.667 0 -217.334 -82.667 -338.001 -248zM1160 762.001c-28.667 -40.667 -54 -71.334 -76 -92.001c-39.333 37.333 -78.333 72 -117 104c24.667 34.667 51 66.334 79 95.001
c35.333 -28 73.333 -63.667 114 -107zM967.004 749.001c-28.667 -40.667 -54 -71.334 -76 -92.001c-39.333 37.333 -78.333 72 -117 104c24.667 34.667 51 66.334 79 95.001c35.333 -28 73.333 -63.667 114 -107zM1021 962.001c-28.667 -40.667 -54 -71.334 -76 -92.001
c-39.333 37.333 -78.333 72 -117 104c24.667 34.667 51 66.334 79 95.001c35.333 -28 73.333 -63.667 114 -107z" />
    <glyph glyph-name="uni069F.init" unicode="&#x69f;" horiz-adv-x="925" 
d="M0 128l92 0.00195312l54 91c10 39.333 15 105.666 15 198.999c0 133.333 -8.33301 286.333 -25 459c-4 41.333 -6 74 -6 98c0 21.333 6.33301 40.666 19 57.999s32.334 36.333 59.001 57l7 -7c0 -55.333 28.333 -128.666 85 -219.999l-65 -50
c6 -129.333 9 -237.333 9 -324c0 -77.333 -11.667 -144 -35 -200h4c83.333 84 156.666 146.333 219.999 187c64 40 126.667 60 188 60c60 0 109.667 -18.667 149 -56c50 -46.667 75 -105.667 75 -177c0 -18 -7.66699 -53.333 -23 -106c-12 -40.667 -40 -75 -84 -103
s-98 -48.333 -162 -61s-123.5 -21.334 -178.5 -26.001s-112.5 -7 -172.5 -7h-225c-24.667 -0 -42.5 6.83301 -53.5 20.5s-16.5 29.167 -16.5 46.5c0 15.333 5.66699 29.333 17 42s29 19 53 19zM161 128.002l88.001 0.000976562c207.333 0 361 25 461 75
c27.333 13.333 47.333 28.666 60 45.999c-0.666992 37.333 -19.834 72.333 -57.501 105s-82.5 49 -134.5 49c-122.667 0 -261.667 -91.667 -417 -275zM569.001 757.003c-27.333 -38.667 -51.001 -67.333 -71.001 -86c-44 40.667 -80.667 73.334 -110 98.001
c20 27.333 44.667 57 74 89c34.667 -26.667 70.334 -60.334 107.001 -101.001zM756 769.004c-30.667 -42 -54.666 -70.666 -71.999 -85.999c-34.667 34 -71.334 66.667 -110.001 98c26 35.333 51 65 75 89c33.333 -26.667 69 -60.334 107 -101.001zM621.001 950.005
c-27.333 -38.667 -51.001 -67.333 -71.001 -86c-44 40.667 -80.667 73.334 -110 98.001c20 27.333 44.667 57 74 89c34.667 -26.667 70.334 -60.334 107.001 -101.001z" />
    <glyph glyph-name="uni069F.medi" unicode="&#x69f;" horiz-adv-x="940" 
d="M0 128l70 0.000976562l76 91c10 39.333 15 105.666 15 198.999c0 133.333 -8.33301 286.333 -25 459c-4 41.333 -6 74 -6 98c0 21.333 6.33301 40.666 19 57.999s32.334 36.333 59.001 57l7 -7c0 -55.333 28.333 -128.666 85 -219.999l-65 -50
c6 -129.333 9 -237.333 9 -324c0 -77.333 -11.667 -144 -35 -200h4c79.333 84.667 150 145.667 212 183c59.333 36.667 121.333 55 186 55c64 0 119.833 -23.833 167.5 -71.5s71.5 -105.834 71.5 -174.501c0 -39.333 -17.333 -88.666 -52 -147.999
c20.667 -3.33301 55 -5 103 -5h39v-128h-24c-112.667 0 -220.667 10.667 -324 32c-116.667 -21.333 -290.334 -32 -521.001 -32h-71c-24.667 -0 -42.5 6.83301 -53.5 20.5s-16.5 29.167 -16.5 46.5c0 15.333 5.66699 29.333 17 42s29 19 53 19zM156 128.001h93
c308 0 480.333 31 517 93c0 43.333 -20.667 82.5 -62 117.5s-90 52.5 -146 52.5c-61.333 0 -122.5 -21 -183.5 -63s-133.833 -108.667 -218.5 -200zM579 757.001c-27.333 -38.667 -51.001 -67.333 -71.001 -86c-44 40.667 -80.667 73.334 -110 98.001
c20 27.333 44.667 57 74 89c34.667 -26.667 70.334 -60.334 107.001 -101.001zM765.999 769.002c-30.667 -42 -54.666 -70.666 -71.999 -85.999c-34.667 34 -71.334 66.667 -110.001 98c26 35.333 51 65 75 89c33.333 -26.667 69 -60.334 107 -101.001zM631 950.003
c-27.333 -38.667 -51.001 -67.333 -71.001 -86c-44 40.667 -80.667 73.334 -110 98.001c20 27.333 44.667 57 74 89c34.667 -26.667 70.334 -60.334 107.001 -101.001z" />
    <glyph glyph-name="uni069F.fina" unicode="&#x69f;" horiz-adv-x="1179" 
d="M331 128l54 91.002c10 39.333 15 105.666 15 198.999c0 132 -8.33301 285 -25 459c-4 41.333 -6 74 -6 98c0 21.333 6.33301 40.666 19 57.999s32.334 36.333 59.001 57l7 -7c0 -55.333 28.333 -128.666 85 -219.999l-65 -50c6 -129.333 9 -237.333 9 -324
c0 -77.333 -11.667 -144 -35 -200h4c79.333 84.667 150 145.667 212 183c59.333 36.667 121.333 55 186 55c64 0 119.833 -23.833 167.5 -71.5s71.5 -105.834 71.5 -174.501c0 -39.333 -17.333 -88.666 -52 -147.999c20.667 -3.33301 55 -5 103 -5h39v-128h-24
c-112.667 0 -220.667 10.667 -324 32c-108.667 -21.333 -238.334 -32 -389.001 -32c-44.667 0 -81.667 1.33301 -111 4l-86 -121l-8 8c9.33301 57.333 20.666 97.333 33.999 120l-76 9c-57.333 45.333 -105.666 88.666 -144.999 129.999l4 12
c96 -20 188.333 -31.333 277 -34zM395 128.002h93c308 0 480.333 31 517 93c0 43.333 -20.667 82.5 -62 117.5s-90 52.5 -146 52.5c-61.333 0 -122.5 -21 -183.5 -63s-133.833 -108.667 -218.5 -200zM808 757.002c-27.333 -38.667 -51.001 -67.333 -71.001 -86
c-44 40.667 -80.667 73.334 -110 98.001c20 27.333 44.667 57 74 89c34.667 -26.667 70.334 -60.334 107.001 -101.001zM994.999 769.003c-30.667 -42 -54.666 -70.666 -71.999 -85.999c-34.667 34 -71.334 66.667 -110.001 98c26 35.333 51 65 75 89
c33.333 -26.667 69 -60.334 107 -101.001zM860 950.004c-27.333 -38.667 -51.001 -67.333 -71.001 -86c-44 40.667 -80.667 73.334 -110 98.001c20 27.333 44.667 57 74 89c34.667 -26.667 70.334 -60.334 107.001 -101.001z" />
    </font>
</defs>
</svg>
